<svg xmlns="http://www.w3.org/2000/svg" xmlns:xlink="http://www.w3.org/1999/xlink" viewBox="0 0 500 500"><defs><style>.cls-1{fill:url(#Degradado_sin_nombre_34);}.cls-2{fill:url(#Degradado_sin_nombre_57);}.cls-3{fill:url(#Degradado_sin_nombre_34-2);}.cls-4{fill:url(#Degradado_sin_nombre_34-3);}.cls-5{fill:url(#Degradado_sin_nombre_57-2);}</style><linearGradient id="Degradado_sin_nombre_34" x1="118.76" y1="115.36" x2="155.19" y2="389.26" gradientUnits="userSpaceOnUse"><stop offset="0" stop-color="#5632bd"/><stop offset="1" stop-color="#d76ae3"/></linearGradient><linearGradient id="Degradado_sin_nombre_57" x1="332.97" y1="252.9" x2="260.09" y2="81.29" gradientUnits="userSpaceOnUse"><stop offset="0" stop-color="#67ebab"/><stop offset="0.43" stop-color="#50d2cd"/><stop offset="1" stop-color="#2faeff"/></linearGradient><linearGradient id="Degradado_sin_nombre_34-2" x1="115.78" y1="330.25" x2="205.42" y2="508.3" xlink:href="#Degradado_sin_nombre_34"/><linearGradient id="Degradado_sin_nombre_34-3" x1="215.31" y1="318.89" x2="252.23" y2="392.23" xlink:href="#Degradado_sin_nombre_34"/><linearGradient id="Degradado_sin_nombre_57-2" x1="406.82" y1="415.17" x2="319.83" y2="241.2" xlink:href="#Degradado_sin_nombre_57"/></defs><g id="OBJECTS"><path class="cls-1" d="M148.62,310.36,120,339a15,15,0,1,1-13.89-9.41,14.88,14.88,0,0,1,5.56,1.08L140.29,302,117,278.74a15,15,0,1,1,8.33-8.33l51.25,51.25,13.83-13.84a15,15,0,1,1,8.33,8.33L184.91,330l58.17,58.18V261.83l-31-31a14.79,14.79,0,0,1-5.55,1.08,15,15,0,1,1,13.88-9.41l22.67,22.67V190l-50.81-50.81a14.95,14.95,0,1,1,8.34-8.33l42.47,42.47V21.82a58.91,58.91,0,0,0-73,50.71c0,.17,0,.35-.07.54a12.85,12.85,0,0,1-15.46,11.55,58.89,58.89,0,0,0-68.95,75.83,16.48,16.48,0,0,1-11.69,21.31C35,190.9,2.25,223.4,2.25,262.09A82.49,82.49,0,0,0,20,313.32a83.41,83.41,0,0,0,29.31,23.54,12.55,12.55,0,0,1,6.46,15.49,58.9,58.9,0,0,0,55.59,78.4c6.69,0,14.45-1.77,21.09-3.84a13,13,0,0,1,16.43,9,58.9,58.9,0,0,0,94.23,30.85v-61.9Z"/><path class="cls-2" d="M481.82,217.15C468.58,199.85,448.31,187,426,181.76a16.47,16.47,0,0,1-11.66-21.31,58.82,58.82,0,0,0-23.07-67.13,58,58,0,0,0-28.23-9.95,59.47,59.47,0,0,0-17.68,1.25c-7.56,1.72-14.7-3.84-15.46-11.55,0-.19,0-.37-.07-.54a58.9,58.9,0,0,0-73-50.71V174.53l43.73-43.72a15,15,0,1,1,8.33,8.33l-52.06,52.05v55.22l23.92-23.91a15,15,0,1,1,8.33,8.33l-32.25,32.25V389.41l58.69-58.69L301,316.15a15,15,0,1,1,8.33-8.33l14.57,14.57,52-52a15,15,0,1,1,8.33,8.33l-23.9,23.9,28.06,28.07a15,15,0,1,1-9.4,13.88,15.06,15.06,0,0,1,1.07-5.55L352,311l-94.74,94.75-.36-.36v61.37a58.91,58.91,0,0,0,94.24-30.85,13,13,0,0,1,16.43-9c6.64,2.07,14.42,3.84,21.09,3.84a59,59,0,0,0,55.61-78.4,12.53,12.53,0,0,1,6.43-15.49,82.93,82.93,0,0,0,47.06-74.77C497.75,245.52,491.77,230.09,481.82,217.15Z"/><path class="cls-3" d="M200,361.75C146.49,398.4,98.64,408.11,65.78,409.21a58.82,58.82,0,0,0,45.55,21.54c6.69,0,14.45-1.77,21.09-3.84a13,13,0,0,1,16.43,9,58.9,58.9,0,0,0,94.23,30.85v-61.9Z"/><path class="cls-4" d="M243.08,327.06a378.55,378.55,0,0,1-33.33,27.77l33.33,33.34Z"/><path class="cls-5" d="M481.82,217.15C468.58,199.85,448.31,187,426,181.76a16.47,16.47,0,0,1-11.66-21.31,58.82,58.82,0,0,0-23.07-67.13c-43.06,99.49-89.46,168.21-134.42,215.43v80.66l58.69-58.69L301,316.15a15,15,0,1,1,8.33-8.33l14.57,14.57,52-52a15,15,0,1,1,8.33,8.33l-23.9,23.9,28.06,28.07a15,15,0,1,1-9.4,13.88,15.06,15.06,0,0,1,1.07-5.55L352,311l-94.74,94.75-.36-.36v61.37a58.91,58.91,0,0,0,94.24-30.85,13,13,0,0,1,16.43-9c6.64,2.07,14.42,3.84,21.09,3.84a59,59,0,0,0,55.61-78.4,12.53,12.53,0,0,1,6.43-15.49,82.93,82.93,0,0,0,47.06-74.77C497.75,245.52,491.77,230.09,481.82,217.15Z"/></g></svg>