<?xml version="1.0" encoding="utf-8"?>
<!-- Generator: Adobe Illustrator 24.0.1, SVG Export Plug-In . SVG Version: 6.00 Build 0)  -->
<svg version="1.1" id="Calque_1" xmlns="http://www.w3.org/2000/svg" xmlns:xlink="http://www.w3.org/1999/xlink" x="0px" y="0px"
	 viewBox="0 0 500 500" style="enable-background:new 0 0 500 500;" xml:space="preserve">
<style type="text/css">
	.st0{fill:url(#SVGID_1_);}
	.st1{fill:url(#SVGID_2_);}
	.st2{fill:url(#SVGID_3_);}
	.st3{fill:url(#SVGID_4_);}
	.st4{fill:url(#SVGID_5_);}
</style>
<linearGradient id="SVGID_1_" gradientUnits="userSpaceOnUse" x1="342.9173" y1="394.6564" x2="379.3473" y2="120.7564" gradientTransform="matrix(1 0 0 -1 0 502)">
	<stop  offset="0" style="stop-color:#5632BD"/>
	<stop  offset="1" style="stop-color:#D76AE3"/>
</linearGradient>
<path class="st0" d="M372.8,302.3L344.2,331c3.1,7.7-0.6,16.4-8.3,19.5c-7.7,3.1-16.4-0.6-19.5-8.3c-3.1-7.7,0.6-16.4,8.3-19.5
	c1.8-0.7,3.7-1.1,5.6-1.1c1.9,0,3.8,0.4,5.6,1.1l28.6-28.7l-23.3-23.3c-7.7,3.1-16.4-0.6-19.5-8.3c-3.1-7.7,0.6-16.4,8.3-19.5
	s16.4,0.6,19.5,8.3c1.4,3.6,1.4,7.6,0,11.2l51.3,51.3l13.8-13.8c-3.1-7.7,0.6-16.4,8.3-19.5c7.7-3.1,16.4,0.6,19.5,8.3
	c3.1,7.7-0.6,16.4-8.3,19.5c-3.6,1.4-7.6,1.4-11.2,0L409.1,322l58.2,58.2V253.8l-31-31c-1.8,0.7-3.6,1.1-5.6,1.1
	c-8.3,0-15-6.7-15-15s6.7-15,15-15c8.3,0,15,6.7,15,15c0,1.9-0.4,3.8-1.1,5.6l22.7,22.7V182l-50.8-50.8c-7.7,3.1-16.4-0.7-19.4-8.3
	s0.7-16.4,8.3-19.4c7.7-3.1,16.4,0.7,19.4,8.3c1.4,3.6,1.4,7.5,0,11.1l42.5,42.5V13.8c-31.5-8-63.6,11.1-71.6,42.7
	c-0.7,2.6-1.2,5.3-1.4,8c0,0.2,0,0.3-0.1,0.5c-0.6,7.1-6.8,12.4-13.8,11.8c-0.5,0-1.1-0.1-1.6-0.2c-31.7-7.2-63.3,12.7-70.4,44.4
	c-2.4,10.4-1.8,21.3,1.5,31.4c2.9,8.6-1.7,18-10.3,20.9c-0.5,0.2-0.9,0.3-1.4,0.4c-38.9,9.1-71.7,41.6-71.7,80.3
	c0,18.6,6.2,36.6,17.8,51.2c7.9,10,17.9,18,29.3,23.5c5.8,2.8,8.6,9.4,6.5,15.5c-10.8,30.7,5.4,64.3,36.1,75.1
	c6.3,2.2,12.9,3.3,19.5,3.3c6.7,0,14.4-1.8,21.1-3.8c6.9-2.1,14.1,1.7,16.3,8.5c0,0.2,0.1,0.3,0.1,0.5c8.2,31.5,40.3,50.4,71.8,42.2
	c8.2-2.1,15.9-6,22.4-11.4v-61.9L372.8,302.3z"/>
<linearGradient id="SVGID_2_" gradientUnits="userSpaceOnUse" x1="557.1243" y1="257.1143" x2="484.2442" y2="428.7242" gradientTransform="matrix(1 0 0 -1 0 502)">
	<stop  offset="0" style="stop-color:#67EBAB"/>
	<stop  offset="0.43" style="stop-color:#50D2CD"/>
	<stop  offset="1" style="stop-color:#2FAEFF"/>
</linearGradient>
<path class="st1" d="M706,209.1c-13.2-17.3-33.5-30.1-55.8-35.4c-8.8-2.2-14.2-11.1-12.1-19.9c0.1-0.5,0.3-0.9,0.4-1.4
	c8.2-25-1.2-52.4-23.1-67.1c-8.4-5.7-18.1-9.2-28.2-9.9c-5.9-0.5-11.9,0-17.7,1.3c-7.6,1.7-14.7-3.8-15.5-11.6c0-0.2,0-0.4-0.1-0.5
	c-3.5-32.3-32.6-55.7-64.9-52.2c-2.7,0.3-5.4,0.8-8.1,1.5v152.7l43.7-43.7c-3.1-7.7,0.6-16.4,8.3-19.5c7.7-3.1,16.4,0.6,19.5,8.3
	c3.1,7.7-0.6,16.4-8.3,19.5c-3.6,1.4-7.6,1.4-11.2,0L481,183.2v55.2l23.9-23.9c-3.1-7.7,0.6-16.4,8.3-19.5
	c7.7-3.1,16.4,0.6,19.5,8.3c3.1,7.7-0.6,16.4-8.3,19.5c-3.6,1.4-7.6,1.4-11.2,0L481,255.1v126.3l58.7-58.7l-14.5-14.6
	c-7.7,3.1-16.4-0.6-19.5-8.3c-3.1-7.7,0.6-16.4,8.3-19.5c7.7-3.1,16.4,0.6,19.5,8.3c1.4,3.6,1.4,7.6,0,11.2l14.6,14.6l52-52
	c-3.1-7.7,0.6-16.4,8.3-19.5c7.7-3.1,16.4,0.6,19.5,8.3c3.1,7.7-0.6,16.4-8.3,19.5c-3.6,1.4-7.6,1.4-11.2,0l-23.9,23.9l28.1,28.1
	c7.7-3.1,16.4,0.6,19.5,8.3s-0.6,16.4-8.3,19.5c-7.7,3.1-16.4-0.6-19.5-8.3c-0.7-1.8-1.1-3.7-1.1-5.6c0-1.9,0.4-3.8,1.1-5.5
	l-28.1-28l-94.7,94.8l-0.4-0.4v61.4c25.2,20.6,62.3,16.8,82.9-8.4c5.4-6.6,9.2-14.2,11.4-22.4c1.9-6.9,9-11,16-9.1
	c0.2,0,0.3,0.1,0.5,0.1c6.6,2.1,14.4,3.8,21.1,3.8c32.6-0.1,59-26.5,58.9-59.1c0-6.6-1.1-13.1-3.3-19.3c-2.1-6,0.6-12.7,6.4-15.5
	c28.8-13.8,47.1-42.9,47.1-74.8C721.9,237.5,715.9,222.1,706,209.1z"/>
<linearGradient id="SVGID_3_" gradientUnits="userSpaceOnUse" x1="339.934" y1="179.7637" x2="429.5739" y2="1.7137" gradientTransform="matrix(1 0 0 -1 0 502)">
	<stop  offset="0" style="stop-color:#5632BD"/>
	<stop  offset="1" style="stop-color:#D76AE3"/>
</linearGradient>
<path class="st2" d="M424.2,353.7c-53.5,36.6-101.4,46.4-134.2,47.5c11.2,13.6,27.9,21.6,45.6,21.5c6.7,0,14.4-1.8,21.1-3.8
	c6.9-2.1,14.1,1.7,16.3,8.5c0,0.2,0.1,0.3,0.1,0.5c8.2,31.5,40.3,50.4,71.8,42.2c8.2-2.1,15.9-6,22.4-11.4v-61.9L424.2,353.7z"/>
<linearGradient id="SVGID_4_" gradientUnits="userSpaceOnUse" x1="439.472" y1="191.1277" x2="476.392" y2="117.7877" gradientTransform="matrix(1 0 0 -1 0 502)">
	<stop  offset="0" style="stop-color:#5632BD"/>
	<stop  offset="1" style="stop-color:#D76AE3"/>
</linearGradient>
<path class="st3" d="M467.2,319c-10.6,9.9-21.7,19.2-33.3,27.8l33.3,33.3V319z"/>
<linearGradient id="SVGID_5_" gradientUnits="userSpaceOnUse" x1="630.9778" y1="94.8456" x2="543.9878" y2="268.8156" gradientTransform="matrix(1 0 0 -1 0 502)">
	<stop  offset="0" style="stop-color:#67EBAB"/>
	<stop  offset="0.43" style="stop-color:#50D2CD"/>
	<stop  offset="1" style="stop-color:#2FAEFF"/>
</linearGradient>
<path class="st4" d="M706,209.1c-13.2-17.3-33.5-30.1-55.8-35.4c-8.8-2.2-14.2-11.1-12.1-19.9c0.1-0.5,0.3-0.9,0.4-1.4
	c8.2-25-1.2-52.4-23.1-67.1C572.4,184.8,526,253.5,481,300.7v80.7l58.7-58.7l-14.5-14.6c-7.7,3.1-16.4-0.6-19.5-8.3
	c-3.1-7.7,0.6-16.4,8.3-19.5c7.7-3.1,16.4,0.6,19.5,8.3c1.4,3.6,1.4,7.6,0,11.2l14.6,14.6l52-52c-3.1-7.7,0.6-16.4,8.3-19.5
	c7.7-3.1,16.4,0.6,19.5,8.3c3.1,7.7-0.6,16.4-8.3,19.5c-3.6,1.4-7.6,1.4-11.2,0l-23.9,23.9l28.1,28.1c7.7-3.1,16.4,0.6,19.5,8.3
	s-0.6,16.4-8.3,19.5c-7.7,3.1-16.4-0.6-19.5-8.3c-0.7-1.8-1.1-3.7-1.1-5.6c0-1.9,0.4-3.8,1.1-5.5l-28.1-28l-94.7,94.8l-0.4-0.4v61.4
	c25.2,20.6,62.3,16.8,82.9-8.4c5.4-6.6,9.2-14.2,11.4-22.4c1.9-6.9,9-11,16-9.1c0.2,0,0.3,0.1,0.5,0.1c6.6,2.1,14.4,3.8,21.1,3.8
	c32.6-0.1,59-26.5,58.9-59.1c0-6.6-1.1-13.1-3.3-19.3c-2.1-6,0.6-12.7,6.4-15.5c28.8-13.8,47.1-42.9,47.1-74.8
	C721.9,237.5,715.9,222.1,706,209.1z"/>
</svg>
