<svg id="Calque_1" data-name="Calque 1" xmlns="http://www.w3.org/2000/svg" viewBox="0 0 1080 1080"><defs><style>.cls-1{fill:none;}.cls-2{fill:#4d7a59;}.cls-3{fill:#92e3a9;}.cls-4{fill:#a6ffbd;}.cls-5{fill:#1e3022;}.cls-6{fill:#9bc2e5;}.cls-7{fill:#68a6c6;}.cls-8{fill:#7eb2d2;}.cls-9{fill:#33414e;}.cls-10{fill:#fdfdfd;}.cls-11{fill:#9b4955;}.cls-12{fill:#15192f;}.cls-13{fill:#def0fc;}.cls-14{fill:#dc847c;}.cls-15{fill:#67a6c6;}.cls-16{fill:#445767;}.cls-17{fill:#96beda;}.cls-18{fill:#deeffb;}.cls-19{fill:#abd2ef;}.cls-20{fill:#68a6c7;}.cls-21{fill:#c5e1ef;}.cls-22{fill:#47cd9d;}.cls-23{fill:#3b786a;}.cls-24{fill:#f9d0a4;}.cls-25{fill:#ed5c5c;}.cls-26{fill:#f2b579;}.cls-27{fill:#a13c3d;}.cls-28{fill:#cbe6fd;}.cls-29{fill:#f2be8d;}.cls-30{fill:#fbcfd0;}</style></defs><path class="cls-1" d="M789.92,732a6.25,6.25,0,0,1,.17,1.28A6.25,6.25,0,0,0,789.92,732Z"/><path class="cls-1" d="M955.76,492.06c.06,18.05-.11,36.1-.12,54.14h0C955.65,528.16,955.82,510.11,955.76,492.06Z"/><path class="cls-1" d="M485.32,1045.75q21.18-46.28,42.24-92.61c2.29,0,4.57,0,6.86,0-2.29,0-4.57,0-6.86,0l16.62-36.62c.21-.66.43-1.32.64-2l45.95-18,42.08-20.21c13.93-8.1,28.06-15.89,41.76-24.37,25.39-15.73,49.83-32.8,71.67-53.33,14.19-15,26.62-31.19,35.09-50.13,2.84-6.35,5.12-13,7.65-19.45h0c.84-7.18,1.65-14.36,2.55-21.53a10.32,10.32,0,0,1,1-3.41c2.31-4.58,4.73-9.11,7.11-13.66.25-.71.48-1.44.77-2.14,8.95-21.45,14-43.59,11.92-67a7.36,7.36,0,0,1,.55-3.08q6.45-17.26,13-34.5h0q4.62-18.7,9.22-37.41c2.11-11-.1-20.85-7.47-29.42q-1.87-3.11-3.74-6.21c.24-1,.65-1.92.84-2.88-.19,1-.6,1.92-.84,2.88-11.29-11.9-25.79-19.21-39.48-27.67q6.09-21.39,12.2-42.8l28.14-10.29c14.69-9.36,25.94-21.61,31.49-38.37a73.43,73.43,0,0,0,3.88-17.29c.91-11.55-2.87-20.63-16-25.58l-20.78-1.59.81-3.73c1.67-1.95,4.14-3.63,4.87-5.88,3-9.22,5.72-18.55,8-28,.75-3.17-.15-6.74-.3-10.12l3.81-12.74c1.58-1.8,3.92-3.36,4.61-5.46,2.48-7.56,4.79-15.19,6.77-22.9-25.77-30.5-51.23-61.67-72.61-88.23q-26.56,0-53.14.07h0l-32.94.07-109.75.35h0c-19.35,2.55-35.08,11.43-47,26.9l-14.23-8.63h0L462,150.94c-.75,1.06-1.49,2.12-2.24,3.2C331.75,339.49,372,374.07,196.24,480.85q-8.9,31-17.8,61.92c-.34,1.17-.74,2.32-1.11,3.48l-47.51-.09,47.5.09q-5.43,18.74-10.88,37.48h0c-2.15,7.88-4.34,15.75-6.45,23.64-1.45,5.45-1.43,10.77,1.72,15.74,2.67,2.8,5,6.18,8.1,8.3,9.19,6.21,18.73,11.91,28.11,17.84q32.78,20.7,65.52,41.42l-94.58,0,94.58,0,13.7,8.51L302,714.92l-7.11,29.44c-.82,5-2.22,10-2.35,15.1-.34,12.67-.43,25.36,0,38,.26,7.2,1.77,14.37,2.71,21.55l-18,27.33h0Q254.42,882,231.57,917.63a29.81,29.81,0,0,0-5.59-1.08,29.81,29.81,0,0,1,5.59,1.08l-11.34,18.21c-5.27-.51-10.53-1.23-15.81-1.5-10-.51-19.5.22-24.8,10.85-1.47,2.93-3.84,5.41-5.79,8.1h0a10.47,10.47,0,0,1-.75,1.63l-19.83,28.8a89.16,89.16,0,0,0,17.15,9.51c58.6,23.43,170.16,99.83,306.59,69.59C479.78,1057.14,482.69,1051.5,485.32,1045.75Z"/><path class="cls-1" d="M1047.87,546.2Z"/><path class="cls-1" d="M129.84,519.42h0q0,13.37,0,26.73h0Q129.84,532.78,129.84,519.42Z"/><path class="cls-1" d="M951.09,803.68h0c0-3.42,0-6.83,0-10.25C951.09,796.85,951.09,800.26,951.09,803.68Z"/><path class="cls-1" d="M162.71,916.38l-41.87,0,41.88,0q0-38.61.09-77.2Q162.8,877.78,162.71,916.38Z"/><path class="cls-2" d="M115,690.59c4.72,0,5.83,1.38,5.83,5.94q-.21,106.71-.1,213.44c0,2.13.06,4.26.1,6.39l41.87,0q.06-38.61.1-77.2,0-71.26,0-142.52c0-5.95,0-6,6-6l94.58,0Q230.68,670,197.92,649.25c-9.38-5.93-18.92-11.63-28.11-17.84-3.14-2.12-5.43-5.5-8.1-8.3-3.15-5-3.17-10.29-1.72-15.74,2.11-7.89,4.3-15.76,6.45-23.64H59.88C36.8,616.56,25.49,653.16,22.71,690.64Q68.86,690.85,115,690.59Z"/><path class="cls-2" d="M129.84,519.42a261.17,261.17,0,0,0-36.22,26.74h36.2Q129.84,532.79,129.84,519.42Z"/><path class="cls-2" d="M173.82,953.29c-2.13,0-4.26-.11-6.39-.11H119.62c11.49,12.76,22.92,23.14,33.62,30.54l19.83-28.8A10.47,10.47,0,0,0,173.82,953.29Z"/><path class="cls-3" d="M726.15,144.9q0,12.6,0,25.19,26.58,0,53.14-.07c-26-32.36-46-57.86-53.13-66.94Q726.18,124,726.15,144.9Z"/><path class="cls-3" d="M583.5,120.13q0,25.2,0,50.38l109.75-.35c0-32.32.17-64.63-.05-96.94-24.6-16.8-62.63-33.47-108-22.09a87.25,87.25,0,0,0-1.73,18.63Q583.54,94.95,583.5,120.13Z"/><path class="cls-3" d="M522.22,153.24q0-34.53,0-69.07C502.72,100,482.52,121.68,462,150.94l60.22,37.84Q522.19,171,522.22,153.24Z"/><path class="cls-4" d="M166.44,583.73q5.44-18.74,10.88-37.48l-47.5-.09H93.62a217.08,217.08,0,0,0-33.74,37.57Z"/><path class="cls-4" d="M173.82,953.29h0c1.95-2.69,4.32-5.17,5.79-8.1,5.3-10.63,14.79-11.36,24.8-10.85,5.28.27,10.54,1,15.81,1.5l11.34-18.21a29.81,29.81,0,0,0-5.59-1.08c-21.09-.12-42.18-.13-63.26-.17l-41.88,0H91a346,346,0,0,0,28.6,36.81h47.81C169.56,953.18,171.69,953.25,173.82,953.29Z"/><path class="cls-2" d="M522.22,153.24q0,17.77,0,35.54h0l14.23,8.63c12-15.47,27.68-24.35,47-26.9h0q0-25.18,0-50.38t-.13-50.37a87.25,87.25,0,0,1,1.73-18.63c-19.73,4.95-40.86,15.2-62.89,33Q522.29,118.7,522.22,153.24Z"/><path class="cls-2" d="M693.2,170.16l32.94-.07h0q0-12.59,0-25.19,0-20.91,0-41.82l-2.79-3.6s-11-13.16-30.21-26.26C693.37,105.53,693.2,137.84,693.2,170.16Z"/><path class="cls-3" d="M120.74,910q0-106.72.1-213.44c0-4.56-1.11-6-5.83-5.94q-46.14.27-92.3,0c-6,80.94,27.73,165.93,68.31,225.73h29.82C120.8,914.23,120.74,912.1,120.74,910Z"/><path class="cls-3" d="M162.82,696.66q0,71.26,0,142.52,0,38.6-.09,77.2c21.08,0,42.17,0,63.26.17a29.81,29.81,0,0,1,5.59,1.08q22.85-35.64,45.68-71.27h0l-.12-109.24q0-19,0-37.94l-13.7-8.51-94.58,0C162.83,690.7,162.82,690.71,162.82,696.66Z"/><path class="cls-3" d="M177.33,546.25c.37-1.16.77-2.31,1.11-3.48q8.9-31,17.8-61.92c-16.3,9.9-34.46,20.43-54.78,31.75q-6,3.33-11.62,6.82,0,13.37,0,26.74Z"/><path class="cls-2" d="M825.9,583.68h0q-6.49,17.25-13,34.5a7.36,7.36,0,0,0-.55,3.08c2.08,23.42-3,45.56-11.92,67-.29.7-.52,1.43-.77,2.14,2.28.1,4.56.28,6.84.28q45.69,0,91.39,0c6.54,0,6.54,0,6.54,6.38V816.4q21.93-6.49,46.64-12.72c0-3.42,0-6.83,0-10.25,0-6.74,0-6.74,6.64-6.74h34.13c61.64-38.75,73.31-122,62.56-203h-223C829.56,583.72,827.73,583.7,825.9,583.68Z"/><path class="cls-2" d="M1027.94,546.2h19.93a503.19,503.19,0,0,0-19.95-68.5C1028,500.53,1027.93,523.37,1027.94,546.2Z"/><path class="cls-2" d="M893.83,318.84A186.59,186.59,0,0,0,899,349.69c1.89,7.6,5.34,14.83,8.34,22.13a127.76,127.76,0,0,1,10,49.66c-.2,41.57,0,83.14,0,124.71h38.34c0-18,.18-36.09.12-54.14q0-9-.17-18c-.31-20.52,2.7-40.14,11.59-58.87a73.85,73.85,0,0,0,6.76-28.06c-18.14-12.95-47.51-43.45-79.87-80C891.15,310.31,893.56,315.33,893.83,318.84Z"/><path class="cls-2" d="M840.51,286.61l-3.81,12.74c.15,3.38,1,6.95.3,10.12-2.26,9.42-5,18.75-8,28-.73,2.25-3.2,3.93-4.87,5.88l-.81,3.73,20.78,1.59c1.33-9.9,2.72-19.79,4-29.7a55.17,55.17,0,0,0,.46-9.52,4.51,4.51,0,0,0-2.17-3.4c-6-2.2-2.41-7-3.07-10.62-.59-3.23,2.46-3.5,4.61-3.75a96,96,0,0,1,10.46-.45q10.86-.06,21.71,0c-9.32-10.71-18.77-21.77-28.19-32.92-2,7.71-4.29,15.34-6.77,22.9C844.43,283.25,842.09,284.81,840.51,286.61Z"/><path class="cls-2" d="M527.56,953.14q-21.1,46.3-42.24,92.61c-2.63,5.75-5.54,11.39-8.34,17.07,29-6.42,59-17.64,90-35.2,0-.69,0-1.38,0-2s0-1.52,0-2.28c0-6.06.14-6.19,6.1-6.2h11.32c25.81-16.5,52.17-37.52,78.93-63.92H534.42C532.13,953.17,529.85,953.15,527.56,953.14Z"/><path class="cls-4" d="M632.77,916.38l-41.88,0-46.71.16-16.62,36.62c2.29,0,4.57,0,6.86,0H663.35q17.1-16.86,34.4-36.74l-36.7.06C651.62,916.5,642.19,916.42,632.77,916.38Z"/><path class="cls-4" d="M955.64,546.2H917.3l-82.18.08q-4.61,18.71-9.22,37.41h0c1.83,0,3.66,0,5.49,0h223c-1.68-12.62-3.89-25.19-6.56-37.52H955.64Z"/><path class="cls-3" d="M567,1023.29c0,.76,0,1.52,0,2.28s0,1.36,0,2q8.68-4.92,17.45-10.53H573.1C567.14,1017.1,567,1017.23,567,1023.29Z"/><path class="cls-2" d="M277.25,846.36h0l18-27.33c-.94-7.18-2.45-14.35-2.71-21.55-.44-12.66-.35-25.35,0-38,.13-5.05,1.53-10.07,2.35-15.1L302,714.92l-24.82-15.74q0,19,0,37.94Z"/><path class="cls-2" d="M824.77,429.88l-28.14,10.29q-6.11,21.4-12.2,42.8c13.69,8.46,28.19,15.77,39.48,27.67.24-1,.65-1.92.84-2.88a5.21,5.21,0,0,0,.1-1Q824.88,468.34,824.77,429.88Z"/><path class="cls-3" d="M897.91,690.7q-45.69,0-91.39,0c-2.28,0-4.56-.18-6.84-.28-2.38,4.55-4.8,9.08-7.11,13.66a10.32,10.32,0,0,0-1,3.41c-.9,7.17-1.71,14.35-2.55,21.53h0c.26,1,.67,2,.9,3a6.25,6.25,0,0,1,.17,1.28q0,62.75,0,125.49c29.43-13.63,67.11-28.35,114.37-42.34V697.08C904.45,690.7,904.45,690.7,897.91,690.7Z"/><path class="cls-3" d="M951.1,793.43c0,3.42,0,6.83,0,10.25l.52-.13a137.77,137.77,0,0,0,40.26-16.85H957.74C951.1,786.69,951.1,786.69,951.1,793.43Z"/><path class="cls-3" d="M858.37,291.2a96,96,0,0,0-10.46.45c-2.15.25-5.2.52-4.61,3.75.66,3.57-2.9,8.42,3.07,10.62a4.51,4.51,0,0,1,2.17,3.4,55.17,55.17,0,0,1-.46,9.52c-1.24,9.91-2.63,19.8-4,29.7,13.15,4.95,16.93,14,16,25.58a73.43,73.43,0,0,1-3.88,17.29c-5.55,16.76-16.8,29-31.49,38.37q.06,38.46.08,76.92a5.21,5.21,0,0,1-.1,1c-.19,1-.6,1.92-.84,2.88q1.86,3.11,3.74,6.21c7.37,8.57,9.58,18.45,7.47,29.42l82.18-.08h0c0-41.57-.17-83.14,0-124.71a127.76,127.76,0,0,0-10-49.66c-3-7.3-6.45-14.53-8.34-22.13a186.59,186.59,0,0,1-5.16-30.85c-.27-3.51-2.68-8.53.24-11.72q-6.92-7.81-14-15.95Q869.22,291.16,858.37,291.2Z"/><path class="cls-3" d="M955.59,474q.13,9,.17,18c.06,18.05-.11,36.1-.12,54.14h72.3c0-22.83,0-45.67,0-68.5-16.37-44.08-36.72-78.35-53.8-90.48l-.18-.13a73.85,73.85,0,0,1-6.76,28.06C958.29,433.88,955.28,453.5,955.59,474Z"/><path class="cls-3" d="M747.14,804.29a37.39,37.39,0,0,0-.86-5.7c-21.84,20.53-46.28,37.6-71.67,53.33-13.7,8.48-27.83,16.27-41.76,24.37q0,20-.08,40.09c9.42,0,18.85.12,28.28.11l36.7-.06c1-1.19,2.07-2.37,3.1-3.58,0,0,13.6-13.25,46.39-32.09q0-10.21,0-20.44Q747.19,832.3,747.14,804.29Z"/><path class="cls-2" d="M790.09,733.25a6.25,6.25,0,0,0-.17-1.28c-.23-1-.64-2-.9-3h0c-2.53,6.49-4.81,13.1-7.65,19.45-8.47,18.94-20.9,35.16-35.09,50.13a37.39,37.39,0,0,1,.86,5.7q.06,28,.08,56,0,10.21,0,20.44c11.73-6.74,25.92-14.2,42.84-22Q790.1,796,790.09,733.25Z"/><path class="cls-2" d="M590.89,916.36l41.88,0q0-20.05.08-40.09L590.77,896.5Q590.83,906.43,590.89,916.36Z"/><path class="cls-3" d="M590.77,896.5l-45.95,18c-.21.66-.43,1.32-.64,2l46.71-.16Q590.82,906.43,590.77,896.5Z"/><path class="cls-5" d="M45.07,0H171.74q15.42,0,25.58,5.52a38.31,38.31,0,0,1,15.24,14.19A35.65,35.65,0,0,1,217.64,38a37.66,37.66,0,0,1-5.52,19.36q-5.52,9.37-16.64,15.33t-27.77,6h-13v.7h39.77l27,52H138.28q-3.33-8.93-6.75-17.87T124.7,95.66q-3.42-8.94-6.92-17.87H138.1a17.15,17.15,0,0,0,6.22-1.05,12.83,12.83,0,0,0,4.47-2.8,11.83,11.83,0,0,0,2.63-4,12,12,0,0,0-.71-10.42A11.83,11.83,0,0,0,146,55a16.14,16.14,0,0,0-7.88-1.75h-20q-.18.18-.27.18c-.06,0-.08.06-.08.17V131.4H45.07V0Z"/><path class="cls-5" d="M296,91.81q9.29,0,14.37-3.33a10.81,10.81,0,0,0,5.25-9.11l54.14,17.69q-3.15,11-13.4,20.06T330.47,131.4a108.5,108.5,0,0,1-34.86,5.26A123.07,123.07,0,0,1,264.86,133a77.53,77.53,0,0,1-25.05-11.13,53.73,53.73,0,0,1-16.91-18.66q-6.14-11.2-6.13-26.1T222.9,51a53.91,53.91,0,0,1,16.91-18.66A77.65,77.65,0,0,1,265,21.2a123.32,123.32,0,0,1,30.66-3.68,119.65,119.65,0,0,1,30.57,3.68,68,68,0,0,1,24,11.3,51.36,51.36,0,0,1,15.6,19.27q5.52,11.65,5.52,27.6H275.63v.17A9.18,9.18,0,0,0,277,84.45,12.55,12.55,0,0,0,281,88.39a19.31,19.31,0,0,0,6.31,2.54A38.13,38.13,0,0,0,296,91.81Zm-.35-30q-8.6,0-14.19,3.06t-5.61,8.68v.35h39.25c.11,0,.17,0,.17-.09v-.26a8.71,8.71,0,0,0-1.49-5,12,12,0,0,0-4.12-3.68,22.11,22.11,0,0,0-6.21-2.27A36.16,36.16,0,0,0,295.61,61.85Z"/><path class="cls-5" d="M376.2,70.26V22.78h60.62V57.47l-.17.17L406.42,64Q391.27,67.1,376.2,70.26Zm0,61.14V70.26h60.62V131.4Z"/><path class="cls-5" d="M445.4,62V22.78h127L564.8,35q-4.45,7.18-9.54,15.24t-10.08,16q-5,7.88-9.2,14.45t-6.65,10.78a.36.36,0,0,1-.09.26q-.09.09.09.09h40.29V131.4H440.32l46.08-69a.52.52,0,0,1,.18-.35H445.4Z"/><path class="cls-5" d="M651.27,136.66a137.16,137.16,0,0,1-21-1.58,97.54,97.54,0,0,1-18.92-4.82,73.08,73.08,0,0,1-15.94-8.14,53.59,53.59,0,0,1-12.27-11.48,50.61,50.61,0,0,1-7.88-14.89,57.64,57.64,0,0,1-2.8-18.49,55.75,55.75,0,0,1,3.94-21.46,50.24,50.24,0,0,1,11.21-16.73,64.55,64.55,0,0,1,17.08-12,87.9,87.9,0,0,1,21.64-7.18,127,127,0,0,1,25-2.37A120.33,120.33,0,0,1,682,21.29,79.27,79.27,0,0,1,707.07,32.5,54,54,0,0,1,724,51.16q6.13,11.21,6.13,26.1t-6.13,26a54.09,54.09,0,0,1-16.91,18.57A77.63,77.63,0,0,1,682,133,123.12,123.12,0,0,1,651.27,136.66Zm.17-46.43q10.86,0,15.42-4.21t4.56-9.11a10.81,10.81,0,0,0-1-4.55A12.59,12.59,0,0,0,667,68.15a16.88,16.88,0,0,0-6.14-3.06A33.76,33.76,0,0,0,651.44,64a34.62,34.62,0,0,0-9.54,1.14,17.69,17.69,0,0,0-6.31,3.06,12,12,0,0,0-3.42,4.21,11.2,11.2,0,0,0-1,4.73,11.77,11.77,0,0,0,1,4.82,10.77,10.77,0,0,0,3.5,4.2,19.81,19.81,0,0,0,6.31,3A33.76,33.76,0,0,0,651.44,90.23Z"/><path class="cls-5" d="M735.37,131.4V0H796V131.4ZM856.78,73.94c-.12.11-.17.2-.17.26s0,.15.17.26l33.64,56.94H819.81q-3.85-9.11-7.79-18t-7.89-18q-3.93-9-8-18a.52.52,0,0,0-.17-.35.51.51,0,0,0,.17-.35l24.53-54h68.68Z"/><path class="cls-5" d="M955.07,136.66a137,137,0,0,1-21-1.58,97.35,97.35,0,0,1-18.92-4.82,72.94,72.94,0,0,1-16-8.14,53.54,53.54,0,0,1-12.26-11.48A50.4,50.4,0,0,1,879,95.75a57.92,57.92,0,0,1-2.8-18.49,55.75,55.75,0,0,1,3.94-21.46,50.27,50.27,0,0,1,11.22-16.73,64.39,64.39,0,0,1,17.08-12,87.76,87.76,0,0,1,21.64-7.18,126.78,126.78,0,0,1,25-2.37,120.28,120.28,0,0,1,30.75,3.77,79.17,79.17,0,0,1,25,11.21,53.91,53.91,0,0,1,16.91,18.66q6.13,11.21,6.13,26.1t-6.13,26a54,54,0,0,1-16.91,18.57,77.53,77.53,0,0,1-25,11.13A123.07,123.07,0,0,1,955.07,136.66Zm.18-46.43q10.86,0,15.42-4.21t4.55-9.11a10.81,10.81,0,0,0-1.05-4.55,12.34,12.34,0,0,0-3.33-4.21,16.83,16.83,0,0,0-6.13-3.06A33.81,33.81,0,0,0,955.25,64a34.74,34.74,0,0,0-9.55,1.14,17.77,17.77,0,0,0-6.31,3.06A11.93,11.93,0,0,0,936,72.36a11.06,11.06,0,0,0-1.06,4.73A11.62,11.62,0,0,0,936,81.91a10.69,10.69,0,0,0,3.5,4.2,19.7,19.7,0,0,0,6.31,3A33.71,33.71,0,0,0,955.25,90.23Z"/><path class="cls-6" d="M275.58,202.3c.14-.82.27-1.64.41-2.46,4.78-16.14,9.63-32.26,14.31-48.43,5.66-19.54,11.13-39.13,16.76-58.67,2.44-8.48,8.62-13,17.55-13,7.59,0,15.19,0,22.79.09-6.16,21.65-12.26,43.32-18.46,65Q300.2,245,271.39,345.23,244.66,438.44,218,531.67,205.06,576.85,192.13,622c-8.07,0-16.14-.07-24.21,0a52.19,52.19,0,0,0-6.65.87c-3.15-5-3.17-10.3-1.71-15.75,2.1-7.89,4.29-15.75,6.45-23.63l10.88-37.49c.37-1.16.78-2.31,1.11-3.48q18.23-63.39,36.41-126.78c2.38-8.32,4.43-16.73,6.64-25.1l5.28-16.33c1.23-4.21,2.48-8.42,3.67-12.64q7.77-27.48,15.52-55,2-7.46,3.92-14.89c3.55-11.69,7.15-23.36,10.63-35.06,1.67-5.64,3.1-11.35,4.64-17Q270.15,221,275.58,202.3Z"/><path class="cls-7" d="M161.27,622.94a52.19,52.19,0,0,1,6.65-.87c8.07-.1,16.14,0,24.21,0,1.24.89,2.42,1.84,3.7,2.65Q273.4,673.46,351,722.2c17.39,10.94,34.71,22,52.06,33l-1.12.38-30,.1c-3.23-1-6.71-1.66-9.64-3.25-5.33-2.89-10.32-6.39-15.48-9.6q-22.62-14.05-45.26-28.08L276.71,699,263,690.5q-32.75-20.71-65.51-41.43c-9.39-5.92-18.92-11.62-28.11-17.83C166.24,629.11,164,625.74,161.27,622.94Z"/><path class="cls-7" d="M221.05,390.71c-4,0-8,.43-11.81-.12a16.47,16.47,0,0,1-7.34-3.34c-4.35-3.37-4.8-7.7-3-12.95,2.29-6.54,3.76-13.38,5.58-20.09,5.15-17.62,10.34-35.22,15.45-52.84,2.25-7.79,4.38-9.5,12.6-9.53,5.62,0,11.25,0,16.87,0q-2,7.44-3.92,14.89c-7.53-.21-9.26,1-11.36,8.31-3.25,11.25-6.43,22.53-9.66,33.79-2.41,8.43-4.85,16.85-7.35,25.53h9.18Z"/><path class="cls-8" d="M235.38,1079.91l-148.77,0L94,1068.34c7.32-10.45,14.7-20.86,22-31.35q28.38-41.09,56.66-82.24a10.21,10.21,0,0,0,.76-1.64c2-2.68,4.33-5.16,5.79-8.09,5.3-10.63,14.8-11.36,24.8-10.85,5.29.27,10.55,1,15.82,1.49l50.32,14,38.55,15.37c-9.52,14.82-19.08,29.62-28.55,44.48Q257.7,1044.69,235.38,1079.91Z"/><path class="cls-9" d="M692.76,170l33-.06c25.43,0,50.86-.12,76.29-.08a85.93,85.93,0,0,1,14.54.88c8.05,1.42,13.9,6.5,18.72,12.87l2.93,4.48,1,1.45v-.18c.51,4.34,2,8.83,1.32,13-1.2,7.42-3.69,14.63-5.64,21.93a14.78,14.78,0,0,0-2.29,2.09c-12.42,17.46-24.76,35-37.22,52.41-2.16,3-4.81,5.68-7.22,8.51q3.79-13.67,7.6-27.31c4.55-15.68,9.1-31.35,13.88-47.79h-6.9q-84,.12-168,.26c-25,.05-49.91.21-74.86.32L536,197.24c12-15.47,27.68-24.36,47-26.9Zm1.76,20.24c-1.76-1.38-3.43-3.77-5.29-3.92-3.32-.26-5.55,2-5.62,5.67-.05,2.85,1.16,4.67,4.18,4.8C691,196.91,693.68,194.36,694.52,190.22Z"/><path class="cls-10" d="M536,197.24l23.86,15.5a.68.68,0,0,0,.15.76c0,.51,0,1,0,1.52a10.15,10.15,0,0,0-1.65,2.47c-3.4,11.49-7.06,22.92-10,34.54C542,277.17,531.9,301.36,529,327.4c-.41,3.72-1.94,7.33-3.1,10.94-.93,2.9.16,3.93,3,3.87,3.34-.08,6.69,0,10,0q-.29,4.14-.59,8.27l-17.27.12c-.39,1.76-.79,3.53-1.18,5.29-.79,1-2,1.9-2.29,3-8.43,29.19-16.95,58.37-25,87.65-2.27,8.2-3.1,16.78-4.84,25.13-.81,3.91-2.19,7.69-3.51,12.2h40.14l4.61-.22q40.89,0,81.78,0c.22,0,.44-.33.83-.64a8.17,8.17,0,0,0-.92-1.39q-21.4-21.26-42.81-42.49c-1.46-1.45-2.72-3.11-4.07-4.67l18.26,11.05,17.14,16.66c5.68,5.71,11.67,11.15,16.95,17.2,4.88,5.6,10.46,4.94,16.5,3.38l14.86.63,26.38-.19,14.24.08,26.6-.28,16.66,0-2.22,9q-122.24.22-244.46.49c-1.6,0-3.19.83-4.79,1.28-.13.65-.26,1.3-.38,2a18.26,18.26,0,0,0-2.1,3.7Q462.59,550.69,447.84,602c-2.17,7.55-4.27,15.13-6.64,23.51h33.23l28.24-.1,37.33-.09.41-.06-.35-.57c-9.35-6-18.68-11.95-28.08-17.84a6.09,6.09,0,0,0-3.1-.49c-9.29,0-18.59-.07-27.89.1-1.39,0-2.75,1.16-4.13,1.78l-3.69-3,.51-1.55H508c2.53,1,5.25,1.56,7.53,2.91,6.53,3.87,12.82,8.11,19.3,12.06,3.73,2.27,7.62,4.25,11.44,6.36l14.24.17,28.53-.18,77.12-.29h12l12.76.52.12,0q-1.47,4.77-3,9.53l-117,0-1.82,0-8.22.08-121.57,0a23.57,23.57,0,0,0-2.09,3.76c-6.15,18-9.82,36.65-13.58,55.27-1.89,9.34-4.85,18.47-7.32,27.69-2.1,6.61-4.11,13.24-6.35,19.8-.51,1.51-1.82,2.75-2.77,4.12l-52.95-33.26q-73.8-46.41-147.58-92.84c.29-.35.74-.65.85-1.05q9.38-32.89,18.68-65.81l7.18,3.64,8.12,5.15c5.44,3.49,10.82,7.06,16.33,10.44,3.67,2.26,7.51,4.23,11.28,6.33l5.34,3.72L293.16,594c.73-2.27,1.28-3.81,1.73-5.37,3.91-13.57,7.87-27.13,11.68-40.72,2.13-7.59,4-15.25,6-22.87l17.11-8.25c.89.93,2.21,1.71,2.59,2.81,2.25,6.63,4.4,13.3,6.31,20a10.34,10.34,0,0,1-.22,5.37c-5.94,20.91-12,41.78-17.93,62.7-.29,1,.71,2.45,1.11,3.69,1-.86,2.52-1.55,2.85-2.61,1.67-5.35,3-10.81,4.5-16.23.3-.27.6-.54.91-.8l-.09.11c12.69-5.06,24.26-1.24,36,4.06-1.91,6.63-3.75,12.73-5.4,18.88-1.44,5.39-2.66,10.85-4,16.28-.08.65-.42,1.74-.18,1.89,5.94,3.71,11.94,7.32,17.93,10.95L385,651.48c2.85-9.75,5.51-18.82,8.4-28.71,6.23,1.74,12,2.93,17.49,5,6.12,2.31,11.91,5.46,14.86,11.91-.24,1.34-.36,2.71-.73,4q-3.4,11.83-6.91,23.64c-.86,2.87-1,5.25,2.62,6.2a8.26,8.26,0,0,0,1-1.51q8.86-30.68,17.68-61.35,13.44-46.92,26.75-93.86c2.31-8.16,4.21-16.44,6.29-24.66.1-.79.21-1.57.31-2.35l9-.86c-2-1.36-3.23-2.24-4.5-3q-58.82-37-117.63-73.94-39.25-24.69-78.45-49.49,4.17-14.7,8.33-29.41l8.22,4.58,9.14,5.61L330.7,358c2.33,1.44,4.65,2.9,7,4.35l9.37,6.29,14.38,9.49,8-27.35,7.84,8.05-6.36,24.6,5.33,3.56c7.8,5,15.59,10,23.43,15,.54.34,1.42.15,2.14.21l1.76,1.3,26.22,17.92c2.93-10.21,5.92-19.29,8.07-28.56,1.95-8.35,3-16.91,4.41-25.38l.61-.17c1.4,4.07,3.53,8.06,4,12.23.51,4.5-.53,9.17-.89,13.77a28.53,28.53,0,0,0-1.85,4c-2.19,7.5-4.24,15.05-6.43,22.56-1.58,5.41-1.28,6.09,4.28,8.27l2.84,1.95,23.52,15.2c3.28-11.78,6.32-22.68,9.36-33.58l3.9-22.81.74.06c4.44,8.89,4.67,18,1.72,27.4-2.91,9.26-5.29,18.69-8.22,27.95-1.07,3.4-.44,5.5,2.66,7.12,1.68.88,3.21,2.05,5.18,3.33.88-2.63,1.62-4.61,2.2-6.64q8.43-29.29,16.81-58.63c3.68-13,7.24-26,10.85-39a4.81,4.81,0,0,0,.12-.76l8.16-1.29c-1.61-1.09-2.45-1.71-3.33-2.26q-36.33-22.83-72.65-45.64-62.19-39.1-124.36-78.25,4.1-14.56,8.18-29.15l2.84.89,8.08,4.9,24.63,15.35L377.13,222,423,250.87l9.12,5.51c3,1.93,5.55,6.17,9.8,3.56,11.52-7.1,22.83-14.54,34.21-21.84L489,247l-36.64,22.75L474.69,283l17.87,11.56,5.27,3.49,11.95,6.36,13.84,10.17a39.4,39.4,0,0,0,1.67-3.69c6.94-24.07,13.91-48.13,20.74-72.22,2.14-7.57,3.87-15.24,5.79-22.87a4.29,4.29,0,0,1-.14-.62l-.67-.92c-.88-.59-1.75-1.21-2.65-1.78L362.61,95.74,351,88.48l-5.43,20.46-14,48.52q-5.06,17.4-10.09,34.8l-8.34,29.94-6.06,21.15c-3.18,10.71-6.45,21.39-9.51,32.14-2,6.95-3.63,14-5.43,21q-5.48,18.27-10.93,36.54-4.11,14.66-8.2,29.32l-5.94,20c-3.85,13.26-7.79,26.5-11.53,39.79-2,7.13-3.66,14.36-5.47,21.54a24,24,0,0,0-1.74,3.62q-11.19,38.7-22.27,77.42c-2.52,8.89-4.72,17.87-7.07,26.8a39.64,39.64,0,0,0-2.41,5.33c-2.41,8.15-4.72,16.34-7,24.53-3.52,12.72-7,25.45-10.45,38.18a43.11,43.11,0,0,0,3.56,2.78q95.18,59.85,190.32,119.72c4.51,2.84,8.94,5.09,14.39,4.5l3.57,8.74-8-.09c-17.35-11-34.67-22.06-52.06-33q-77.57-48.8-155.15-97.51c-1.28-.81-2.46-1.76-3.7-2.65q12.93-45.18,25.87-90.37,26.69-93.22,53.39-186.44Q300.15,245,328.94,144.77c6.2-21.63,12.3-43.3,18.46-65q10.77,6.53,21.56,13c2.45,1.47,4.93,2.88,7.39,4.32l43.73,27.55L521.75,188.6ZM317.4,525.68l17.07,10.62.92-.64c-1.69-5.34-3.38-10.68-5.23-16.51Z"/><path class="cls-11" d="M270.12,949.69l-50.32-14,11.34-18.2q22.83-35.64,45.68-71.27l18-27.33a64.82,64.82,0,0,1,2.44,6.32,148.77,148.77,0,0,0,22.67,48c5.1,7.1,10.77,13.8,16.34,20.89-17.24,1.56-31.11,9.79-41.91,22.54C285.53,927.05,278.14,938.63,270.12,949.69Z"/><path class="cls-12" d="M834.86,224.26c1.95-7.31,4.44-14.52,5.64-21.94.67-4.15-.81-8.64-1.32-13l10.9,13q11.29,15.22,4.71,33a33.28,33.28,0,0,0-1,4.39l-1.17,2.75-9.09-3.39c-4.09,0-6.32,2-7.4,5.95-2.68,9.81-5.65,19.54-8.41,29.32-2.06,7.33,1.87,12.25,9.45,12l2.88.09-3.81,12.74-9.15-3.47c-4.18-.42-6.13,2.1-7.15,5.62-2.91,10.08-5.86,20.16-8.57,30.3-1.85,6.9,2.05,11.48,9.31,11.38l3,.14-.81,3.72Q809.55,393.43,796.19,440q-6.11,21.39-12.2,42.8l-21.74-2.63c1.16-4.55,2.22-9.14,3.51-13.66q27.66-96.75,55.38-193.5C825.78,256.78,830.29,240.51,834.86,224.26Z"/><path class="cls-12" d="M839.17,189.52l-1-1.45Z"/><path class="cls-13" d="M476.09,1063.58q7.46,8.14,14.92,16.3c-1.06,0-2.12.12-3.19.12H237.66c-.76,0-1.52-.06-2.28-.09q22.37-35.19,44.74-70.38c9.47-14.86,19-29.66,28.55-44.48,1.84.72,3.72,1.38,5.52,2.18C371.9,993.05,427.47,1022.47,476.09,1063.58Z"/><path class="cls-9" d="M403,755.2l8,.09,44.89.24a18.29,18.29,0,0,1-1.64,4.1c-13.9,19.68-27.92,39.27-41.79,59-5.47,7.78-10.65,15.77-16,23.66-8.73.36-17.38.4-25-4.9-.3-.21-1.05.24-1.59.38-2.07-2.59-4.24-5.1-6.19-7.78-5.53-7.59-7.82-16-5.58-25.28,1.56-6.44,3.68-12.76,5.55-19.13l.77-.92-.35,0a26.75,26.75,0,0,0,4.8-2.36q14.32-10.83,28.47-21.88a44.66,44.66,0,0,0,4.54-4.77Z"/><path class="cls-11" d="M294.41,744.18q3.55-14.71,7.12-29.43,22.64,14,45.26,28.08c5.16,3.21,10.15,6.71,15.48,9.6,2.93,1.59,6.41,2.2,9.64,3.25-.78,2.67-1.55,5.34-2.33,8-17.81-.91-35.38-3.22-52.11-9.78C309.7,750.87,302.09,747.44,294.41,744.18Z"/><path class="cls-12" d="M369.58,763.69c.78-2.67,1.55-5.34,2.33-8l30-.1a44.66,44.66,0,0,1-4.54,4.77q-14.14,11.05-28.47,21.88a27,27,0,0,1-4.79,2.36Z"/><path class="cls-14" d="M369.58,763.69l-5.46,20.9.34,0c-.26.3-.52.61-.77.92-1.87,6.37-4,12.69-5.55,19.13-2.24,9.25.05,17.69,5.58,25.28,1.95,2.68,4.12,5.19,6.19,7.78q8.23,10.1,16.45,20.2l.95.85h0c7.68,14.25,19.49,22.86,35.6,24.53,13.59,1.42,27.27,1.91,40.92,2.72,22.3,1.32,44.6,2.53,66.9,3.86,8.27.5,16.51,1.23,24.77,1.85l.55,1.47L484.4,931.29c5.09-1.19,9.19-2,13.17-3.12,15.63-4.54,31.21-9.2,46.81-13.81-.21.66-.42,1.33-.64,2q-8.29,18.3-16.61,36.61-21.12,46.32-42.24,92.61c-2.78,6.07-5.86,12-8.8,18-48.62-41.11-104.19-70.53-161.9-96.35-1.8-.8-3.68-1.46-5.52-2.18l-38.55-15.37c8-11,15.41-22.63,24.21-33,10.8-12.75,24.67-21,41.91-22.54C330.67,887,325,880.32,319.9,873.22a148.77,148.77,0,0,1-22.67-48,64.82,64.82,0,0,0-2.44-6.32c-1-7.19-2.46-14.35-2.71-21.55-.45-12.66-.36-25.36,0-38,.14-5.06,1.53-10.07,2.35-15.11,7.68,3.26,15.29,6.69,23.06,9.73C334.2,760.47,351.77,762.78,369.58,763.69Z"/><path class="cls-15" d="M560,213.5a.68.68,0,0,1-.15-.76c24.95-.11,49.9-.27,74.86-.32q84-.18,168-.26h6.9c-4.78,16.44-9.33,32.11-13.88,47.79-3,0-6.08-.07-9.12-.07l-152.29-.06c-18-11.4-36-22.84-54-34.17C573.62,221.46,566.76,217.54,560,213.5Z"/><path class="cls-16" d="M834.86,224.26c-4.57,16.25-9.08,32.52-13.72,48.75q-27.66,96.76-55.38,193.5c-1.29,4.52-2.35,9.11-3.51,13.66-.74.14-1.49.27-2.23.43-16.67,3.53-27.79,13.4-32.5,29.71s-.1,30.53,11.86,42.45a30.76,30.76,0,0,1,2,2.44,3,3,0,0,0-.16.78c-1.09.41-2.2,1.23-3.26,1.17-10.45-.54-20,2.26-29,7.26.2-1.49.39-3,.59-4.49l6-20.18L729.17,492l2.22-9,12.39-42.21L756,398c1.26-4,2.61-8.08,3.75-12.16,3.32-11.85,6.56-23.72,9.82-35.58q1.34-4.12,2.65-8.26,5.63-19.95,11.26-39.91,2.34-7.4,4.69-14.79c2.41-2.83,5.06-5.5,7.22-8.51,12.46-17.43,24.8-34.95,37.22-52.41A14.24,14.24,0,0,1,834.86,224.26Z"/><path class="cls-17" d="M788.13,287.26q-2.36,7.39-4.69,14.79c.5-8.35-.33-16.42-4.78-23.77,2.79-6,2.24-8.06-3.48-10.66a31,31,0,0,0-8.19-2.36c-7-1-8.57.35-9.25,7.37-8.87,4.26-14.09,11.74-18,20.38q-2.91-7.54-5.83-15.09c3-6.08,2.44-8.19-3.61-11a28.53,28.53,0,0,0-7.75-2.33c-6.84-1-8.42.35-9.53,7.31-10.63,5.43-16.18,14.59-19.13,25.74-1.12,4.23-2.53,8.39-3.81,12.57a103.7,103.7,0,0,0-10.36-3c-8-1.5-10.06-.15-12.56,7.43q-2.52-1.75-5-3.53a63.1,63.1,0,0,1,1.8-6.11c1.58-4,.24-6.79-3.12-8.93a30.75,30.75,0,0,0-18.16-5c-3.38.15-5.67,1.63-6.46,5.22-.88,4-2.06,7.92-3.11,11.88l-6.06,0c1.67-4.22,2.48-8.28-2-11.38l4.23-16.76q2.55-10.12,5.12-20.26l152.29.06c3,0,6.08,0,9.12.07Q791.92,273.6,788.13,287.26Z"/><path class="cls-12" d="M694.52,190.22c-.84,4.14-3.52,6.69-6.73,6.55-3-.13-4.23-2-4.18-4.8.07-3.69,2.3-5.93,5.62-5.67C691.09,186.45,692.76,188.84,694.52,190.22Z"/><path class="cls-18" d="M328.88,592.54c-1.47,5.42-2.83,10.88-4.5,16.23-.33,1.06-1.87,1.75-2.85,2.61-.4-1.24-1.4-2.65-1.11-3.69,5.91-20.92,12-41.79,17.93-62.7a10.34,10.34,0,0,0,.22-5.37c-1.91-6.73-4.06-13.4-6.31-20-.38-1.1-1.7-1.88-2.59-2.81-6.89-.17-14-1.51-20.58-.13-5.37,1.13-10,5.5-15,8.43-3.36-.21-3.76,2.36-4.44,4.7q-7.46,26-14.94,52l-5.34-3.72c2.62-9.31,5.4-18.58,7.77-27.95a34.1,34.1,0,0,0,.83-10.23c-.54-9.21-1.45-18.39-2.21-27.58.78-3,2.44-6,2.12-8.86-.37-3.14-9.24-6.6-13-5.59-4.85,1.3-4.62,5.29-4.48,9.15l.07-.18-1.17,1.61a60.77,60.77,0,0,1-3.66,5.16c-10.57,12.17-19.22,25.33-21.82,41.66-.05.3-.13.6-.2.89l-7.18-3.64-7.4-1c2.35-8.93,4.55-17.91,7.07-26.8q11-38.75,22.27-77.42a24,24,0,0,1,1.74-3.62,18.22,18.22,0,0,1,2.47,1.07Q314,483.3,375.33,521.91c13.64,8.58,27.24,17.21,40.94,25.7,1.36.84,3.11,3.26,4.9.29,9.47-10.39,18.91-20.8,28.42-31.16,7.56-8.24,15.19-16.41,22.79-24.61-2.08,8.22-4,16.5-6.29,24.66q-13.26,47-26.75,93.86-8.77,30.69-17.68,61.35a8.26,8.26,0,0,1-1,1.51c-3.59-1-3.48-3.33-2.62-6.2q3.51-11.79,6.91-23.64c.37-1.3.49-2.67.73-4,1.45-4.6,2.7-9.27,4.41-13.77,3.55-9.36,2.59-17.75-4.51-25.18-3-3.13-3.56-6.83-2-11a42.16,42.16,0,0,0,2.15-7.86c.25-1.47-.34-3.08-.55-4.62a56.82,56.82,0,0,0,2.05-7.42A5.05,5.05,0,0,0,426,566c-4.89-4.4-10-2.92-11.77,3.23-.42,1.45-.77,2.92-1.16,4.38-1.41,2.52-3.57,4.89-4.08,7.58-1.39,7.35-5.07,11.81-12.54,13.78-6.45,1.7-10.31,6.51-12.12,13.07-3.31,12-6.87,23.94-10.33,35.9-6-3.63-12-7.24-17.93-10.95-.24-.15.1-1.24.18-1.89l10.71,6.1c4.45-15.47,8.38-30.49,13.13-45.24,3.09-9.58,2.4-17.75-4.55-25.41a11.32,11.32,0,0,1-2.6-7.82c.37-3.82,2.19-7.51,3.39-11.26,6.43-5.9,5.4-12.69-2.43-15.62a22.25,22.25,0,0,0-5.26-1.3c-7.18-.79-11.23,4.79-8.88,12.11-1.18,9.07-4.09,16.37-14.44,19-3.57.9-7.59,4.66-9.09,8.12-3,7-4.48,14.69-6.57,22.1l.09-.11C329.48,592,329.18,592.27,328.88,592.54Z"/><path class="cls-17" d="M421.17,547.9c-1.79,3-3.54.55-4.9-.29-13.7-8.49-27.3-17.12-40.94-25.7Q314,483.32,252.57,444.74a18.22,18.22,0,0,0-2.47-1.07c1.81-7.18,3.47-14.41,5.47-21.54,3.74-13.29,7.68-26.53,11.53-39.79l75.72,47.5q34.95,21.95,69.89,43.92c8.07,5.1,16,10.4,24,15.6-2.76,10.27-5.54,20.52-8.27,30.8Q424.78,534,421.17,547.9Z"/><path class="cls-15" d="M729.17,492l-13.74,47.74c-16.45,0-32.9-.08-49.34-.06q-55.76,0-111.49.14c-18.77-11.75-37.52-23.55-56.33-35.24-6-3.75-12.23-7.22-18.35-10.81,1.6-.45,3.19-1.27,4.79-1.28Q606.95,492.17,729.17,492Z"/><path class="cls-17" d="M292.17,296.49c1.8-7,3.46-14.05,5.43-21,3.06-10.75,6.33-21.43,9.51-32.14a19,19,0,0,1,3.32,1.31q29.35,18.39,58.66,36.86,33.77,21.21,67.55,42.39C450.12,332.4,463.52,341,477,349.6l-8.22,30.18-4.29,4.36-12.6,12.05L446,393.31c.36-4.6,1.4-9.27.89-13.77-.48-4.17-2.61-8.16-4-12.23,1.5-3.92-.09-6-6.12-8-6.81-2.26-10.1-1.42-11.36,2.93L413.81,372.4c-2.2-1.37-4.38-2.77-6.59-4.11l-27.33-16.51c-1.2-2.59-1.75-5.95-3.73-7.64-5.66-4.83-12.59-7.06-20.08-7.33l.18-.33-16.33-10c0-.65,0-1.31,0-2,2.22-4.1-.19-6.7-3.14-8.79a38.75,38.75,0,0,0-25.8-7.09Z"/><path class="cls-15" d="M769.53,350.22c-3.26,11.86-6.5,23.73-9.82,35.58-1.14,4.08-2.49,8.11-3.75,12.16l-161,0c-17-10.8-34.11-21.55-51.11-32.4-7.64-4.88-15.16-10-22.74-14.94l17.27-.12c1.72,2.78,3,6,5.26,8.22,3,3,8.88,2.72,10.62-.28,1.15-2,.94-4.74,1.42-7.63,2.31-1.08,3.71-.35,4.67,2.83,2.45,8.09,8,12.55,14.31,11.21a9.78,9.78,0,0,0,6.1-4.58c.71-1.43-1-4.26-2-6.28-.65-1.31-1.94-2.31-2.94-3.45q62.38-.12,124.78-.25Q735,350.21,769.53,350.22Z"/><path class="cls-17" d="M331.6,157.46q7-24.27,14-48.52a25.81,25.81,0,0,1,3.69,1.59q32.64,20.43,65.23,40.93,37.63,23.61,75.27,47.23c8.6,5.41,17.08,11,25.61,16.53q-2.77,10.77-5.54,21.54-3.19,12.53-6.38,25.05l-2.47,1.8-13.42-8.33L489,247l-12.86-8.9-33-20.31-9.72-.61c1.1-4,2-8,3.36-11.83,1-2.78.47-4.36-2.17-5.86-5.54-3.16-10.85-6.71-16.31-10Q404.7,181.18,391.05,173c-4.9,0-9.8,0-14.69-.2-2.71-.14-4.22.85-4.83,3.41-7.26-5.39-16-6.65-24.42-8.63Z"/><path class="cls-14" d="M741.34,555.2a30.76,30.76,0,0,0-2-2.44c-12-11.92-16.58-26.08-11.86-42.45s15.83-26.18,32.5-29.71c.74-.16,1.49-.29,2.23-.43L784,482.8c13.69,8.46,28.2,15.76,39.48,27.66l3.74,6.22c-1.72,15.28-7.92,28.56-17.74,40.33-7.44,8.91-16.92,11.21-27.9,9.45-3-.48-6-.75-9-1.12,8.75,3.81,16.55,8.61,23.07,15.48,3.32,3.5,5.19,7.32,5,12.25-.53,14-2.9,27.72-9.47,40.1-9.58,18.07-17.86,23.35-37.63,18.66-13.2-3.14-25.88-8.73-38.51-13.91-7.7-3.16-14.87-7.63-22.28-11.51l-1.71-1.23-.12,0c-.47-1.75-.86-3.52-1.43-5.23a48.19,48.19,0,0,1-1.71-23.82c2.33-13.66,10-23.84,21.08-31.76,9-5,18.6-7.8,29-7.26,1.06.06,2.17-.76,3.26-1.17l19.92,7.77.66-1.86Zm20.84-69.28c-4.16-1-6.15.94-7.18,4.83A176.24,176.24,0,0,1,738.21,532c-2.54,4.51-1.89,6.32,3,9,11.12,8.94,23.49,15.24,37.8,16.78,6.58.71,13-1.1,17.39-6.33,8.34-9.92,10.72-21.34,4.92-33.17C793.2,501.73,778.64,492.55,762.18,485.92Zm-38.35,78.51c-5.27-.1-6.75,1-7.43,6.29-2.22,17.12-6.25,33.69-14,49.25-1.81,3.62-1.08,6.81,3,8.6,11.91,7.64,24.69,13.26,38.78,15,10.84,1.35,20.94-.81,26.91-11.17,6.93-12,7.37-24.51-.25-36.3C759.79,579,742.43,570.66,723.83,564.43Zm45.92.42a4,4,0,0,0-.67-.36c-.1,0-.25.07-.38.12.1.17.21.49.3.49A2.55,2.55,0,0,0,769.75,564.85Z"/><path class="cls-13" d="M569.32,634.71l1.82,0c1.8,1.35,3.51,2.83,5.39,4q16,10.38,32.14,20.67c-.46,2.37-2,5.29-1.09,7s4.06,2.59,6.37,2.92c4.58.67,9.26.72,13.91,1,4.61,3.1,9,6.5,13.89,9.18a22.25,22.25,0,0,0,9.27,2.63c7.4.4,14.83.19,22.24.22q-.81,5.88-1.61,11.76-4.15,13.74-8.29,27.47c-3-2.58-5.68-6.35-9.16-7.42-3.86-1.18-5.38-3.05-6.31-6.42a17.32,17.32,0,0,0-1.88-4.11c-5.86-9.77-16-10-22.29-.55-3.44,5.14-4.36,10.84-4.25,16.9,0,1.44-.92,3.77-2,4.21-6.94,2.76-9.58,8.3-9.63,15,0,5.08,1.11,10.17,1.73,15.25l-3.63-.06c-5.2-7.28-11.2-14.13-15.35-22-3.72-7-5.33-15.1-8.06-22.66-.48-1.35-1.85-2.39-2.8-3.58-.72,1.39-2,2.77-2,4.17,0,4.38-.28,8.95.8,13.12,1.88,7.23,4.7,14.22,7.23,21.63a33,33,0,0,1-2.87-2.36c-7.14-7.39-13.16-15.52-17-25.16a72.52,72.52,0,0,0-4.3-7.93l-1.83.51c0,2.86-.51,5.84.08,8.58,3.22,14.85,10.87,26.92,23.32,35.8l-6.47,0-26.23-19-1.39.91c1.33,2.84,2.33,5.9,4.08,8.45,2.37,3.46,5.31,6.52,8,9.76l-25.6.22q11.18-39.5,22.33-79C561.71,662.24,565.5,648.47,569.32,634.71Z"/><path class="cls-19" d="M569.32,634.71c-3.82,13.76-7.61,27.53-11.48,41.28q-11.13,39.5-22.33,79c-2.73.06-5.45.17-8.18.19l-71.43.37L411,755.29l-3.57-8.74c0-.37,0-.73,0-1.1.95-1.37,2.26-2.61,2.77-4.12,2.24-6.56,4.25-13.19,6.35-19.8A23.6,23.6,0,0,1,433.32,717c2.66.3,4.05-.64,5-3.27,5.21-13.85,19.76-19.8,33.16-13.54,2.77,1.29,4,1,5.73-1.68,5.7-8.82,17.05-10.47,24.8-3.37,3.18,2.9,4.39,8.32,7.82,10.47,3.69,2.31,9.08,1.68,13.46,3.14,6.2,2.08,9.74,7.29,12.94,14.39,4-14.61,7.55-27.75,11.13-40.89.89-2.55,1.93-5.06,2.66-7.66,3.72-13.27,7.37-26.56,11-39.84Z"/><path class="cls-17" d="M594.94,397.94l161,0-12.18,42.87-15,.06c-9.61,0-9.61,0-12.28,9.19l-4.77.22-20.79.45c1.67-6,3.28-12,5-18a6.89,6.89,0,0,0-2.17-7.77c-6.83-6.23-15.26-8.12-24-8.45-3.36-.13-7.74.37-9,4.78-2.93,10.07-5.6,20.21-8.37,30.32l-11,.15c1.62-6.15,3.18-12.31,4.87-18.44,1.35-4.87.39-7.94-3.74-10.54a39.63,39.63,0,0,0-23.26-6.56c-5.8.26-7.29,1.54-8.89,7.14-3.7,13-7.51,25.91-11.28,38.87l-17.14-16.66c2-7.43,4.08-14.86,6.09-22.29Q591.57,410.61,594.94,397.94Z"/><path class="cls-20" d="M477,349.6c-13.43-8.57-26.83-17.2-40.31-25.69q-33.74-21.27-67.55-42.39-29.34-18.42-58.66-36.86a19,19,0,0,0-3.32-1.31l6.06-21.15,8.36.1q62.19,39.13,124.36,78.25,36.32,22.84,72.65,45.64c.88.55,1.72,1.17,3.33,2.26l-8.16,1.29Z"/><path class="cls-20" d="M436.72,489.36c-8-5.2-15.94-10.5-24-15.6q-34.9-22-69.89-43.92l-75.72-47.5,5.94-20,8.11.1q39.23,24.75,78.45,49.49,58.8,37,117.63,73.94c1.27.8,2.49,1.68,4.5,3l-9,.86Z"/><path class="cls-13" d="M547.4,682.29c-3.58,13.14-7.16,26.28-11.13,40.89-3.2-7.1-6.74-12.31-12.94-14.39-4.38-1.46-9.77-.83-13.46-3.14-3.43-2.15-4.64-7.57-7.82-10.47-7.75-7.1-19.1-5.45-24.8,3.37-1.74,2.68-3,3-5.73,1.68-13.4-6.26-27.95-.31-33.16,13.54-1,2.63-2.38,3.57-5,3.27a23.6,23.6,0,0,0-16.78,4.49c2.47-9.22,5.43-18.35,7.32-27.69,3.76-18.62,7.43-37.25,13.58-55.27a23.57,23.57,0,0,1,2.09-3.76c1.79,1.35,3.5,2.8,5.38,4q14.63,9.45,29.32,18.81c-.45,0-.91,0-1.36,0-4.76.34-8,2.74-7.72,6,.47,4.7,4,5,7.72,5,7.13-.06,14.26,0,21.39.07a63,63,0,0,0,5,4.37c8.39,5.88,16.9,10.94,28,9.41C533.9,681.56,540.7,682.29,547.4,682.29Z"/><path class="cls-20" d="M515.36,215.22c-8.53-5.52-17-11.12-25.61-16.53Q452.16,175,414.48,151.46,381.87,131,349.25,110.53a25.81,25.81,0,0,0-3.69-1.59L351,88.48l11.62,7.26L548.36,212.45c.9.57,1.77,1.19,2.65,1.78l.67.92a4.29,4.29,0,0,0,.14.62,6,6,0,0,0-.83.14,26.73,26.73,0,0,0-4.4-.72C536.18,215.15,525.77,215.2,515.36,215.22Z"/><path class="cls-13" d="M524.38,483.91H484.24c1.32-4.51,2.7-8.29,3.51-12.2,1.74-8.35,2.57-16.93,4.84-25.13,8.08-29.28,16.6-58.46,25-87.65.33-1.14,1.5-2,2.29-3a26,26,0,0,1,1.26,3.34c3.28,14.67,6.48,29.35,9.78,44s6.74,29.59,10.12,44.38c-.52.9-1,1.83-1.57,2.71C532.91,460.83,527,471.64,524.38,483.91Z"/><path class="cls-19" d="M541.07,447.63c-3.38-14.79-6.79-29.58-10.12-44.38s-6.5-29.35-9.78-44a26,26,0,0,0-1.26-3.34c.39-1.76.79-3.53,1.18-5.29,7.58,5,15.1,10.06,22.74,14.94,17,10.85,34.07,21.6,51.11,32.4q-3.39,12.68-6.79,25.35c-2,7.43-4.06,14.86-6.09,22.29L563.8,434.53l.05,0L562,433.45c-2.77-2.93-5.49-2.73-8.13.15C549.61,438.27,545.35,443,541.07,447.63Z"/><path class="cls-19" d="M634.32,259.82q-2.57,10.13-5.12,20.26L625,296.84c-5.8-3.08-11.8-5.36-18.55-4.92-3.38.23-5.61,1.55-6.41,5.15-.84,3.82-2.1,7.55-3.18,11.31-5.21.18-10.11.81-10.9,7.45-2.79-10.37-5.67-20.71-8.34-31.11-5.94-23.22-11.77-46.47-17.65-69.7,0-.51,0-1,0-1.52,6.77,4,13.63,8,20.31,12.15C598.35,237,616.32,248.42,634.32,259.82Z"/><path class="cls-21" d="M474.23,657.63q-14.67-9.39-29.32-18.81c-1.88-1.21-3.59-2.66-5.38-4l121.57,0c-3.67,13.28-7.32,26.57-11,39.84-.73,2.6-1.77,5.11-2.66,7.66-6.7,0-13.5-.73-20.07.17-11.14,1.53-19.65-3.53-28-9.41a63,63,0,0,1-5-4.37l1.82-.09c4.85-.23,8.58-2.92,8.05-6.17-.75-4.51-4.32-4.85-8-4.82C488.81,657.66,481.52,657.63,474.23,657.63Z"/><path class="cls-13" d="M559.94,215c5.88,23.23,11.71,46.48,17.65,69.7,2.67,10.4,5.55,20.74,8.34,31.11q-1.87,5.48-3.74,11c-3.36-2.86-6.53-6-10.18-8.43-1.61-1.07-4.21-.65-6.36-.9-4.53,2-10.14,2.88-13.33,6.15-5.28,5.4-9,12.32-13.37,18.6-3.34,0-6.69-.08-10,0-2.85.06-3.94-1-3-3.87,1.16-3.61,2.69-7.22,3.1-10.94,2.89-26,13-50.23,19.29-75.37,2.93-11.62,6.59-23.05,10-34.54A10.15,10.15,0,0,1,559.94,215Z"/><path class="cls-13" d="M481.5,603.68h-7.82l-.51,1.55,3.69,3c.07.59.15,1.18.22,1.78q-1.32,7.74-2.65,15.48H441.2c2.37-8.38,4.47-16,6.64-23.51q14.78-51.29,29.6-102.55a18.26,18.26,0,0,1,2.1-3.7c1.74,7,3.59,14.06,5.21,21.13,2.7,11.81,5.27,23.65,7.89,35.48l-4.53.65c-.07.42-.14.84-.22,1.26l3.58,1.9.3,1.72Q490.39,567.45,489,577l-7.74.35c-.1.35-.19.69-.28,1l3.84,2.39c-.08.41-.16.81-.23,1.21-.09.16-.17.33-.24.49Q482.92,593.1,481.5,603.68Z"/><path class="cls-21" d="M673.27,682.39c-7.42,0-14.85.18-22.25-.22a22.25,22.25,0,0,1-9.27-2.63c-4.84-2.68-9.28-6.08-13.89-9.18,1.9-.29,3.8-.66,5.72-.86,2.41-.25,4.86-.19,7.23-.59,3.55-.61,4.59-3.22,4.35-6.44-.26-3.43-2.68-4-5.54-4-4.11.06-8.23-.1-12.33,0-6.21.21-12.41.6-18.62.91q-16.08-10.32-32.14-20.67c-1.88-1.22-3.59-2.7-5.39-4l117,0c-.17.88-.29,1.77-.53,2.64q-4.69,17.05-9.44,34.1Q675.69,676.93,673.27,682.39Z"/><path class="cls-22" d="M666.2,624.7l-77.12.29c-.31-3.86-1.22-7.79-.82-11.58,1.07-10.33,7.92-16.86,15.88-22.48,1.52-.68,3-1.38,4.55-2,11.47-5,23.29-6.53,35.56-3.51,1.41.85,2.81,1.73,4.25,2.53C660.47,594.6,671,606.23,666.2,624.7Z"/><path class="cls-19" d="M492.64,552.33c-2.62-11.82-5.19-23.66-7.89-35.47-1.62-7.07-3.47-14.09-5.21-21.13.12-.66.25-1.31.38-2,6.12,3.59,12.32,7.06,18.35,10.81,18.81,11.69,37.56,23.49,56.33,35.24q-3.66,12.79-7.33,25.6c-4.89-3-9.88-5.86-14.66-9a21.68,21.68,0,0,0-13.16-4C510.52,552.69,501.58,552.39,492.64,552.33Z"/><path class="cls-23" d="M329.7,591.85c2.09-7.41,3.54-15.1,6.57-22.1,1.5-3.46,5.52-7.22,9.09-8.12,10.35-2.63,13.26-9.93,14.44-19,2.66-4.2,6.46-3,10-1.85,3.22,1,6.8,2.08,6.57,6.67-1.2,3.75-3,7.44-3.39,11.26a11.32,11.32,0,0,0,2.6,7.82c6.95,7.66,7.64,15.83,4.55,25.41-4.75,14.75-8.68,29.77-13.13,45.24l-10.71-6.1c1.32-5.43,2.54-10.89,4-16.28,1.65-6.15,3.49-12.25,5.4-18.88C354,590.61,342.39,586.79,329.7,591.85Z"/><path class="cls-24" d="M563.8,434.53c1.35,1.56,2.61,3.22,4.07,4.67q21.38,21.27,42.81,42.49a8.17,8.17,0,0,1,.92,1.39c-.39.31-.61.64-.83.64q-40.89,0-81.78,0A102.43,102.43,0,0,1,549.31,446c3.76-4.34,8.64-7.71,13-11.52l1.54.08Z"/><path class="cls-25" d="M604.14,590.93c-8,5.62-14.81,12.15-15.88,22.48-.4,3.79.51,7.72.82,11.58l-28.52.18q5.38-19.44,10.78-38.89c1.39-4.47,2.64-9,4.25-13.38.48-1.29,2.07-3.26,2.93-3.16,6.65.82,8-3.5,9.05-8.5a32.69,32.69,0,0,1,1.93-6.53c.44-1,1.74-2.33,2.67-2.35,10.44-.15,20.88-.08,31.32-.07-1.88,7-3.77,14-5.75,21.3l-7.66-3.89C608,577.22,606.06,584.07,604.14,590.93Z"/><path class="cls-11" d="M374,643.91c3.46-12,7-23.9,10.33-35.9,1.81-6.56,5.67-11.37,12.12-13.07,7.47-2,11.15-6.43,12.54-13.78.51-2.69,2.67-5.06,4.08-7.58l12.09,3.7c.21,1.54.8,3.15.55,4.62a42.16,42.16,0,0,1-2.15,7.86c-1.53,4.12-1,7.82,2,11,7.1,7.43,8.06,15.82,4.51,25.18-1.71,4.5-3,9.17-4.41,13.77-3-6.45-8.74-9.6-14.86-11.91-5.47-2-11.26-3.24-17.49-5-2.89,9.89-5.55,19-8.4,28.71Z"/><path class="cls-25" d="M691,450.75l20.78-.45c-8.52,15.7-20.72,27.17-37.86,33l-26.38.19c-14.15-5.63-21.54-16.56-21.2-31.33l15.19-.35,11-.15Z"/><path class="cls-20" d="M641.5,451.77l-15.19.35c-3.67,0-3.13,2.79-2.9,4.93.81,7.32,2.76,14.27,7.1,20.43,1.07,1.53,1.44,3.55,2.14,5.34-6,1.56-11.62,2.22-16.5-3.38-5.28-6.05-11.27-11.49-16.95-17.2,3.77-13,7.58-25.9,11.28-38.87,1.6-5.6,3.09-6.88,8.89-7.14a39.63,39.63,0,0,1,23.26,6.56c4.13,2.6,5.09,5.67,3.74,10.54C644.68,439.46,643.12,445.62,641.5,451.77Z"/><path class="cls-25" d="M391.05,173q13.62,8.24,27.24,16.48c5.46,3.32,10.77,6.87,16.31,10,2.64,1.5,3.14,3.08,2.17,5.86-1.35,3.87-2.26,7.88-3.35,11.83-.78,2.61-1.53,5.22-2.33,7.81q-4,12.94-8.08,25.88L377.13,222Zm32.1,40.15c.09-10.17-7.43-18.73-16.53-18.85-8.32-.1-15.22,7.33-15.37,16.56-.16,9.88,7.66,18.7,16.69,18.81C416.44,229.75,423.07,222.55,423.15,213.13Z"/><path class="cls-25" d="M275.72,512.29c.76,9.19,1.67,18.37,2.21,27.58a34.1,34.1,0,0,1-.83,10.23c-2.37,9.37-5.15,18.64-7.77,27.95-3.77-2.1-7.61-4.07-11.28-6.33-5.51-3.38-10.89-7-16.33-10.44,3.67-12.91,6.39-26.11,13.33-37.91,3.29-5.58,5.93-11.54,8.87-17.33C268.9,506.14,273.52,506.93,275.72,512.29Z"/><path class="cls-18" d="M551,215.9a7.94,7.94,0,0,1,.83-.13c-1.92,7.63-3.65,15.3-5.79,22.87-6.83,24.09-13.8,48.15-20.74,72.22a39.4,39.4,0,0,1-1.67,3.69l-13.84-10.17,14.92-14.16c1.14-1.58,2.66-3,3.32-4.78s1-4,.25-5.4c-.54-1-3.41-1.4-4.84-.92a109.54,109.54,0,0,0-12.88,5.46,76.58,76.58,0,0,0-7.41,4.66,14.27,14.27,0,0,1,1.39-5c2-5.38,4.24-10.69,5.69-16.21.54-2.1-.82-4.7-1.32-7.07l-1.67-.74c6.67-6.82,13.32-13.66,20-20.45C535.14,231.82,543.08,223.87,551,215.9Z"/><path class="cls-11" d="M413.81,372.4l11.62-10.15c8.83-2,13.53-.56,16.87,5.23-1.43,8.47-2.46,17-4.41,25.38-2.15,9.27-5.14,18.35-8.07,28.56L403.6,403.5Q408.7,387.95,413.81,372.4Z"/><path class="cls-20" d="M274.67,581.77q7.47-26,14.94-52c.68-2.34,1.08-4.91,4.44-4.7l18.51-.05c-2,7.62-3.86,15.28-6,22.87-3.81,13.59-7.77,27.15-11.68,40.72-.45,1.56-1,3.1-1.73,5.37Z"/><path class="cls-15" d="M708.87,564.41c-11,7.92-18.75,18.1-21.08,31.76A48.19,48.19,0,0,0,689.5,620c.57,1.71,1,3.48,1.43,5.23l-12.76-.52c-.32-5.18.62-10.89-1.28-15.4-2.32-5.48-7-9.94-10.7-14.85q1.72-7.12,3.47-14.26c1.85-5.58,3.92-11.1,5.46-16.76.75-2.75,2-3.72,4.71-3.68,9.88.14,19.76.13,29.63.17C709.26,561.42,709.07,562.92,708.87,564.41Z"/><path class="cls-13" d="M513.59,350.5c-3.61,13-7.17,26-10.85,39q-8.33,29.34-16.81,58.63c-.58,2-1.32,4-2.2,6.64-2-1.28-3.5-2.45-5.18-3.33-3.1-1.62-3.73-3.72-2.66-7.12,2.93-9.26,5.31-18.69,8.22-27.95,2.95-9.42,2.72-18.51-1.72-27.41q-.54-2.67-1.1-5.34c5.37-5.55,10.71-11.12,16.1-16.65S508.19,356,513.59,350.5Z"/><path class="cls-26" d="M484.57,582l.24-1.22c1.25-.58,2.49-1.63,3.75-1.65q13.89-.25,27.78-.08a9.45,9.45,0,0,1,4.67,1.36c10.87,6.65,21.69,13.37,32.43,20.25,1.13.72,1.57,2.52,2.34,3.83L546.31,625c-3.82-2.11-7.71-4.09-11.44-6.36-6.48-3.95-12.77-8.19-19.3-12.06-2.28-1.35-5-2-7.53-2.91,2.88-6.79,5.76-13.58,8.93-21.07H485A1.13,1.13,0,0,0,484.57,582Z"/><path class="cls-7" d="M407.42,745.45c0,.37,0,.73,0,1.1-5.45.59-9.88-1.66-14.39-4.5q-95.1-60-190.32-119.72a41.18,41.18,0,0,1-3.56-2.79l7.72-.19q73.78,46.42,147.58,92.84Z"/><path class="cls-19" d="M436.72,489.36l36,.42c-.1.78-.21,1.56-.31,2.35-7.6,8.2-15.23,16.37-22.79,24.61-9.51,10.36-18.95,20.77-28.42,31.16q3.63-13.87,7.28-27.74C431.18,509.88,434,499.63,436.72,489.36Z"/><path class="cls-22" d="M539,342.21c4.38-6.28,8.09-13.2,13.37-18.6,3.19-3.27,8.8-4.18,13.33-6.15l-1.29,7.62c-3.3,3.11-4.79,8.39-4,14l6.36-8.78,4.25,12.08,4.81,8.17c1,1.14,2.29,2.14,2.94,3.45,1,2,2.76,4.85,2,6.28a9.78,9.78,0,0,1-6.1,4.58c-6.31,1.34-11.86-3.12-14.31-11.21-1-3.18-2.36-3.91-4.67-2.83-.48,2.89-.27,5.65-1.42,7.63-1.74,3-7.63,3.24-10.62.28-2.25-2.24-3.54-5.44-5.26-8.22Q538.66,346.36,539,342.21Z"/><path class="cls-24" d="M340,324.56c0,.65,0,1.31,0,2q-4.62,15.74-9.23,31.48l-23.86-14.77,8.31-30.92c3.1.53,6.3.73,9.27,1.67C330.6,315.93,336.79,318.09,340,324.56Z"/><path class="cls-24" d="M365.26,214.29l-24.63-15.35q3.64-13.29,7.3-26.59c10,1.05,19.49,3.16,25.89,12Q369.53,199.3,365.26,214.29Z"/><path class="cls-15" d="M716.53,450.08c2.67-9.18,2.67-9.17,12.28-9.19l15-.06L731.39,483H714.73c.62-1.55,1.33-3.07,1.84-4.65,2.9-9.13,4.07-18.28.08-27.43Z"/><path class="cls-22" d="M477.75,411.73c-3,10.9-6.08,21.8-9.36,33.58l-23.51-15.2c1.91-6.55,3.95-13.08,5.69-19.68.84-3.19,2.55-5,5.78-4.25C463.52,407.86,470.62,409.86,477.75,411.73Z"/><path class="cls-19" d="M513.59,350.5c-5.4,5.49-10.82,11-16.2,16.48s-10.73,11.1-16.1,16.65l-12.56-3.85L477,349.6l36.76.14A4.81,4.81,0,0,1,513.59,350.5Z"/><path class="cls-24" d="M443.13,217.79l33,20.31c-11.38,7.3-22.69,14.74-34.21,21.84-4.25,2.61-6.79-1.63-9.8-3.56Q437.64,237.08,443.13,217.79Zm9.75,27.88c1.42-4.74,2.77-8.72,3.78-12.79.44-1.79-8-8.07-9.79-7.38a2.86,2.86,0,0,0-1.44,1.61c-1.08,3.31-2.11,6.65-3,10a2.72,2.72,0,0,0,.7,2.39C446.11,241.56,449.2,243.38,452.88,245.67Z"/><path class="cls-23" d="M477.75,411.73c-7.13-1.87-14.23-3.87-21.4-5.55-3.23-.76-4.94,1.06-5.78,4.25-1.74,6.6-3.78,13.13-5.69,19.68L442,428.16l9.81-32,12.6-12.05c6.75-2,12.77-1.49,17.21,4.78Z"/><path class="cls-25" d="M356.08,336.81c7.49.27,14.42,2.5,20.08,7.33,2,1.69,2.53,5.05,3.73,7.65-.86,2.34-1.73,4.69-2.59,7l-7.84-8.05-8,27.35-14.38-9.49Z"/><path class="cls-18" d="M377.3,358.83c.86-2.35,1.73-4.7,2.59-7q13.67,8.25,27.33,16.5c2.21,1.34,4.39,2.74,6.59,4.11q-5.12,15.54-10.21,31.1l-1.76-1.3c1.91-8.8-.18-16.26-7-21.13,2.73-2.69,5.38-5,7.62-7.7.59-.71.29-2.68-.29-3.65-.3-.49-2.58-.5-3.23.08-2.52,2.28-4.75,4.88-7.09,7.36a100,100,0,0,0-5.7-8.36c-.63-.78-2.46-.57-3.75-.81-.13,1.42-.72,3-.31,4.23a19.78,19.78,0,0,0,2.31,4.16l-13.47,7.05Z"/><path class="cls-27" d="M365.26,214.29q4.28-15,8.56-30c2.22-3.55-.78-5.64-2.29-8.14.61-2.56,2.12-3.55,4.83-3.41,4.89.24,9.79.15,14.69.2l-13.92,49Z"/><path class="cls-24" d="M485,582.6h32c-3.17,7.49-6.05,14.28-8.93,21.07H481.5q1.42-10.59,2.84-21.16A2.64,2.64,0,0,1,485,582.6Z"/><path class="cls-18" d="M292.17,296.49,311,308.68c-2.72,1-5.9,1.37-6.09,5.25q-3.6,11.83-7.22,23.69L289.48,333h-8.24Q286.7,314.76,292.17,296.49Z"/><path class="cls-28" d="M206.89,619.35l-7.72.19c3.48-12.72,6.93-25.45,10.45-38.17,2.27-8.19,4.58-16.38,7-24.53a39.64,39.64,0,0,1,2.41-5.33l7.4,1q-9.33,32.91-18.68,65.81C207.63,618.7,207.18,619,206.89,619.35Z"/><path class="cls-16" d="M678.12,671.46q4.73-17.06,9.44-34.11c.24-.87.36-1.76.53-2.64q1.49-4.77,3-9.53l1.71,1.23c3.57,8.45,10,14.24,17.55,19a32.35,32.35,0,0,1,3.62,3.13c-1,.63-1.88,1.67-2.94,1.84C697,652.71,686.3,660.1,678.12,671.46Z"/><path class="cls-24" d="M489,247c-.48,2.76-1,5.52-1.45,8.28q-2.12,7-4.22,14c-5.78,2.73-6.42,8.7-8.64,13.68l-22.33-13.22Z"/><path class="cls-23" d="M474.69,283c2.22-5,2.86-11,8.64-13.68l6,9.5L501,263.61l2.47-1.8,3.79-1.55,1.67.74c-2.29,12.71-8.18,23.68-16.34,33.53Z"/><path class="cls-26" d="M477.08,610c-.07-.6-.15-1.19-.22-1.78,1.38-.62,2.74-1.75,4.13-1.78,9.3-.17,18.6-.12,27.89-.1a6.09,6.09,0,0,1,3.1.49c9.4,5.89,18.73,11.88,28.08,17.84a3.36,3.36,0,0,0-.06.63l-37.33.09c2-4.84,4-9.68,6.4-15.39Z"/><path class="cls-7" d="M546.31,625l9.47-20.48,4.39-.35.27-1.14-6.2-4.6,5.88-12.23,11.22.08q-5.4,19.46-10.78,38.89Z"/><path class="cls-24" d="M477.08,610h32c-2.38,5.71-4.39,10.55-6.4,15.39l-28.24.1Q475.75,617.75,477.08,610Z"/><path class="cls-23" d="M716.65,451c4,9.15,2.82,18.3-.08,27.43-.51,1.58-1.22,3.1-1.84,4.65l-26.6.29c1.26-1.07,2.45-2.21,3.77-3.18A79,79,0,0,0,716.65,451Z"/><path class="cls-11" d="M263.92,506c-2.94,5.79-5.58,11.75-8.87,17.33-6.94,11.8-9.66,25-13.33,37.91l-8.12-5.15c.07-.29.15-.59.2-.89,2.6-16.33,11.25-29.49,21.82-41.66a60.77,60.77,0,0,0,3.66-5.16l1.17-1.61-.07.18Z"/><path class="cls-22" d="M391.86,377.16c2.34-2.48,4.57-5.08,7.09-7.36.65-.58,2.93-.57,3.23-.08.58,1,.88,2.94.29,3.65-2.24,2.68-4.89,5-7.62,7.7,6.81,4.87,8.9,12.33,7,21.13-.72-.06-1.6.13-2.14-.21-7.84-5-15.63-10-23.43-15,3.62-4.47,7.28-8.83,14-7.66C390.69,379.39,391.34,377.92,391.86,377.16Z"/><path class="cls-18" d="M331.6,157.46l15.51,10.1c-1.62.68-3.48,1.06-4.78,2.12s-2.31,2.93-3.43,4.44q-3.16,10-6.35,19.92l-2.84-.89-8.2-.89Q326.55,174.86,331.6,157.46Z"/><path class="cls-23" d="M666.19,594.45c3.67,4.91,8.38,9.37,10.7,14.85,1.9,4.51,1,10.22,1.28,15.4h-12c4.82-18.47-5.73-30.1-17.7-36.8-1.44-.8-2.84-1.68-4.25-2.53C652.51,586.11,659.33,590.34,666.19,594.45Z"/><path class="cls-26" d="M443.13,217.79q-5.49,19.29-11,38.59L423,250.87q4-12.93,8.08-25.88c.8-2.59,1.55-5.2,2.33-7.81Z"/><path class="cls-27" d="M356.08,336.81l-9,31.83-9.37-6.29c1.92-6.55,4-13.06,5.69-19.67,1-4.11,3.55-5.77,7.42-6,1.82-.12,3.65-.13,5.47-.18Z"/><path class="cls-26" d="M562.31,434.48c-4.36,3.81-9.24,7.18-13,11.52A102.43,102.43,0,0,0,529,483.69l-4.61.22c2.64-12.27,8.53-23.08,15.12-33.57.56-.88,1-1.81,1.57-2.71,4.28-4.67,8.54-9.36,12.83-14,2.64-2.88,5.36-3.08,8.13-.15Z"/><path class="cls-18" d="M356.26,336.48c-1.82,0-3.65.06-5.47.18-3.87.25-6.39,1.91-7.42,6-1.66,6.61-3.77,13.12-5.69,19.67-2.33-1.45-4.65-2.91-7-4.35q4.62-15.74,9.23-31.48Z"/><path class="cls-22" d="M492.56,294.53c8.16-9.85,14.05-20.82,16.34-33.53.5,2.37,1.86,5,1.32,7.07-1.45,5.52-3.7,10.83-5.69,16.21a14.27,14.27,0,0,0-1.39,5,76.58,76.58,0,0,1,7.41-4.66,109.54,109.54,0,0,1,12.88-5.46c1.43-.48,4.3,0,4.84.92.76,1.36.37,3.73-.25,5.4s-2.18,3.2-3.32,4.78c.24-3.42-1.14-5.52-4.75-4.71-8.59,1.94-16.18,5.81-22.12,12.51Z"/><path class="cls-26" d="M297.7,337.62q3.62-11.85,7.22-23.69l10.23-1.62-8.31,30.92Z"/><path class="cls-23" d="M497.83,298c5.94-6.7,13.53-10.57,22.12-12.51,3.61-.81,5,1.29,4.75,4.71l-14.92,14.16Z"/><path class="cls-28" d="M321.51,192.26l8.2.89q-4.08,14.58-8.18,29.15l-8.36-.1Z"/><path class="cls-22" d="M716.65,451a79,79,0,0,1-24.75,29.19c-1.32,1-2.51,2.11-3.77,3.18l-14.24-.08c17.14-5.79,29.34-17.26,37.86-33l4.78-.22Z"/><path class="cls-28" d="M281.24,333h8.24q-4.16,14.7-8.33,29.41l-8.11-.1Q277.14,347.68,281.24,333Z"/><path class="cls-26" d="M332.55,194q3.18-10,6.35-19.92l9-1.77q-3.66,13.29-7.3,26.59Z"/><path class="cls-18" d="M451.84,396.19l-9.81,32c-5.56-2.18-5.86-2.86-4.28-8.27,2.19-7.51,4.24-15.06,6.43-22.56a28.53,28.53,0,0,1,1.85-4Z"/><path class="cls-28" d="M312.56,525l-18.51.05c5-2.93,9.67-7.3,15-8.43,6.56-1.38,13.69,0,20.58.13Z"/><path class="cls-22" d="M632.65,482.82c-.7-1.79-1.07-3.81-2.14-5.34-4.34-6.16-6.29-13.11-7.1-20.43-.23-2.14-.77-4.9,2.9-4.93-.34,14.77,7.05,25.7,21.2,31.33Z"/><path class="cls-23" d="M391.86,377.16c-.52.76-1.17,2.23-1.55,2.17-6.76-1.17-10.42,3.19-14,7.66l-5.33-3.56,13.47-7.05a19.78,19.78,0,0,1-2.31-4.16c-.41-1.24.18-2.81.31-4.23,1.29.24,3.12,0,3.75.81A100,100,0,0,1,391.86,377.16Z"/><path class="cls-7" d="M317.4,525.68l12.76-6.53c1.85,5.83,3.54,11.17,5.23,16.51l-.92.64Z"/><path class="cls-26" d="M481.65,388.92c-4.44-6.27-10.46-6.81-17.21-4.78l4.29-4.36,12.56,3.85q.56,2.67,1.1,5.34C482.15,389,481.9,389,481.65,388.92Z"/><path class="cls-25" d="M442.3,367.48c-3.34-5.79-8-7.25-16.87-5.23,1.26-4.36,4.55-5.2,11.36-2.94,6,2,7.62,4.08,6.12,8Z"/><path class="cls-23" d="M328.88,592.54c.3-.27.6-.54.91-.8Z"/><path class="cls-29" d="M540,625.31a3.36,3.36,0,0,1,.06-.63l.35.57Z"/><path class="cls-17" d="M551.68,215.15l-.67-.92Z"/><path class="cls-11" d="M822.9,346.87l20.78,1.6c13.15,4.95,16.93,14,16,25.58a74.56,74.56,0,0,1-3.88,17.29c-5.55,16.75-16.81,29-31.49,38.36L796.19,440Q809.56,393.42,822.9,346.87Z"/><path class="cls-9" d="M836.26,299.18c.15,3.38,1.06,6.95.3,10.11-2.26,9.42-5,18.75-8,28-.73,2.25-3.21,3.94-4.88,5.89l-3-.14c-3.56-2.58-6.13-6.12-4.93-10.42,3.48-12.38,7.52-24.6,11.34-36.88Z"/><path class="cls-9" d="M852.64,242.48c0,3.83.73,7.84-.14,11.47-2.18,9.12-4.9,18.11-7.82,27-.69,2.1-3,3.66-4.61,5.47l-2.88-.09c-3.37-2.65-6.37-5.81-5.05-10.37,3.59-12.36,7.58-24.6,11.41-36.89Z"/><path class="cls-16" d="M827.11,295.71c-3.82,12.28-7.86,24.5-11.34,36.88-1.2,4.3,1.37,7.84,4.93,10.42-7.26.1-11.16-4.48-9.31-11.38,2.71-10.14,5.66-20.22,8.57-30.3C821,297.81,822.93,295.29,827.11,295.71Z"/><path class="cls-16" d="M843.55,239.09c-3.83,12.29-7.82,24.53-11.41,36.89-1.32,4.56,1.68,7.72,5.05,10.37-7.58.26-11.51-4.66-9.45-12,2.76-9.78,5.73-19.51,8.41-29.32C837.23,241.09,839.46,239.06,843.55,239.09Z"/><path class="cls-11" d="M799.24,690.24c-2.38,4.55-4.79,9.07-7.11,13.66a10.34,10.34,0,0,0-1,3.4c-.89,7.18-1.71,14.36-2.55,21.54-2.53,6.49-4.8,13.1-7.64,19.45-8.47,18.94-20.91,35.16-35.09,50.13C724,818.94,699.56,836,674.17,851.74c-13.7,8.48-27.82,16.27-41.76,24.37l-42.08,20.22-46,18c-15.6,4.61-31.18,9.27-46.81,13.81-4,1.16-8.08,1.93-13.17,3.12L556,893.21l-.55-1.47c-8.26-.62-16.5-1.35-24.77-1.85-22.3-1.33-44.6-2.54-66.9-3.86-13.65-.81-27.33-1.3-40.92-2.72C406.79,881.64,395,873,387.3,858.78c8.38,4.78,17.49,5.54,26.9,5.32,15.23-.35,30.46-.47,45.69-.51q83.18-.2,166.36-.29c27.29-.06,52.46-17.8,60.76-43.81,6.94-21.73,12.79-43.81,19-65.78a5.28,5.28,0,0,0-1-4.39c-5.15-5.17-10.56-10.08-15.88-15.07l-7.24-10.93c1.57.89,3.17,1.72,4.71,2.66,10.22,6.28,20.22,13,30.71,18.75,7.9,4.36,16.69,7,25.88,5.77,11.68-1.53,19.27-9,24.93-18.76,6.69-11.53,9.31-24.27,11.53-37.23,2.09-12.27-2.69-20.5-13.43-25.81-8.31-4.11-16.56-8.37-25-12.08a160.06,160.06,0,0,0-17.58-6.09,95.3,95.3,0,0,0-9.68-1.95,32.35,32.35,0,0,0-3.62-3.13c-7.54-4.8-14-10.59-17.55-19,7.41,3.88,14.58,8.35,22.28,11.51,12.63,5.18,25.31,10.77,38.51,13.91,19.77,4.69,28.05-.59,37.63-18.66,6.57-12.38,8.94-26.09,9.47-40.1.19-4.93-1.68-8.75-5-12.25-6.52-6.87-14.32-11.67-23.07-15.48,3,.37,6,.64,9,1.12,11,1.76,20.46-.54,27.9-9.45,9.82-11.77,16-25,17.74-40.33,7.38,8.56,9.58,18.44,7.48,29.42q-4.62,18.71-9.22,37.41-6.51,17.25-13,34.5a7.31,7.31,0,0,0-.55,3.08c2.08,23.42-3,45.55-11.93,67C799.72,688.79,799.5,689.52,799.24,690.24Z"/><path class="cls-16" d="M681.91,723.32l7.24,10.93c-5.2,17.81-11.07,35.46-15.47,53.46-8.48,34.71-33.79,54.2-66.92,54.37-70.08.35-140.17.14-210.25.17,5.31-7.89,10.49-15.88,16-23.66,13.87-19.69,27.89-39.28,41.79-59a18.29,18.29,0,0,0,1.64-4.1l71.43-.37c2.73,0,5.45-.13,8.18-.19l25.6-.22,15.54-.14,6.47,0,22.81-.16,3.63.06c13.82,0,27.65,0,41.47.16,2.58,0,3.34-1.21,3.93-3.31,2.75-9.94,5.59-19.84,8.4-29.76q4.14-13.74,8.29-27.47c.65,10.22,3.35,19.76,9.37,28.2l.85,1ZM517.77,770.06a32.92,32.92,0,0,0-31.31,24.09c-5,18.79,8.67,35.32,27.64,33.48C528,826.29,540.27,814.9,542.88,801,546.07,783.87,534.85,770.07,517.77,770.06Z"/><path class="cls-12" d="M396.51,842.25c70.08,0,140.17.18,210.25-.17,33.13-.17,58.44-19.66,66.92-54.37,4.4-18,10.27-35.65,15.47-53.46,5.32,5,10.73,9.9,15.88,15.07a5.28,5.28,0,0,1,1,4.39c-6.18,22-12,44-19,65.78-8.3,26-33.47,43.75-60.76,43.81q-83.18.21-166.36.29c-15.23,0-30.46.16-45.69.51-9.41.22-18.52-.54-26.9-5.32h0l-.95-.85q-8.22-10.11-16.45-20.2c.54-.14,1.29-.59,1.59-.38C379.13,842.65,387.78,842.61,396.51,842.25Z"/><path class="cls-12" d="M363.69,785.54c.25-.31.51-.62.77-.92C364.2,784.92,363.94,785.23,363.69,785.54Z"/><path class="cls-11" d="M386.36,857.93l.95.85Z"/><path class="cls-10" d="M575.75,350.52l-4.81-8.17,14.88-.25,15.33-.05,45.08-.05c10.64,0,21.29.17,31.94,0a5.12,5.12,0,0,0,3.74-2.76c1.52-4.27,2.5-8.73,3.68-13.12q2.24-7.94,4.48-15.87c1.28-4.18,2.69-8.34,3.81-12.57,3-11.15,8.5-20.31,19.13-25.74,6.54-2,12.71-1.92,18.07,3,1.37,11.54-.53,22.66-3.94,33.68-3.36,10.85-6.28,21.82-9.52,33.15h8.61l36.74-.19,9.21.35q-1.32,4.14-2.65,8.26-34.5,0-69,0Q638.15,350.38,575.75,350.52Z"/><path class="cls-17" d="M571.34,586.28l-11.22-.08,2.7-5.66,4.4-.63.25-1.24-20.2-13.25q3.68-12.79,7.33-25.6,55.74-.08,111.49-.14c16.44,0,32.89,0,49.34.06l-6,20.18c-9.87,0-19.75,0-29.63-.17-2.72,0-4,.93-4.71,3.68-1.54,5.66-3.61,11.18-5.46,16.76-11-6.74-21.89-13.5-32.88-20.19-4.37-2.66-8.85-5.14-13.29-7.71-10.44,0-20.88-.08-31.32.07-.93,0-2.23,1.34-2.67,2.35a32.69,32.69,0,0,0-1.93,6.53c-1,5-2.4,9.32-9.05,8.5-.86-.1-2.45,1.87-2.93,3.16C574,577.29,572.73,581.81,571.34,586.28Z"/><path class="cls-26" d="M772.18,342l-9.2-.35c.7-3.11,1.35-6.23,2.13-9.32,4.71-18.48,12.7-36.31,10.95-56.05l2.6,2c4.45,7.35,5.28,15.42,4.78,23.77Q777.8,322,772.18,342Z"/><path class="cls-11" d="M741.34,555.2l20.42,6.69-.66,1.86L741.18,556A3,3,0,0,1,741.34,555.2Z"/><path class="cls-24" d="M776.06,276.24c1.75,19.74-6.24,37.57-10.95,56.05-.78,3.09-1.43,6.21-2.13,9.32l-36.75.19c.24-.88.47-1.76.72-2.64L739.73,293c3.92-8.64,9.14-16.12,18-20.38C764.57,270.16,770.83,270.59,776.06,276.24Z"/><path class="cls-24" d="M646.23,342l-45.08.05-19-15.26q1.88-5.48,3.74-11c.79-6.64,5.69-7.27,10.9-7.45l30.19-.16,6.06,0,22.33,0c-.32,1.63-.54,3.29-1,4.89C651.72,322.75,649,332.37,646.23,342Z"/><path class="cls-26" d="M646.23,342c2.73-9.63,5.49-19.25,8.19-28.89.45-1.6.67-3.26,1-4.89l6.72,2.89q2.5,1.77,5,3.53l18.44,11.47c-1.18,4.39-2.16,8.85-3.68,13.12a5.12,5.12,0,0,1-3.74,2.76C667.52,342.17,656.87,342,646.23,342Z"/><path class="cls-7" d="M739.73,293,727,339.16c-.25.88-.48,1.76-.72,2.64h-8.61c3.24-11.33,6.16-22.3,9.52-33.15,3.41-11,5.31-22.14,3.94-33.68l2.82,2.95Q736.83,285.46,739.73,293Z"/><path class="cls-25" d="M662.13,311.11l-6.72-2.89-22.33,0c1-4,2.23-7.88,3.11-11.88.79-3.59,3.08-5.07,6.46-5.22a30.75,30.75,0,0,1,18.16,5c3.36,2.14,4.7,5,3.12,8.93A63.1,63.1,0,0,0,662.13,311.11Z"/><path class="cls-25" d="M627,308.22l-30.19.16c1.08-3.76,2.34-7.49,3.18-11.31.8-3.6,3-4.92,6.41-5.15,6.75-.44,12.75,1.84,18.55,4.92C629.5,299.94,628.69,304,627,308.22Z"/><path class="cls-27" d="M685.59,326.11l-18.44-11.47c2.5-7.58,4.56-8.93,12.56-7.43a103.7,103.7,0,0,1,10.36,3Q687.84,318.17,685.59,326.11Z"/><path class="cls-25" d="M733.9,277.92,731.08,275c-5.36-5-11.53-5.06-18.07-3,1.11-7,2.69-8.3,9.53-7.31a28.53,28.53,0,0,1,7.75,2.33C736.34,269.73,736.94,271.84,733.9,277.92Z"/><path class="cls-25" d="M776.06,276.24c-5.23-5.65-11.49-6.08-18.32-3.61.68-7,2.28-8.41,9.25-7.37a31,31,0,0,1,8.19,2.36c5.72,2.6,6.27,4.66,3.48,10.66Z"/><path class="cls-11" d="M376.37,547.44c.23-4.59-3.35-5.64-6.57-6.67-3.54-1.13-7.34-2.35-10,1.85-2.35-7.31,1.7-12.89,8.88-12.1a22.25,22.25,0,0,1,5.26,1.3C381.77,534.75,382.8,541.54,376.37,547.44Z"/><path class="cls-10" d="M263.92,506l-3.54.95c-.14-3.86-.37-7.85,4.48-9.15,3.74-1,12.61,2.45,13,5.59.32,2.84-1.34,5.9-2.12,8.86C273.52,506.93,268.9,506.14,263.92,506Z"/><path class="cls-14" d="M425.2,577.28l-12.09-3.7c.39-1.46.74-2.93,1.16-4.38,1.79-6.15,6.88-7.63,11.77-3.23a5.05,5.05,0,0,1,1.21,3.89A56.82,56.82,0,0,1,425.2,577.28Z"/><path class="cls-10" d="M260.45,506.81l-1.17,1.61Z"/><path class="cls-11" d="M315.15,312.31l-10.23,1.62c.19-3.88,3.37-4.29,6.09-5.25a38.75,38.75,0,0,1,25.8,7.09c2.95,2.09,5.36,4.69,3.14,8.79-3.16-6.47-9.35-8.63-15.53-10.58C321.45,313,318.25,312.84,315.15,312.31Z"/><path class="cls-19" d="M507.23,260.26l-3.79,1.55q3.19-12.52,6.38-25.05,2.76-10.77,5.54-21.54c10.41,0,20.82-.07,31.23,0a26.73,26.73,0,0,1,4.4.72c-7.91,8-15.85,15.91-23.74,23.9C520.55,246.6,513.9,253.44,507.23,260.26Z"/><path class="cls-18" d="M501,263.61,489.3,278.79l-6-9.5q2.12-7,4.22-14Z"/><path class="cls-10" d="M347.93,172.35l-9,1.77c1.12-1.51,2-3.29,3.43-4.44s3.16-1.44,4.78-2.12c8.45,2,17.16,3.24,24.42,8.63,1.51,2.5,4.51,4.59,2.29,8.14C367.42,175.51,357.92,173.4,347.93,172.35Z"/><path class="cls-30" d="M723.83,564.43c18.6,6.23,36,14.54,47,31.69,7.62,11.79,7.18,24.3.25,36.3-6,10.36-16.07,12.52-26.91,11.17-14.09-1.76-26.87-7.38-38.78-15,2.36-4.4,5.13-8.63,7-13.24C719,599,723.29,582.13,723.83,564.43Z"/><path class="cls-30" d="M762.18,485.92c16.46,6.63,31,15.81,39.1,32.3,5.8,11.83,3.42,23.25-4.92,33.17-4.39,5.23-10.81,7-17.39,6.33-14.31-1.54-26.68-7.84-37.8-16.78a21.45,21.45,0,0,1,1.41-2.84C753.44,522.33,759.55,504.78,762.18,485.92Z"/><path class="cls-10" d="M723.83,564.43c-.54,17.7-4.81,34.58-11.41,50.89-1.86,4.61-4.63,8.84-7,13.24-4.1-1.78-4.83-5-3-8.59,7.74-15.56,11.77-32.13,14-49.25C717.08,565.45,718.56,564.33,723.83,564.43Z"/><path class="cls-10" d="M762.18,485.92c-2.63,18.86-8.74,36.41-19.6,52.18a21.45,21.45,0,0,0-1.41,2.84c-4.85-2.66-5.5-4.47-3-9A176.24,176.24,0,0,0,755,490.75C756,486.86,758,484.91,762.18,485.92Z"/><path class="cls-11" d="M769.75,564.85a2.55,2.55,0,0,1-.75.25c-.09,0-.2-.32-.3-.49.13-.05.28-.16.38-.12A4,4,0,0,1,769.75,564.85Z"/><path class="cls-14" d="M681,722.35c-6-8.44-8.72-18-9.37-28.2q.81-5.88,1.61-11.76l4.86-10.94c8.18-11.35,18.87-18.74,32.87-21,1.06-.17,2-1.21,2.94-1.84a95.3,95.3,0,0,1,9.68,1.95,160.06,160.06,0,0,1,17.58,6.09c8.49,3.71,16.74,8,25,12.08,10.74,5.31,15.52,13.54,13.43,25.81-2.22,13-4.84,25.7-11.53,37.23-5.66,9.76-13.25,17.23-24.93,18.76-9.19,1.2-18-1.41-25.88-5.77-10.49-5.79-20.49-12.47-30.71-18.75-1.54-.94-3.14-1.77-4.71-2.66l0,.07Zm-1.09-16.15c12.13,12.29,26,21.14,44,21,23.71-.22,37-22.54,25.77-43.34-6.65-12.27-17-20.83-29.24-27.31-4.4-1.95-7.2-1.3-9.47,2.87-7.8,14.31-17.1,27.33-30.22,37.35C677.27,699.38,677.27,702.55,679.93,706.2Z"/><path class="cls-19" d="M663.36,721.62c-2.81,9.92-5.65,19.82-8.4,29.76-.59,2.1-1.35,3.34-3.93,3.31-13.82-.16-27.65-.13-41.47-.16-.62-5.08-1.76-10.17-1.73-15.25,0-6.75,2.69-12.29,9.63-15,1.09-.44,2-2.77,2-4.21-.11-6.06.81-11.76,4.25-16.9,6.32-9.43,16.43-9.22,22.29.55a17.32,17.32,0,0,1,1.88,4.11c.93,3.37,2.45,5.24,6.31,6.42C657.68,715.27,660.34,719,663.36,721.62Z"/><path class="cls-19" d="M605.93,754.47l-22.81.16c-12.45-8.88-20.1-21-23.32-35.8-.59-2.74-.08-5.72-.08-8.58l1.83-.51a72.52,72.52,0,0,1,4.3,7.93c3.83,9.64,9.85,17.77,17,25.16a33,33,0,0,0,2.87,2.36c-2.53-7.41-5.35-14.4-7.23-21.63-1.08-4.17-.85-8.74-.8-13.12,0-1.4,1.32-2.78,2-4.17.95,1.19,2.32,2.23,2.8,3.58,2.73,7.56,4.34,15.66,8.06,22.66C594.73,740.34,600.73,747.19,605.93,754.47Z"/><path class="cls-19" d="M608.67,659.46c6.21-.31,12.41-.7,18.62-.91,4.1-.14,8.22,0,12.33,0,2.86,0,5.28.53,5.54,4,.24,3.22-.8,5.83-4.35,6.44-2.37.4-4.82.34-7.23.59-1.92.2-3.82.57-5.72.86-4.65-.3-9.33-.35-13.91-1-2.31-.33-5.49-1.26-6.37-2.92S608.21,661.83,608.67,659.46Z"/><path class="cls-19" d="M576.65,754.61l-15.54.14c-2.69-3.24-5.63-6.3-8-9.76-1.75-2.55-2.75-5.61-4.08-8.45l1.39-.91Z"/><path class="cls-15" d="M691,450.75l-38.52.87c2.77-10.11,5.44-20.25,8.37-30.32,1.28-4.41,5.66-4.91,9-4.78,8.74.33,17.17,2.22,24,8.45a6.89,6.89,0,0,1,2.17,7.77C694.25,438.72,692.64,444.75,691,450.75Z"/><path class="cls-19" d="M474.23,657.63c7.29,0,14.58,0,21.87,0,3.71,0,7.28.31,8,4.82.53,3.25-3.2,5.94-8.05,6.17l-1.82.09c-7.13,0-14.26-.13-21.39-.07-3.74,0-7.25-.25-7.72-5-.32-3.26,3-5.66,7.72-6C473.32,657.63,473.78,657.64,474.23,657.63Z"/><path class="cls-10" d="M562.31,434.48l-.28-1,1.82,1.11Z"/><path class="cls-25" d="M582.19,326.79l19,15.26-15.33.05-21.46-17,1.29-7.62c2.15.25,4.75-.17,6.36.9C575.66,320.78,578.83,323.93,582.19,326.79Z"/><path class="cls-26" d="M562.82,580.54l-2.7,5.66-5.88,12.23c-10.06-6.24-20.08-12.55-30.22-18.66-2.41-1.46-5.22-2.27-7.85-3.38,2.64-5.91,5.27-11.82,8.27-18.52H491.77l-.3-1.72a7.2,7.2,0,0,1,2.38-1c10.17-.1,20.35-.17,30.53-.08a8.91,8.91,0,0,1,4.16,1.53c10.61,6.51,21.22,13,31.7,19.76C561.48,577.17,562,579.12,562.82,580.54Z"/><path class="cls-24" d="M491.77,557.87h32.67c-3,6.7-5.63,12.61-8.27,18.52L489,577Q490.39,567.46,491.77,557.87Z"/><path class="cls-10" d="M562.82,580.54c-.84-1.42-1.34-3.37-2.58-4.16-10.48-6.72-21.09-13.25-31.7-19.76a8.91,8.91,0,0,0-4.16-1.53c-10.18-.09-20.36,0-30.53.08a7.2,7.2,0,0,0-2.38,1l-3.58-1.9c.08-.42.15-.84.22-1.26l4.53-.65c8.94,0,17.88.35,26.81.06a21.68,21.68,0,0,1,13.16,4c4.78,3.17,9.77,6,14.66,9l20.2,13.25-.25,1.24Z"/><path class="cls-10" d="M489,577l27.18-.64c2.63,1.11,5.44,1.92,7.85,3.38,10.14,6.11,20.16,12.42,30.22,18.66l6.2,4.6-.27,1.14-4.39.35c-.77-1.31-1.21-3.11-2.34-3.83-10.74-6.88-21.56-13.6-32.43-20.25a9.45,9.45,0,0,0-4.67-1.36q-13.89-.17-27.78.08c-1.26,0-2.5,1.07-3.75,1.65L481,578.42c.09-.35.18-.69.28-1Z"/><path class="cls-10" d="M485,582.6a2.64,2.64,0,0,0-.62-.08,4.59,4.59,0,0,1,.24-.5A1.25,1.25,0,0,1,485,582.6Z"/><path class="cls-11" d="M623.49,552.29c4.44,2.57,8.92,5.05,13.29,7.71,11,6.69,21.92,13.45,32.88,20.19q-1.74,7.13-3.47,14.26c-6.86-4.11-13.68-8.34-21.94-9.08-12.27-3-24.09-1.5-35.56,3.51-1.52.67-3,1.37-4.55,2,1.92-6.86,3.84-13.71,5.94-21.23l7.66,3.89C619.72,566.25,621.61,559.27,623.49,552.29Z"/><path class="cls-18" d="M423.15,213.13c-.08,9.42-6.71,16.62-15.21,16.52-9-.11-16.85-8.93-16.69-18.81.15-9.23,7.05-16.66,15.37-16.56C415.72,194.4,423.24,203,423.15,213.13Z"/><path class="cls-27" d="M564.36,325.08l21.46,17-14.88.25-4.25-12.08-6.36,8.78C559.57,333.47,561.06,328.19,564.36,325.08Z"/><path class="cls-26" d="M452.88,245.67c-3.68-2.29-6.77-4.11-9.72-6.14a2.72,2.72,0,0,1-.7-2.39c.86-3.38,1.89-6.72,3-10a2.86,2.86,0,0,1,1.44-1.61c1.77-.69,10.23,5.59,9.79,7.38C455.65,237,454.3,240.93,452.88,245.67Z"/><path class="cls-9" d="M517.77,770.06c17.08,0,28.3,13.81,25.11,30.89-2.61,13.95-14.89,25.34-28.78,26.68-19,1.84-32.61-14.69-27.64-33.48A32.92,32.92,0,0,1,517.77,770.06Z"/><path class="cls-11" d="M681,722.35l.85,1Z"/><path class="cls-30" d="M720.42,656.52c12.2,6.48,22.59,15,29.24,27.31,11.27,20.8-2.06,43.12-25.77,43.34-18,.17-31.83-8.68-44-21,4.85-3.84,10.06-7.31,14.48-11.59C705.66,683.73,713.55,670.45,720.42,656.52Z"/><path class="cls-10" d="M720.42,656.52c-6.87,13.93-14.76,27.21-26,38.09-4.42,4.28-9.63,7.75-14.48,11.59-2.66-3.65-2.66-6.82.8-9.46,13.12-10,22.42-23,30.22-37.35C713.22,655.22,716,654.57,720.42,656.52Z"/></svg>