<?xml version="1.0" encoding="UTF-8"?>
<svg id="OBJECT" xmlns="http://www.w3.org/2000/svg" viewBox="0 0 500 500">
  <defs>
    <style>
      .cls-1 {
        fill: #b4d6ef;
      }

      .cls-2 {
        fill: #fff;
      }

      .cls-3 {
        fill: #ffd20d;
      }

      .cls-4 {
        fill: #00b59f;
      }

      .cls-5 {
        fill: #005fa5;
      }

      .cls-6 {
        fill: #ffb510;
      }

      .cls-7 {
        fill: #41d8bb;
      }

      .cls-8 {
        fill: #038976;
      }

      .cls-9 {
        fill: #743900;
      }

      .cls-10 {
        fill: #002f51;
      }

      .cls-11 {
        fill: #06c66f;
      }

      .cls-12 {
        fill: #05ff95;
      }

      .cls-13 {
        fill: #ff5938;
      }

      .cls-14 {
        fill: #01263d;
      }

      .cls-15 {
        fill: #ffa984;
      }

      .cls-16 {
        fill: #cbe7ff;
      }

      .cls-17 {
        fill: #035282;
      }

      .cls-18 {
        fill: #f49271;
      }
    </style>
  </defs>
  <g>
    <g>
      <path class="cls-16" d="M41.24,422.5s-19-174,15-228,75-41,90-75,63-78,144-67,151,55,147,154,56,92,33,221c0,0-284,29-429-5Z"/>
      <path class="cls-2" d="M476.39,192.11s-2.46-25.71-37.46-20.42c0,0-20.88-37.81-50.36,1.51,0,0-21.5-10.59-30.09,18.15l117.92,.76Z"/>
      <path class="cls-16" d="M115.69,78.32s-1.75-18.32-26.69-14.55c0,0-14.87-26.94-35.87,1.08,0,0-15.31-7.54-21.44,12.93l84,.54Z"/>
      <path class="cls-2" d="M312.24,146.66s-1.79-18.71-27.26-14.86c0,0-15.19-27.51-36.64,1.1,0,0-15.64-7.7-21.89,13.21l85.79,.55Z"/>
      <path class="cls-16" d="M483,75.07s-2.1-22.02-32.09-17.49c0,0-17.89-32.39-43.14,1.3,0,0-18.41-9.07-25.78,15.55l101,.65Z"/>
      <path class="cls-2" d="M122,230.73s-2.01-21.08-30.71-16.74c0,0-17.12-31-41.28,1.24,0,0-17.62-8.68-24.67,14.88l96.67,.62Z"/>
      <g>
        <path class="cls-3" d="M214.67,97.94c0,14.74-8.74,27.44-21.32,33.21-4.62,2.11-9.76,3.29-15.18,3.29-20.16,0-36.5-16.34-36.5-36.5,0-6.41,1.65-12.42,4.56-17.66,6.21-11.23,18.19-18.84,31.94-18.84,20.16,0,36.5,16.34,36.5,36.5Z"/>
        <path class="cls-6" d="M193.35,131.15c-4.62,2.11-9.76,3.29-15.18,3.29-20.16,0-36.5-16.34-36.5-36.5,0-6.41,1.65-12.42,4.56-17.66,4.06,14.76,15.43,38.96,47.12,50.87Z"/>
      </g>
    </g>
    <path class="cls-1" d="M473.33,456.44H26.67c-8.84,0-16-7.16-16-16h0c0-8.84,7.16-16,16-16H473.33c8.84,0,16,7.16,16,16h0c0,8.84-7.16,16-16,16Z"/>
  </g>
  <g>
    <g>
      <path class="cls-7" d="M175.73,220.75s-24.01-14.07-36.62-9.21c-12.61,4.87-10.2,23.85,19.44,23.04,29.64-.81,31.08-1.51,31.08-1.51l-1.67-8.57-12.23-3.76Z"/>
      <path class="cls-4" d="M189.5,234.94s-31.5-17.5-39.5-34,13.5-30.75,27.5-8.5,14.5,33,14.5,33l-2.5,9.5Z"/>
      <path class="cls-8" d="M199.75,217.94s8.5-26.5,1-37.75-25.5-4.75-18.25,24,8.25,30,8.25,30l8-3.5,1-12.75Z"/>
    </g>
    <g>
      <path class="cls-5" d="M377.66,313.88c0,28.54-10.06,54.73-26.85,75.22-2.25,2.76-4.63,5.42-7.13,7.97-21.56,22-51.61,35.65-84.85,35.65-.14,0-.28,0-.42,0-6.36,0-12.59-.53-18.68-1.53-56.56-9.12-99.73-58.17-99.73-117.3,0-3.76,.17-7.47,.52-11.14,.25-2.65,.58-5.27,.99-7.86,8.52-53.04,52.15-94.33,106.28-99.32,3.63-.34,7.31-.51,11.04-.51,15.74,0,30.77,3.06,44.52,8.62,43.57,17.63,74.31,60.33,74.31,110.21Z"/>
      <g>
        <path class="cls-12" d="M252.14,389.91c-5.2-1.42-10.51-3.1-15.9-5.08-28.19-10.33-48.26-24.21-62.51-38.27-.35-8.83,0-19.76-1.71-21.47-2.14-2.14-11.04-1.42-13.53-6.04-2.48-4.64-4.62-9.97-6.75-13.18-1.06-1.59-4.34-2.39-7.35-2.79-1.24-3.1-2.17-5.87-2.88-8.2,8.52-53.04,52.15-94.33,106.28-99.32-1.43,3.47-4.6,10.95-5.69,11.76-1.42,1.07-10.67,2.49-13.51,5.34-2.85,2.85-1.78,7.82-4.63,12.46-2.84,4.62-9.25,7.11-8.54,10.31s8.9,14.94,8.18,24.55c-.71,9.6-38.77,45.54-38.77,54.43s28.1,18.86,30.95,24.55c2.84,5.7-6.4,6.05,4.97,11.04,11.39,4.97,28.82,11.38,31.67,23.48,1.94,8.22,.91,12.99-.28,16.43Z"/>
        <path class="cls-12" d="M377.66,313.88c0,28.54-10.06,54.73-26.85,75.22-1.73,.52-3.51,1.03-5.34,1.51,2.89-10.57,6.57-24.9,6.57-29.23,0-7.11-2.84-13.16-7.47-18.5-4.62-5.34-4.27-19.93-6.04-19.93s-2.5,4.63-5.7,7.84c-3.2,3.2-13.51-1.43-15.3-1.07-1.78,.35-8.18,17.43-9.96,17.78-1.78,.36-9.25-3.55-11.03-4.62-1.77-1.07-6.04-25.26-5.34-29.17,.72-3.92,9.97-29.54,9.97-29.54,0,0,20.98-11.74,23.12-11.02,2.13,.7,16.37,5.34,16.37,5.34,0,0,.35-2.85-1.78-5.34-2.13-2.5-17.43-7.47-23.13-7.47s-18.85,15.64-21.35,15.64-17.08-1.41-17.08-1.41c0,0-4.26-7.83-4.26-8.9s6.76-5.33,6.76-5.33c0,0-.36-10.32,3.56-16.01,3.91-5.7,17.07-6.77,16.36-12.11-.7-5.33-12.09-11.02-14.58-12.81-2.5-1.77,0-13.16,.7-14.94,.61-1.51,13.7-5.12,17.49-6.14,43.57,17.63,74.31,60.33,74.31,110.21Z"/>
        <path class="cls-17" d="M345.46,390.61c-.65,2.4-1.26,4.61-1.78,6.46-21.56,22-51.61,35.65-84.85,35.65-.14,0-.28,0-.42,0-1.09-2.67-3.12-6.05-6.7-7.64-6.41-2.85-13.88-9.26-12.81-15.3,1.07-6.05,10.67-11.74,11.74-15.66,.34-1.25,.94-2.58,1.5-4.2,37.36,10.24,69.65,6.99,93.32,.7Z"/>
        <path class="cls-11" d="M258.41,432.71c-6.36,0-12.59-.53-18.68-1.53-1.63-5.72-5.47-16.19-12.57-19.99-9.96-5.34-25.62-6.4-32.37-12.81-6.76-6.4-14.95-11.39-16.02-20.99-1.06-9.61-3.55-16.01-4.62-24.9-.21-1.74-.33-3.77-.42-5.93,14.25,14.06,34.32,27.94,62.51,38.27,5.39,1.98,10.7,3.66,15.9,5.08-.56,1.62-1.16,2.95-1.5,4.2-1.07,3.92-10.67,9.61-11.74,15.66-1.07,6.04,6.4,12.45,12.81,15.3,3.58,1.59,5.61,4.97,6.7,7.64Z"/>
        <path class="cls-17" d="M239.73,431.18c-56.56-9.12-99.73-58.17-99.73-117.3,0-3.76,.17-7.47,.52-11.14,1.06,.05,2.43,.15,3.87,.34,4.57,11.49,13.24,27.6,29.34,43.48,.09,2.16,.21,4.19,.42,5.93,1.07,8.89,3.56,15.29,4.62,24.9,1.07,9.6,9.26,14.59,16.02,20.99,6.75,6.41,22.41,7.47,32.37,12.81,7.1,3.8,10.94,14.27,12.57,19.99Z"/>
        <path class="cls-11" d="M144.39,303.08c-1.44-.19-2.81-.29-3.87-.34,.25-2.65,.58-5.27,.99-7.86,.71,2.33,1.64,5.1,2.88,8.2Z"/>
      </g>
    </g>
    <g>
      <path class="cls-7" d="M212.95,374.53s-11.26-5.74-16.85-3.2c-5.59,2.54-3.99,11.08,9.42,9.93,13.41-1.15,14.05-1.51,14.05-1.51l-.98-3.84-5.64-1.38Z"/>
      <path class="cls-4" d="M219.57,380.59s-14.74-7.1-18.81-14.37c-4.06-7.27,5.3-14.3,12.24-4.58s7.45,14.57,7.45,14.57l-.88,4.37Z"/>
      <path class="cls-8" d="M223.24,372.82c1.47-4.03,3.15-12.24-.55-17.14-3.7-4.9-11.69-1.48-7.64,11.36,4.05,12.84,4.53,13.38,4.53,13.38,0,0,2.93-5.62,3.65-7.6Z"/>
    </g>
    <g>
      <path class="cls-7" d="M325.43,229.36s13.57-3.89,19.15,.08c5.59,3.98,2.01,13-12.45,8.88-14.46-4.12-15.08-4.65-15.08-4.65l1.9-4,6.48-.31Z"/>
      <path class="cls-4" d="M316.88,234.6s17.68-4.64,23.68-11.74c6.01-7.1-2.76-16.81-12.44-7.64-9.68,9.17-11.27,14.39-11.27,14.39l.03,4.98Z"/>
      <path class="cls-8" d="M314.51,225.3c-.75-4.73-.84-14.09,4.26-18.67,5.1-4.58,13.13,.87,5.95,14.09s-7.83,13.7-7.83,13.7c0,0-2.01-6.79-2.38-9.12Z"/>
    </g>
  </g>
  <g>
    <path class="cls-18" d="M348.4,290.26s-6.1-2.63-8.81-2.51c-2.71,.13-5.88,2.61-5.5,5.05,0,0-4.27,1.1-4.88,2.54-.61,1.45,.34,3.72,2.53,4.27,0,0,1.59,4.22,5.72,7.3s16.23-7.43,16.23-7.43l-5.28-9.23Z"/>
    <g>
      <path class="cls-18" d="M413.65,242.54l-9.24,37.51c-1.11,4.51-4.59,8.05-9.07,9.25l-25.94,6.93-18.17,4.86-4.92-11.22,16.15-6.29,27.71-10.8c.57-.22,.99-.71,1.11-1.3l6.61-32.48c.79-3.89,4.21-6.47,7.91-6.47,.99,0,2,.18,2.99,.58,3.75,1.49,5.82,5.52,4.86,9.43Z"/>
      <path class="cls-13" d="M413.65,242.54l-9.24,37.51c-1.11,4.51-4.59,8.05-9.07,9.25l-25.94,6.93-6.94-12.65,27.71-10.8c.57-.22,.99-.71,1.11-1.3l6.61-32.48c.79-3.89,4.21-6.47,7.91-6.47,.99,0,2,.18,2.99,.58,3.75,1.49,5.82,5.52,4.86,9.43Z"/>
      <path class="cls-5" d="M401.88,427.17s-.71,6.63-.71,7.48-17.91,9.73-16.08,11.85c1.83,2.12,28.64,.14,29.48-.56,.85-.71-.56-17.91-.56-17.91l-12.13-.85Z"/>
      <path class="cls-5" d="M444.62,427.32s-.71,6.63-.71,7.48-17.91,9.73-16.08,11.85,28.64,.14,29.48-.56c.85-.71-.56-17.91-.56-17.91l-12.13-.85Z"/>
      <path class="cls-10" d="M398.35,307.27s.85,113.84,.42,120.61l19.04,.42,6.35-104.53h3.81l14.39,104.95h15.23l-1.27-121.88-57.98,.42Z"/>
      <path class="cls-3" d="M429.19,221.87s17.58,2.09,22.2,10.08c8.32,14.39,4.83,75.33,4.83,75.33l-57.76,.53s2.22-68.24,3.7-72.68c1.48-4.44,16.6-12.32,27.03-13.25Z"/>
      <path class="cls-15" d="M408.13,187.79s-4.41,3.02-5.6,12.14c-1.2,9.12,2.68,18.19,5.41,19.75,2.73,1.56,7.19,1.41,7.19,1.41l.44,5.2c.21,2.49,2.84,4,5.1,2.94l6.26-2.94c1.77-.83,2.7-2.8,2.22-4.69l-2.42-9.62s3.33-10.09,1.27-16.59-10.84-13.06-19.89-7.6Z"/>
      <path class="cls-9" d="M418.13,184.23s-5.61-1.69-15.02,.21c-9.42,1.9-6.24,5.5-5.5,5.71,.74,.21-5.71,2.12-3.07,4.65,2.64,2.54,10.47,4.34,23.49,.11,0,0,0,4.02,2.33,5.4s1.38,4.34,2.54,5.29c1.16,.95,.63-5.92,2.12-6.77,1.48-.85,2.33,.63,2.54,4.44,.21,3.81-.85,6.67-1.59,6.88-.74,.21,.21,4.76,1.48,5.18,1.27,.42,9.63-21.16,1.38-24.97,0,0-2.01-5.29-10.69-6.14Z"/>
      <path class="cls-15" d="M449.61,240.89l-19.05,33.6c-2.29,4.04-6.6,6.51-11.24,6.45l-33.51-.45-12.14-.16-1.7-12.13,12.32-1.2,34.53-3.36c.61-.06,1.14-.42,1.42-.96l15.16-29.47c1.45-2.83,4.29-4.39,7.2-4.39,1.7,0,3.42,.54,4.9,1.67,3.2,2.45,4.1,6.89,2.11,10.4Z"/>
      <path class="cls-2" d="M362.37,264.81c-7.44-7.48-16.62-4.79-19.72-3.57l-1.69-3.45-30.61,11.12,6.88,26.17-19.39-2.74,.92-4.42-4.49-1.44-3.39,15.49,4.8,.78,1.08-5.21,23.82,10.3,1.78,6.78,39.46-14.34-2.6-5.29c6.07-4.69,14.32-18.96,3.15-30.19Zm-.83,11.13c1.81,5.67-2.8,10.03-5.72,12.13l-10.55-21.51c7.28-4.22,13.91,1.95,16.27,9.37Z"/>
      <path class="cls-15" d="M373.87,269.14s-5.16-4.19-7.81-4.8c-2.65-.61-6.37,.92-6.66,3.37,0,0-4.41-.1-5.39,1.12-.98,1.23-.69,3.68,1.27,4.8,0,0,.39,4.49,3.53,8.58,3.14,4.08,17.64-2.76,17.64-2.76l-2.58-10.31Z"/>
      <path class="cls-13" d="M449.61,240.89l-19.05,33.6c-2.29,4.04-6.6,6.51-11.24,6.45l-33.51-.45-1.52-13.49,34.53-3.36c.61-.06,1.14-.42,1.42-.96l15.16-29.47c1.45-2.83,4.29-4.39,7.2-4.39,1.7,0,3.42,.54,4.9,1.67,3.2,2.45,4.1,6.89,2.11,10.4Z"/>
      <path class="cls-13" d="M415.42,225.23s.33,3.62,5.75,1.88c5.42-1.75,7.87-6.21,7.87-6.21l2.12,1.62s-.8,4.17-8,6.58c-6.83,2.29-9.42-1.08-9.92-2.42l2.17-1.46Z"/>
      <path class="cls-2" d="M285,293.18s-30.76-1.03-26.75,10.49c2.97,8.53,26.75-10.49,26.75-10.49Z"/>
      <path class="cls-2" d="M286.77,298.21s-19.74,10.7-12.35,17.45c5.48,5,12.35-17.45,12.35-17.45Z"/>
      <path class="cls-2" d="M289.42,290.55s-16.71-15-20.58-5.77c-2.87,6.84,20.58,5.77,20.58,5.77Z"/>
    </g>
  </g>
  <g>
    <path class="cls-7" d="M331.14,439.9s-16.13-13.23-23.39-24.85c-8.71-13.93-8.57-27.67,6.92-22.31,15.49,5.36,16.47,47.15,16.47,47.15Z"/>
    <path class="cls-7" d="M324.17,437.85s15.53-13.92,28.12-19.33c15.09-6.48,28.65-4.25,20.99,10.24-7.66,14.49-49.11,9.09-49.11,9.09Z"/>
    <path class="cls-8" d="M335.38,441.18s-20.72-2.41-33.11-8.26c-14.85-7.01-22.16-18.65-6.23-22.51,15.93-3.86,39.35,30.77,39.35,30.77Z"/>
    <path class="cls-8" d="M332.31,438.12s13.18-40.1,35.91-35.58c22.74,4.52-35.91,35.58-35.91,35.58Z"/>
    <path class="cls-4" d="M330.34,440.94s35.26-44.05,21.42-59.3c-13.84-15.25-30.97,10.17-21.42,59.3Z"/>
    <path class="cls-5" d="M312.8,442.57h46.2s-4.57-8.19-11.49-6.95c-6.92,1.23-6.03,4.15-9.6,.78-3.57-3.36-12.05-3.7-14.17,.78s-4.02-2.58-11.27-.22-6.47,5.61-6.47,5.61h6.81Z"/>
  </g>
  <g>
    <path class="cls-9" d="M170.33,327.11s4.17-10.17,13.83-10.17,13.17,5.83,13.17,9c0,0-13.83,7.5-27,1.17Z"/>
    <path class="cls-5" d="M45.54,431.61s-1.66-.71-4.15,1.19c-2.49,1.9-3.79,11.03-2.85,13.4,.95,2.37-1.3,4.03-4.86,2.73-3.56-1.3-6.05-4.03-4.5-13.4s2.37-15.65,3.91-16.83c1.54-1.19,13.99,1.78,13.99,1.78l-1.54,11.14Z"/>
    <path class="cls-5" d="M139.9,435.17s-2.13,11.74-1.66,13.16c.47,1.42,13.99,1.07,19.44,.95,5.45-.12,13.28,.71,15.53-.95,2.25-1.66-15.65-9.37-18.49-10.43-2.85-1.07-2.02-3.91-2.02-3.91,0,0-11.03-.95-12.8,1.19Z"/>
    <path class="cls-14" d="M103.39,384.9s-8.18,41.26-14.23,45.88c-6.05,4.62-46.24,4.27-46.24,4.27l2.13-16.54,30.23-5.87-1.07-40.19,29.16,12.45Z"/>
    <path class="cls-15" d="M137.49,253.44s3.88,4.22,2.93,14.04c-.95,9.82-5.32,15.96-8.54,16.93-3.23,.97-8.12,.08-8.12,.08l-3.93,7.79-12.56-8.29,4.94-9.75s-1.05-11.35,2.67-17.65c3.73-6.3,15.69-14.53,22.62-3.14Z"/>
    <path class="cls-13" d="M110.15,278.56s-14.46,1.19-30.59,22.05c-16.12,20.87-22.29,48.84-22.29,48.84l53.82,15.89,12.33-78.48-13.28-8.3Z"/>
    <path class="cls-10" d="M57.27,349.45s-9.01,31.18,25.84,39c34.85,7.82,55.48,1.07,55.48,1.07,0,0-2.13,30.11-1.66,46.24h20.51s7.2-54.17,2.13-57.97c-25.61-19.21-102.31-28.33-102.31-28.33Z"/>
    <path class="cls-15" d="M177.01,337.95s-8.64-.36-19.1-1.36c-12.6-1.2-27.87-3.32-33.89-6.82-7.23-4.2-17.2-17.56-23.22-26.26-2.96-4.28-1.83-10.15,2.5-13.04,4.45-2.97,10.46-1.59,13.18,3.01,4.95,8.39,12.33,20.29,15.71,22.78,3.17,2.33,17.63,5.78,28.85,8.19,7.68,1.66,13.83,2.83,13.83,2.83l2.13,10.67Z"/>
    <path class="cls-15" d="M173.45,327.88s5.69-4.03,8.42-4.74c2.73-.71,6.88-1.19,7.82,.47,.95,1.66-5.22,2.02-5.22,3.08s8.42,.47,10.43-1.3c2.02-1.78,4.98-1.3,4.62,.71-.36,2.02-3.91,3.44-3.91,3.44,0,0,.12,4.5-1.66,5.81s-2.13,3.32-5.1,4.74c-2.96,1.42-12.45-2.49-12.45-2.49l-2.96-9.72Z"/>
    <path class="cls-9" d="M130.42,245.6s14.23,3.68,18.26,10.31c4.03,6.64-2.61,5.57-2.61,5.57,0,0,0,2.37-4.03,2.85-4.03,.47-11.26-3.56-11.26-3.56,0,0-.47,5.1-3.44,5.81-2.96,.71-1.9,4.15-4.03,4.03-2.13-.12,2.61-8.65-1.3-8.89-3.91-.24-5.45,4.15-3.91,7.59,1.54,3.44-3.37,5.94-5.89,4.92s-3.59-15.95,.79-20.81c4.39-4.86,6.05-4.74,6.05-4.74,0,0,3.02-3.32,11.38-3.08Z"/>
    <path class="cls-3" d="M157.91,336.59c-12.6-1.2-27.87-3.32-33.89-6.82-7.23-4.2-17.2-17.56-23.22-26.26-2.96-4.28-1.83-10.15,2.5-13.04,4.45-2.97,10.46-1.59,13.18,3.01,4.95,8.39,12.33,20.29,15.71,22.78,3.17,2.33,17.63,5.78,28.85,8.19,.1,1.75,.13,7.36-3.14,12.14Z"/>
    <path class="cls-4" d="M179.38,306.44s-3.62,3.5-7.12,2-1-5.25-1-5.25c0,0-9.37,1-8.5-4.5s4.87-5.25,4.87-5.25c0,0-5.62-4.12-1.62-8.12s8,.5,8,.5c0,0-1.75-5.88,3.75-8s6.5,4.12,6.5,4.12c0,0,1.25-4.38,6.37-3.62s2.12,9.88,2.12,9.88c0,0,3.75-2.75,6.37,.38s-3.37,8.38-3.37,8.38c0,0,4.62,.62,4.25,4.75s-7.5,2.5-7.5,2.5c0,0,3,3.62-.5,5.12s-8.5-2.5-8.5-2.5l-4.12-.38Z"/>
    <path class="cls-8" d="M179.5,319.94s.5-11.17-3-17c-3.5-5.83-5.83-9.5-2.83-8.67,3,.83,5.83,5.83,5.83,5.83,0,0,1.33-11.67,5.5-12.17s0,9.17-.67,12.83c0,0,7.17-5,8.33-2,1.17,3-5.67,5.67-6.67,7.67s.33,12,.33,12l-6.83,1.5Z"/>
  </g>
</svg>