<svg xmlns="http://www.w3.org/2000/svg" xmlns:xlink="http://www.w3.org/1999/xlink" viewBox="0 0 1080 820"><defs><style>.cls-1{isolation:isolate;}.cls-2{fill:#e3ffee;}.cls-3{fill:#312e49;}.cls-4{fill:#4e4ea0;}.cls-5,.cls-53,.cls-59{fill:#92e3a9;}.cls-6{fill:url(#linear-gradient);}.cls-7{fill:#725a72;}.cls-18,.cls-47,.cls-66,.cls-7,.cls-72,.cls-76,.cls-83,.cls-84{opacity:0.5;}.cls-15,.cls-20,.cls-27,.cls-47,.cls-52,.cls-60,.cls-63,.cls-66,.cls-67,.cls-7,.cls-71,.cls-75{mix-blend-mode:multiply;}.cls-8{fill:#cbc5e2;}.cls-9{fill:#989eb7;}.cls-10,.cls-66{fill:#59d4ab;}.cls-11{fill:#b74a2c;}.cls-12{fill:#70b4f2;}.cls-13,.cls-18,.cls-74{fill:#ffe7f4;}.cls-14,.cls-76{fill:#8e5ed1;}.cls-15,.cls-20,.cls-68,.cls-75{fill:#9c15bc;}.cls-15,.cls-63,.cls-67{opacity:0.2;}.cls-16{fill:#ea2d3f;}.cls-17{fill:#b71c32;}.cls-19{fill:#ffde8b;}.cls-20{opacity:0.35;}.cls-21,.cls-70{fill:#ffcb59;}.cls-22{fill:#fb844c;}.cls-23{fill:#3f8bc4;}.cls-24{fill:#413751;}.cls-25{fill:#41386b;}.cls-26{fill:#d15e4c;}.cls-27{fill:#bf4813;}.cls-27,.cls-52,.cls-53,.cls-75,.cls-93{opacity:0.25;}.cls-28{fill:#f55;}.cls-29{fill:#447393;}.cls-30{fill:#2b7fb2;}.cls-31{fill:#ffdf57;}.cls-32{fill:#8ac9f9;}.cls-33{fill:#71eabe;}.cls-34{fill:#325d75;}.cls-35{fill:#2b2651;}.cls-36{fill:#ff952c;}.cls-37{fill:#fff489;}.cls-38{fill:#87c696;}.cls-39{fill:url(#linear-gradient-2);}.cls-40{fill:#fcf7f8;}.cls-41,.cls-42,.cls-43,.cls-55{opacity:0.3;}.cls-41,.cls-42,.cls-43,.cls-44,.cls-55,.cls-57,.cls-74,.cls-83,.cls-84,.cls-85,.cls-86,.cls-93{mix-blend-mode:screen;}.cls-41{fill:url(#linear-gradient-3);}.cls-42{fill:url(#linear-gradient-4);}.cls-43{fill:url(#linear-gradient-5);}.cls-44{fill:#ff7752;}.cls-44,.cls-74,.cls-85,.cls-86{opacity:0.8;}.cls-45{fill:#4d7a59;}.cls-46{fill:#991737;}.cls-47,.cls-52,.cls-60{fill:#862489;}.cls-48{fill:#659973;}.cls-49{fill:#9fffb8;}.cls-50{fill:#a6ffbd;}.cls-51{fill:url(#linear-gradient-6);}.cls-53,.cls-59{mix-blend-mode:hard-light;}.cls-54{fill:url(#linear-gradient-7);}.cls-55,.cls-57,.cls-61,.cls-72,.cls-93,.cls-99{fill:#fff;}.cls-56{fill:#5b3454;}.cls-57{opacity:0.15;}.cls-58{fill:url(#linear-gradient-8);}.cls-60{opacity:0.45;}.cls-62{fill:#d8afd0;}.cls-63{fill:#bea3c9;}.cls-64{fill:#aa88ea;}.cls-65{fill:#7cc3f7;}.cls-69{fill:#4a7dba;}.cls-70,.cls-72,.cls-76{mix-blend-mode:color-dodge;}.cls-71{fill:#5696e2;opacity:0.05;}.cls-73{fill:#ff6e2e;}.cls-77{fill:#5b3354;}.cls-78{fill:url(#linear-gradient-9);}.cls-79{fill:#d3b3e2;}.cls-80{fill:#b797cc;}.cls-81{fill:#3f233d;}.cls-82{fill:url(#linear-gradient-10);}.cls-83{fill:url(#linear-gradient-11);}.cls-84{fill:url(#linear-gradient-12);}.cls-85{fill:url(#radial-gradient);}.cls-86{fill:url(#radial-gradient-2);}.cls-87{fill:#683c5f;}.cls-87,.cls-88{fill-rule:evenodd;}.cls-88{fill:#51304c;}.cls-89{fill:#ffffbd;}.cls-90{fill:#66a376;}.cls-91{fill:#ffef9f;}.cls-92{fill:#74b585;}.cls-94{fill:#75e6a4;}.cls-100,.cls-94,.cls-96,.cls-97,.cls-98,.cls-99{stroke:#233239;stroke-linecap:round;stroke-linejoin:round;}.cls-95,.cls-98{fill:#233239;}.cls-96,.cls-97{fill:none;}.cls-97{stroke-width:2px;}.cls-100{fill:#c9c9c9;}</style><linearGradient id="linear-gradient" x1="-240.62" y1="633.89" x2="-240.62" y2="201.58" gradientTransform="matrix(-1, 0, 0, 1, 420.43, 0)" gradientUnits="userSpaceOnUse"><stop offset="0" stop-color="#6d65ed"/><stop offset="0.96" stop-color="#e8deff"/></linearGradient><linearGradient id="linear-gradient-2" x1="-517.94" y1="800.38" x2="-517.94" y2="107.86" xlink:href="#linear-gradient"/><linearGradient id="linear-gradient-3" x1="111.42" y1="182.66" x2="0.17" y2="579.37" gradientTransform="matrix(-1, 0, 0, 1, 1078.77, 0)" gradientUnits="userSpaceOnUse"><stop offset="0" stop-color="#4e4ea0"/><stop offset="1" stop-color="#202042"/></linearGradient><linearGradient id="linear-gradient-4" x1="166.5" y1="198.11" x2="55.26" y2="594.81" xlink:href="#linear-gradient-3"/><linearGradient id="linear-gradient-5" x1="214.52" y1="689.66" x2="179.1" y2="754.21" xlink:href="#linear-gradient-3"/><linearGradient id="linear-gradient-6" x1="465.99" y1="705.05" x2="465.99" y2="627.87" gradientTransform="matrix(-1, 0, 0, 1, 1078.77, 0)" gradientUnits="userSpaceOnUse"><stop offset="0" stop-color="#6e4467"/><stop offset="0.92" stop-color="#825f82"/></linearGradient><linearGradient id="linear-gradient-7" x1="608.61" y1="718.28" x2="608.61" y2="624.58" xlink:href="#linear-gradient-6"/><linearGradient id="linear-gradient-8" x1="897.34" y1="590.72" x2="897.34" y2="224.55" gradientTransform="matrix(-1, 0, 0, 1, 1078.77, 0)" gradientUnits="userSpaceOnUse"><stop offset="0.08" stop-color="#683c5f"/><stop offset="1" stop-color="#825f82"/></linearGradient><linearGradient id="linear-gradient-9" x1="2106.82" y1="444.76" x2="2106.82" y2="399.72" gradientTransform="translate(-1932.57)" gradientUnits="userSpaceOnUse"><stop offset="0" stop-color="#b2b1c9"/><stop offset="0.61" stop-color="#eee8fa"/><stop offset="1" stop-color="#b2b1c9"/></linearGradient><linearGradient id="linear-gradient-10" x1="822.9" y1="444.76" x2="822.9" y2="399.72" gradientTransform="matrix(1, 0, 0, -1, -631.74, 844.49)" xlink:href="#linear-gradient-9"/><linearGradient id="linear-gradient-11" x1="792.31" y1="267" x2="905.44" y2="474.28" gradientTransform="matrix(-1, 0, 0, 1, 1078.77, 0)" gradientUnits="userSpaceOnUse"><stop offset="0.08" stop-color="#fff"/><stop offset="1"/></linearGradient><linearGradient id="linear-gradient-12" x1="912.19" y1="375.45" x2="1041.08" y2="375.45" xlink:href="#linear-gradient-11"/><radialGradient id="radial-gradient" cx="811.02" cy="-3007.06" r="83.76" gradientTransform="matrix(1.01, 0, 0, -1.72, -548.35, -4750.11)" gradientUnits="userSpaceOnUse"><stop offset="0.74"/><stop offset="1" stop-color="#fff"/></radialGradient><radialGradient id="radial-gradient-2" cx="975.5" cy="-3007.06" r="83.76" gradientTransform="matrix(1.01, 0, 0, -1.72, -879.44, -4750.11)" xlink:href="#radial-gradient"/></defs><g class="cls-1"><g id="Layer_1" data-name="Layer 1"><path class="cls-2" d="M71.12,457.94c-6.77-34.83-15.2-65-8.66-101.69,5.25-29.48,11.84-59.69,24.75-87.9,39.42-86.15,152.75-70.78,232.48-133,36.82-28.74,96.48,23.35,148.65,49.95,159.42,81.29,194.28-69.5,268.89,15.49,15.67,17.85,34.11,32.3,55,44.42,1.41-1.35,1.68-4,.49-8-10.54-36.06,48.36-9.34,58.62-1.65C984.05,335,1024.62,549.83,889.19,677c-55.61,52.22-130.21,61.15-203.87,88-67,24.47-132.61,51.26-196.64,23.64-55.44-23.91-18.52-100.25-112.85-109.42C340.34,680.46,340.29,719,338.21,737c-2.81,24.14-96.62,42.31-120.33-50C189.79,577.67,86.6,537.57,71.12,457.94Z"/><polygon class="cls-3" points="744.33 201.58 744.33 633.89 1069.28 800.38 1069.28 107.86 744.33 201.58"/><polygon class="cls-4" points="744.33 633.89 744.33 201.58 701.66 201.58 678.27 224.93 628.87 633.89 744.33 633.89"/><polygon class="cls-5" points="744.97 633.8 744.97 201.48 702.3 201.48 678.91 224.84 629.51 633.8 744.97 633.8"/><polygon class="cls-6" points="628.87 633.89 620.44 628.79 671.15 226.32 695.25 202.94 701.66 201.58 678.27 224.93 628.87 633.89"/><polygon class="cls-5" points="628.78 634.88 620.35 629.78 671.06 227.31 695.16 203.93 701.57 202.56 678.18 225.92 628.78 634.88"/><polygon class="cls-7" points="680.79 269.67 744.33 298.58 744.33 269 680.79 269.67"/><polygon class="cls-8" points="744.33 612.36 640.75 614.7 879.23 754.21 1040.45 754.21 744.33 612.36"/><polygon class="cls-9" points="640.75 614.7 637.9 630.49 879.23 780.63 883.79 756.87 640.75 614.7"/><polygon class="cls-7" points="649.88 529.73 744.33 593.04 744.33 567.26 649.88 529.73"/><polygon class="cls-8" points="744.33 513.5 652.15 513.5 897.33 603.4 1044.34 603.4 744.33 513.5"/><polygon class="cls-9" points="652.15 513.5 649.88 529.73 899.18 628.79 903.06 605.5 652.15 513.5"/><path class="cls-10" d="M716.45,206.21c4.48,0,8.11,1.35,8.11,3V257H708.34V209.23C708.34,207.56,712,206.21,716.45,206.21Z"/><path class="cls-11" d="M716.45,206.21c4.48,0,8.11,1.35,8.11,3v4.13c0-1.66-3.63-3-8.11-3s-8.11,1.35-8.11,3v-4.13C708.34,207.56,712,206.21,716.45,206.21Z"/><path class="cls-12" d="M716.45,216.71c4.48,0,8.11,1.35,8.11,3V241c0-1.66-8.11-1.63-8.11-1.63s-8.11,0-8.11,1.63V219.73C708.34,218.06,712,216.71,716.45,216.71Z"/><path class="cls-13" d="M716.45,214.76c4.48,0,8.11,1.35,8.11,3v4.14c0-1.66-3.63-3-8.11-3s-8.11,1.35-8.11,3v-4.14C708.34,216.11,712,214.76,716.45,214.76Z"/><path class="cls-14" d="M716.45,218.33c4.48,0,8.11,1.35,8.11,3v4.14c0-1.67-3.63-3-8.11-3s-8.11,1.35-8.11,3v-4.14C708.34,219.68,712,218.33,716.45,218.33Z"/><path class="cls-13" d="M716.45,237.13c4.48,0,8.11,1,8.11,2.11v2.9c0-1.17-3.63-2.11-8.11-2.11s-8.11.94-8.11,2.11v-2.9C708.34,238.08,712,237.13,716.45,237.13Z"/><path class="cls-15" d="M724.56,209.23V257h-5.09l.68-50.42C722.77,207.05,724.56,208.06,724.56,209.23Z"/><path class="cls-10" d="M730.86,202.23c4.52,0,8.19,1.36,8.19,3.05v48.24H722.66V205.28C722.66,203.59,726.33,202.23,730.86,202.23Z"/><path class="cls-11" d="M730.86,202.23c4.52,0,8.19,1.36,8.19,3.05v4.18c0-1.69-3.67-3.05-8.19-3.05s-8.2,1.36-8.2,3.05v-4.18C722.66,203.59,726.33,202.23,730.86,202.23Z"/><path class="cls-12" d="M730.86,212.84c4.52,0,8.19,1.37,8.19,3v21.45c0-1.68-8.19-1.65-8.19-1.65s-8.2,0-8.2,1.65V215.89C722.66,214.21,726.33,212.84,730.86,212.84Z"/><path class="cls-13" d="M730.86,210.87c4.52,0,8.19,1.36,8.19,3v4.18c0-1.68-3.67-3-8.19-3s-8.2,1.36-8.2,3v-4.18C722.66,212.23,726.33,210.87,730.86,210.87Z"/><path class="cls-14" d="M730.86,214.48c4.52,0,8.19,1.36,8.19,3v4.19c0-1.69-3.67-3.05-8.19-3.05s-8.2,1.36-8.2,3.05v-4.19C722.66,215.84,726.33,214.48,730.86,214.48Z"/><path class="cls-13" d="M730.86,233.48c4.52,0,8.19,1,8.19,2.13v2.92c0-1.18-3.67-2.13-8.19-2.13s-8.2.95-8.2,2.13v-2.92C722.66,234.43,726.33,233.48,730.86,233.48Z"/><path class="cls-15" d="M739.05,205.28v48.24h-5.14l.68-51C737.24,203.07,739.05,204.09,739.05,205.28Z"/><path class="cls-10" d="M745.2,197.73c4.71,0,8.53,1.42,8.53,3.17v50.23H736.67V200.9C736.67,199.15,740.49,197.73,745.2,197.73Z"/><path class="cls-11" d="M745.2,197.73c4.71,0,8.53,1.42,8.53,3.17v4.35c0-1.75-3.82-3.17-8.53-3.17s-8.53,1.42-8.53,3.17V200.9C736.67,199.15,740.49,197.73,745.2,197.73Z"/><path class="cls-12" d="M745.2,208.78c4.71,0,8.53,1.42,8.53,3.17v22.34c0-1.75-8.53-1.72-8.53-1.72s-8.53,0-8.53,1.72V212C736.67,210.2,740.49,208.78,745.2,208.78Z"/><path class="cls-13" d="M745.2,206.72c4.71,0,8.53,1.42,8.53,3.17v4.35c0-1.75-3.82-3.17-8.53-3.17s-8.53,1.42-8.53,3.17v-4.35C736.67,208.14,740.49,206.72,745.2,206.72Z"/><path class="cls-14" d="M745.2,210.48c4.71,0,8.53,1.42,8.53,3.17V218c0-1.76-3.82-3.18-8.53-3.18s-8.53,1.42-8.53,3.18v-4.36C736.67,211.9,740.49,210.48,745.2,210.48Z"/><path class="cls-13" d="M745.2,230.26c4.71,0,8.53,1,8.53,2.22v3c0-1.22-3.82-2.21-8.53-2.21s-8.53,1-8.53,2.21v-3C736.67,231.25,740.49,230.26,745.2,230.26Z"/><path class="cls-15" d="M753.73,200.9v50.23h-5.35l.71-53C751.85,198.61,753.73,199.67,753.73,200.9Z"/><path class="cls-10" d="M759.85,193.23c4.85,0,8.78,1.46,8.78,3.26v51.74H751.06V196.49C751.06,194.69,755,193.23,759.85,193.23Z"/><path class="cls-11" d="M759.85,193.23c4.85,0,8.78,1.46,8.78,3.26V201c0-1.81-3.93-3.27-8.78-3.27s-8.79,1.46-8.79,3.27v-4.49C751.06,194.69,755,193.23,759.85,193.23Z"/><path class="cls-12" d="M759.85,204.61c4.85,0,8.78,1.46,8.78,3.26v23c0-1.8-8.78-1.77-8.78-1.77s-8.79,0-8.79,1.77v-23C751.06,206.07,755,204.61,759.85,204.61Z"/><path class="cls-13" d="M759.85,202.49c4.85,0,8.78,1.46,8.78,3.27v4.48c0-1.81-3.93-3.27-8.78-3.27s-8.79,1.46-8.79,3.27v-4.48C751.06,204,755,202.49,759.85,202.49Z"/><path class="cls-14" d="M759.85,206.36c4.85,0,8.78,1.47,8.78,3.27v4.48c0-1.8-3.93-3.26-8.78-3.26s-8.79,1.46-8.79,3.26v-4.48C751.06,207.83,755,206.36,759.85,206.36Z"/><path class="cls-13" d="M759.85,226.74c4.85,0,8.78,1,8.78,2.28v3.14c0-1.27-3.93-2.29-8.78-2.29s-8.79,1-8.79,2.29V229C751.06,227.76,755,226.74,759.85,226.74Z"/><path class="cls-15" d="M768.63,196.49v51.74h-5.51l.73-54.64C766.69,194.13,768.63,195.23,768.63,196.49Z"/><polygon class="cls-16" points="789.53 200.36 766.38 206.47 767.35 242.82 788.56 238.84 789.53 200.36"/><polygon class="cls-17" points="789.53 200.36 799.95 204.48 798.83 237.92 788.56 238.84 789.53 200.36"/><polygon class="cls-18" points="785.32 201.47 785.32 239.44 782.68 239.94 782.43 202.23 785.32 201.47"/><polygon class="cls-18" points="777.95 203.41 778.66 240.69 776.14 241.17 774.59 204.3 777.95 203.41"/><path class="cls-18" d="M770.42,205.4c-.1,0,2,36.47,2,36.47l-2.5.47-2.26-36.2Z"/><polygon class="cls-19" points="783.88 214.11 769.54 217.37 770.5 230.26 783.88 227.55 783.88 214.11"/><polygon class="cls-20" points="789.53 200.36 795.13 209.79 799.95 204.48 799.95 205.4 795.13 210.87 789.48 202.57 789.53 200.36"/><polygon class="cls-16" points="820.63 191.87 796.24 198.3 797.27 236.59 819.61 232.39 820.63 191.87"/><polygon class="cls-17" points="820.63 191.87 831.61 196.21 830.42 231.43 819.61 232.39 820.63 191.87"/><polygon class="cls-18" points="816.2 193.04 816.2 233.03 813.42 233.56 813.15 193.84 816.2 193.04"/><polygon class="cls-18" points="808.44 195.08 809.18 234.35 806.53 234.85 804.89 196.02 808.44 195.08"/><path class="cls-18" d="M800.51,197.17c-.11,0,2,38.42,2,38.42l-2.62.5L797.55,198Z"/><polygon class="cls-19" points="814.67 206.35 799.58 209.79 800.58 223.36 814.67 220.51 814.67 206.35"/><polygon class="cls-20" points="820.63 191.87 826.53 201.8 831.61 196.21 831.61 197.18 826.53 202.94 820.57 194.19 820.63 191.87"/><polygon class="cls-16" points="852.6 183.27 826.65 190.12 827.75 230.85 851.51 226.39 852.6 183.27"/><polygon class="cls-17" points="852.6 183.27 864.28 187.9 863.02 225.36 851.51 226.39 852.6 183.27"/><polygon class="cls-18" points="847.88 184.52 847.88 227.07 844.93 227.63 844.64 185.37 847.88 184.52"/><polygon class="cls-18" points="839.63 186.7 840.42 228.47 837.6 229 835.86 187.69 839.63 186.7"/><path class="cls-18" d="M831.19,188.92c-.11,0,2.19,40.87,2.19,40.87l-2.8.53-2.53-40.57Z"/><polygon class="cls-19" points="846.26 198.69 830.21 202.34 831.27 216.78 846.26 213.74 846.26 198.69"/><polygon class="cls-20" points="852.6 183.27 858.88 193.84 864.28 187.9 864.28 188.92 858.88 195.05 852.54 185.75 852.6 183.27"/><polygon class="cls-21" points="860.26 225.6 859.54 172.96 898.66 162.49 901.78 217.75 860.26 225.6"/><polygon class="cls-22" points="898.66 162.49 908.55 162.49 909.96 216.14 901.78 217.75 898.66 162.49"/><polygon class="cls-12" points="898.66 162.49 859.54 172.96 859.61 178.09 899.29 173.71 898.66 162.49"/><path class="cls-12" d="M901.22,207.85S860,203.41,860,203.41l.3,22.19,41.52-7.85Z"/><polygon class="cls-23" points="899.29 173.71 908.81 176.38 908.55 162.49 898.66 162.49 899.29 173.71"/><polygon class="cls-23" points="901.22 207.85 909.7 209.18 909.96 216.14 901.78 217.75 901.22 207.85"/><polygon class="cls-21" points="907.57 216.07 906.8 159.81 948.62 148.62 951.95 207.68 907.57 216.07"/><polygon class="cls-22" points="948.62 148.62 958.8 148.62 960.7 205.96 951.95 207.68 948.62 148.62"/><polygon class="cls-12" points="948.62 148.62 906.8 159.81 906.88 165.29 949.29 160.61 948.62 148.62"/><path class="cls-12" d="M951.35,197.1s-44.1-4.74-44.1-4.74l.32,23.71L952,207.68Z"/><polygon class="cls-23" points="949.29 160.61 959.13 163.55 958.8 148.62 948.62 148.62 949.29 160.61"/><polygon class="cls-23" points="951.35 197.1 960.41 198.52 960.7 205.96 951.95 207.68 951.35 197.1"/><polygon class="cls-8" points="744.33 420.52 662.87 420.39 914.13 461.13 1040.45 461.13 744.33 420.52"/><polygon class="cls-9" points="662.87 420.39 661.05 437.1 915.44 488.65 918.82 461.89 662.87 420.39"/><polygon class="cls-9" points="680.79 269.67 682.27 257.23 954.03 203.51 949.65 228.15 680.79 269.67"/><polygon class="cls-24" points="680.79 269.67 744.33 269 948.78 239.24 949.65 228.15 680.79 269.67"/><path class="cls-13" d="M721.77,279.26c8.28,0,15,1.34,15,3V330h-30V282.27C706.76,280.6,713.48,279.26,721.77,279.26Z"/><path class="cls-25" d="M721.77,279.26c8.28,0,15,1.34,15,3v4.14c0-1.67-6.72-3-15-3s-15,1.35-15,3v-4.14C706.76,280.6,713.48,279.26,721.77,279.26Z"/><path class="cls-12" d="M721.77,291.32c1.52,0,3,0,4.37.13L724.76,316c-1.39-.08-18-.2-18,1.47V294.33C706.76,292.67,713.48,291.32,721.77,291.32Z"/><path class="cls-15" d="M736.77,282.27V330h-9.41l1.25-50.42C733.45,280.09,736.77,281.1,736.77,282.27Z"/><path class="cls-13" d="M750.61,275.19c8.94,0,16.2,1.46,16.2,3.26V330H734.4V278.45C734.4,276.65,741.66,275.19,750.61,275.19Z"/><path class="cls-25" d="M750.61,275.19c8.94,0,16.2,1.46,16.2,3.26v4.46c0-1.79-7.26-3.25-16.2-3.25s-16.21,1.46-16.21,3.25v-4.46C734.4,276.65,741.66,275.19,750.61,275.19Z"/><path class="cls-12" d="M750.61,288.22c1.64,0,3.22,0,4.72.14l-1.5,26.52c-1.49-.09-19.43-.21-19.43,1.58v-25C734.4,289.68,741.66,288.22,750.61,288.22Z"/><path class="cls-15" d="M766.81,278.45V330H756.64L758,275.55C763.22,276.09,766.81,277.18,766.81,278.45Z"/><path class="cls-13" d="M780.19,270.46c9.72,0,17.6,1.59,17.6,3.54v56h-35.2V274C762.59,272.05,770.47,270.46,780.19,270.46Z"/><path class="cls-25" d="M780.19,270.46c9.72,0,17.6,1.59,17.6,3.54v4.85c0-2-7.88-3.53-17.6-3.53s-17.6,1.58-17.6,3.53V274C762.59,272.05,770.47,270.46,780.19,270.46Z"/><path class="cls-12" d="M780.19,284.62c1.78,0,3.51.05,5.13.15l-1.62,28.81c-1.63-.1-21.11-.24-21.11,1.72V288.15C762.59,286.2,770.47,284.62,780.19,284.62Z"/><path class="cls-15" d="M797.79,274v56h-11l1.46-59.16C793.89,271.44,797.79,272.63,797.79,274Z"/><path class="cls-13" d="M812,265.64c10.51,0,19,1.72,19,3.83V330H793V269.47C793,267.36,801.52,265.64,812,265.64Z"/><path class="cls-25" d="M812,265.64c10.51,0,19,1.72,19,3.83v5.24c0-2.11-8.52-3.82-19-3.82s-19,1.71-19,3.82v-5.24C793,267.36,801.52,265.64,812,265.64Z"/><path class="cls-12" d="M812,280.94c1.93,0,3.8.06,5.55.17l-1.75,31.14c-1.76-.11-22.82-.26-22.82,1.85V284.76C793,282.65,801.52,280.94,812,280.94Z"/><path class="cls-15" d="M831.05,269.47V330H819.11l1.59-63.94C826.84,266.7,831.05,268,831.05,269.47Z"/><polygon class="cls-21" points="825.08 326.29 828.87 278.1 872.01 272.46 868.31 324.06 825.08 326.29"/><polygon class="cls-26" points="872.01 272.46 881.39 273.92 885.24 323.32 868.31 324.06 872.01 272.46"/><polygon class="cls-26" points="872.01 272.46 861.6 285.56 835.59 287.37 828.87 278.1 835.41 289.19 862.69 287.37 872.01 272.46"/><polygon class="cls-19" points="866.6 292.62 831.82 294.53 831 306.13 865.65 304.3 866.6 292.62"/><polygon class="cls-21" points="876.28 326.29 880.63 270.94 930.19 264.46 925.94 323.73 876.28 326.29"/><polygon class="cls-26" points="930.19 264.46 940.96 266.13 945.38 322.88 925.94 323.73 930.19 264.46"/><polygon class="cls-26" points="930.19 264.46 918.22 279.5 888.35 281.59 880.63 270.94 888.14 283.68 919.48 281.59 930.19 264.46"/><polygon class="cls-19" points="923.97 287.62 884.02 289.81 883.08 303.13 922.88 301.03 923.97 287.62"/><polygon class="cls-9" points="671.5 347.86 673.57 330.44 938.37 316.09 935.65 345.2 671.5 347.86"/><polygon class="cls-7" points="671.5 347.86 744.33 380.46 744.33 347.13 671.5 347.86"/><polygon class="cls-7" points="661.05 437.1 744.33 483.72 744.33 453.97 661.05 437.1"/><path class="cls-16" d="M728.61,381.75V421c0,1.17-7.06,2.12-15.77,2.12s-15.76-.95-15.76-2.12V381.75Z"/><path class="cls-25" d="M728.61,390.51c0,1.06-7.06,1.93-15.77,1.93s-15.76-.87-15.76-1.93v-4.38c0,1.06,7.06,1.92,15.76,1.92s15.77-.86,15.77-1.92Z"/><path class="cls-25" d="M728.61,416.8c0,1.06-7.06,1.92-15.77,1.92s-15.76-.86-15.76-1.92V403.36c0,1.06,7.06,1.93,15.76,1.93s15.77-.87,15.77-1.93Z"/><path class="cls-27" d="M728.61,381.75V421c0,.84-4.84,1.72-10.79,2l1.83-40-.62-1.25Z"/><ellipse class="cls-28" cx="712.84" cy="381.75" rx="15.76" ry="1.25"/><path class="cls-16" d="M760,382.84V425c0,1.25-7.58,2.27-16.92,2.27s-16.91-1-16.91-2.27V382.84Z"/><path class="cls-25" d="M760,392.24c0,1.14-7.58,2.07-16.92,2.07s-16.91-.93-16.91-2.07v-4.7c0,1.14,7.57,2.07,16.91,2.07s16.92-.93,16.92-2.07Z"/><path class="cls-25" d="M760,420.45c0,1.14-7.58,2.06-16.92,2.06s-16.91-.92-16.91-2.06V406c0,1.14,7.57,2.07,16.91,2.07S760,407.17,760,406Z"/><path class="cls-27" d="M760,382.84V425c0,.9-5.36,1.65-11.58,2.15l2-43-.67-1.34Z"/><ellipse class="cls-28" cx="743.05" cy="382.84" rx="16.91" ry="1.34"/><path class="cls-16" d="M793.13,384.43v44.85c0,1.33-8.06,2.42-18,2.42s-18-1.09-18-2.42V384.43Z"/><path class="cls-25" d="M793.13,394.43c0,1.21-8.06,2.2-18,2.2s-18-1-18-2.2v-5c0,1.21,8.06,2.2,18,2.2s18-1,18-2.2Z"/><path class="cls-25" d="M793.13,424.44c0,1.21-8.06,2.2-18,2.2s-18-1-18-2.2V409.1c0,1.22,8.06,2.2,18,2.2s18-1,18-2.2Z"/><path class="cls-27" d="M793.13,384.43v44.85c0,1-5.81,2.06-12.31,2.29l2.09-45.71-.71-1.43Z"/><path class="cls-28" d="M757.14,384.43c0,.79,8.06,1.43,18,1.43s18-.64,18-1.43-8.06-1.43-18-1.43S757.14,383.64,757.14,384.43Z"/><polygon class="cls-10" points="793.07 433.7 790.82 365.31 827.7 365.31 826.64 439.25 793.07 433.7"/><polygon class="cls-29" points="826.64 439.25 839.91 436.68 842.25 365.31 827.7 365.31 826.64 439.25"/><path class="cls-19" d="M796.13,394.21c.3,11.19,5.84,20,12.37,20s11.87-8.83,11.93-20c.06-11.54-5.48-21.15-12.38-21.15S795.82,382.67,796.13,394.21Z"/><polygon class="cls-19" points="820.27 424.44 796.86 421.23 797 426.4 820.25 429.64 820.27 424.44"/><polygon class="cls-10" points="832.86 441.09 830.61 364.37 872.01 364.37 870.96 447.39 832.86 441.09"/><polygon class="cls-29" points="870.96 447.39 886 444.47 888.36 364.37 872.01 364.37 870.96 447.39"/><path class="cls-19" d="M836.47,396.6c.31,12.56,6.53,22.5,13.92,22.5s13.42-9.94,13.48-22.5c.06-12.9-6.17-23.62-13.93-23.62S836.16,383.7,836.47,396.6Z"/><polygon class="cls-19" points="863.72 430.62 837.21 426.98 837.35 432.83 863.69 436.49 863.72 430.62"/><polygon class="cls-10" points="877.42 449.05 874.93 364.37 920.63 364.37 919.47 456 877.42 449.05"/><polygon class="cls-29" points="919.47 456 936.08 452.78 938.67 364.37 920.63 364.37 919.47 456"/><path class="cls-19" d="M881.41,399.94c.33,13.86,7.21,24.83,15.36,24.83s14.81-11,14.88-24.83c.06-14.24-6.82-26.06-15.38-26.06S881.06,385.7,881.41,399.94Z"/><polygon class="cls-19" points="911.48 437.49 882.22 433.47 882.37 439.94 911.45 443.97 911.48 437.49"/><polygon class="cls-12" points="670.46 514.1 670.46 452.02 705.88 459.16 703.64 525.34 670.46 514.1"/><polygon class="cls-30" points="703.64 525.34 721.83 523.44 724.97 457.09 705.88 459.16 703.64 525.34"/><polygon class="cls-31" points="670.46 488.68 670.46 514.1 703.64 525.34 704.4 503.04 670.46 488.68"/><polygon class="cls-32" points="670.46 452.02 691.16 450.29 724.97 457.09 705.88 459.16 670.46 452.02"/><polygon class="cls-26" points="704.4 503.04 722.8 503.04 721.83 523.44 703.64 525.34 704.4 503.04"/><polygon class="cls-31" points="670.46 478.15 704.76 492.28 705.06 483.49 670.46 469.03 670.46 478.15"/><polygon class="cls-26" points="705.06 483.49 723.72 483.49 723.31 492.28 704.76 492.28 705.06 483.49"/><polygon class="cls-12" points="711.64 527.39 711.64 461.02 749.52 468.65 747.12 539.4 711.64 527.39"/><polygon class="cls-30" points="747.12 539.4 766.57 537.37 769.93 466.44 749.52 468.65 747.12 539.4"/><polygon class="cls-31" points="711.64 500.21 711.64 527.39 747.12 539.4 747.93 515.56 711.64 500.21"/><polygon class="cls-32" points="711.64 461.02 733.78 459.16 769.93 466.44 749.52 468.65 711.64 461.02"/><polygon class="cls-26" points="747.93 515.56 767.6 515.56 766.57 537.37 747.12 539.4 747.93 515.56"/><polygon class="cls-31" points="711.64 488.95 748.32 504.06 748.64 494.66 711.64 479.2 711.64 488.95"/><polygon class="cls-26" points="748.64 494.66 768.59 494.66 768.15 504.06 748.32 504.06 748.64 494.66"/><polygon class="cls-12" points="758.98 543.15 758.98 470.62 800.36 478.96 797.74 556.27 758.98 543.15"/><polygon class="cls-30" points="797.74 556.27 819 554.06 822.67 476.54 800.36 478.96 797.74 556.27"/><polygon class="cls-31" points="758.98 513.45 758.98 543.15 797.74 556.27 798.63 530.22 758.98 513.45"/><polygon class="cls-32" points="758.98 470.62 783.16 468.59 822.67 476.54 800.36 478.96 758.98 470.62"/><polygon class="cls-26" points="798.63 530.22 820.13 530.22 819 554.06 797.74 556.27 798.63 530.22"/><polygon class="cls-31" points="758.98 501.14 799.05 517.65 799.4 507.38 758.98 490.49 758.98 501.14"/><polygon class="cls-26" points="799.4 507.38 821.21 507.38 820.72 517.65 799.05 517.65 799.4 507.38"/><polygon class="cls-16" points="806.45 559.01 844.73 571.81 854.32 507.38 820.13 499.36 806.45 559.01"/><polygon class="cls-17" points="844.73 571.81 861.12 567.88 877.51 567.85 862.5 507.38 870.96 494.66 866.41 493.13 854.32 507.38 844.73 571.81"/><polygon class="cls-28" points="866.41 493.13 844.73 492.28 834.45 485.63 820.13 499.36 854.32 507.38 866.41 493.13"/><polygon class="cls-17" points="844.73 534.86 818.68 530.75 811 552.35 839.32 560.97 844.73 534.86"/><polygon class="cls-13" points="844.73 534.86 817.96 529.3 811 552.35 838.28 559.06 844.73 534.86"/><polygon class="cls-10" points="656.85 557.62 658.34 617.95 677.94 628.79 677.94 565.15 656.85 557.62"/><polygon class="cls-29" points="677.94 628.79 704.4 627.22 708.13 565.15 677.94 565.15 677.94 628.79"/><polygon class="cls-33" points="708.13 565.15 687.43 556.98 656.85 557.62 677.94 565.15 708.13 565.15"/><polygon class="cls-34" points="677.94 565.15 694.49 579.04 708.13 565.15 708.13 566.31 694.49 580.86 677.94 567.76 677.94 565.15"/><polygon class="cls-35" points="705.7 605.59 677.94 606.49 677.94 628.79 704.4 627.22 705.7 605.59"/><polygon class="cls-25" points="677.94 606.49 667.4 607.83 657.8 596.13 658.34 617.95 677.94 628.79 677.94 606.49"/><path class="cls-31" d="M661.4,581.13c1.86,4.65,5.71,7.49,8.59,6.33s3.72-5.85,1.86-10.51-5.7-7.49-8.59-6.33S659.54,576.48,661.4,581.13Z"/><polygon class="cls-10" points="680.76 567.89 682.32 631.41 702.96 642.82 702.96 575.82 680.76 567.89"/><polygon class="cls-29" points="702.96 642.82 730.81 641.17 734.74 575.82 702.96 575.82 702.96 642.82"/><polygon class="cls-33" points="734.74 575.82 712.95 567.22 680.76 567.89 702.96 575.82 734.74 575.82"/><polygon class="cls-34" points="702.96 575.82 720.38 590.44 734.74 575.82 734.74 577.04 720.38 592.36 702.96 578.57 702.96 575.82"/><polygon class="cls-35" points="732.18 618.4 702.96 619.35 702.96 642.82 730.81 641.17 732.18 618.4"/><polygon class="cls-25" points="702.96 619.35 691.86 620.76 681.76 608.43 682.32 631.41 702.96 642.82 702.96 619.35"/><path class="cls-31" d="M685.55,592.64c2,4.9,6,7.89,9,6.67s3.92-6.16,2-11.06-6-7.89-9-6.67S683.59,587.75,685.55,592.64Z"/><polygon class="cls-10" points="706.86 579.75 708.51 646.85 730.31 658.9 730.31 588.13 706.86 579.75"/><polygon class="cls-29" points="730.31 658.9 759.73 657.16 763.88 588.13 730.31 588.13 730.31 658.9"/><polygon class="cls-33" points="763.88 588.13 740.86 579.04 706.86 579.75 730.31 588.13 763.88 588.13"/><polygon class="cls-34" points="730.31 588.13 748.72 603.57 763.88 588.13 763.88 589.42 748.72 605.59 730.31 591.04 730.31 588.13"/><polygon class="cls-35" points="761.18 633.1 730.31 634.11 730.31 658.9 759.73 657.16 761.18 633.1"/><polygon class="cls-25" points="730.31 634.11 718.59 635.59 707.91 622.58 708.51 646.85 730.31 658.9 730.31 634.11"/><ellipse class="cls-31" cx="717.73" cy="603.58" rx="6.26" ry="10.09" transform="translate(-172.71 309.36) rotate(-21.78)"/><polygon class="cls-36" points="744.34 594.49 747.4 668.11 770.16 680.67 769.91 604.04 744.34 594.49"/><polygon class="cls-26" points="770.16 680.67 800.6 678.86 806.26 604.04 769.91 604.04 770.16 680.67"/><polygon class="cls-37" points="806.26 604.04 781.37 593.67 744.34 594.49 769.91 604.04 806.26 604.04"/><polygon class="cls-22" points="804.44 628.12 770 629.89 769.91 604.04 806.26 604.04 804.44 628.12"/><polygon class="cls-26" points="769.91 604.04 789.69 621.37 806.26 604.04 806.23 605.5 789.67 623.62 769.92 607.33 769.91 604.04"/><polygon class="cls-19" points="770 629.89 745.38 619.33 744.34 594.49 769.91 604.04 770 629.89"/><polygon class="cls-22" points="801.58 665.87 770.12 667.81 770.16 680.67 800.6 678.86 801.58 665.87"/><polygon class="cls-19" points="770.12 667.81 746.95 657.14 747.4 668.11 770.16 680.67 770.12 667.81"/><path class="cls-31" d="M751.29,646.41c3,5.79,8.11,9.05,11.36,7.32s3.48-7.84.47-13.67-8.17-9.22-11.45-7.44S748.23,640.58,751.29,646.41Z"/><polygon class="cls-36" points="776.23 610.19 779.46 687.97 803.5 701.24 803.24 620.28 776.23 610.19"/><polygon class="cls-26" points="803.5 701.24 835.66 699.33 841.64 620.28 803.24 620.28 803.5 701.24"/><polygon class="cls-37" points="841.64 620.28 815.35 609.32 776.23 610.19 803.24 620.28 841.64 620.28"/><polygon class="cls-22" points="839.72 645.73 803.33 647.6 803.24 620.28 841.64 620.28 839.72 645.73"/><polygon class="cls-26" points="803.24 620.28 824.14 638.59 841.64 620.28 841.61 621.82 824.12 640.96 803.25 623.75 803.24 620.28"/><polygon class="cls-19" points="803.33 647.6 777.32 636.44 776.23 610.19 803.24 620.28 803.33 647.6"/><polygon class="cls-22" points="836.7 685.6 803.46 687.65 803.5 701.24 835.66 699.33 836.7 685.6"/><polygon class="cls-19" points="803.46 687.65 778.98 676.38 779.46 687.97 803.5 701.24 803.46 687.65"/><path class="cls-31" d="M783.56,665c3.21,6.12,8.58,9.56,12,7.73s3.68-8.28.5-14.44-8.63-9.73-12.11-7.85S780.33,658.89,783.56,665Z"/><polygon class="cls-36" points="810.9 625.85 814.3 707.65 839.58 721.6 839.31 636.46 810.9 625.85"/><polygon class="cls-26" points="839.58 721.6 873.4 719.6 879.69 636.46 839.31 636.46 839.58 721.6"/><polygon class="cls-37" points="879.69 636.46 852.04 624.94 810.9 625.85 839.31 636.46 879.69 636.46"/><polygon class="cls-22" points="877.66 663.22 839.4 665.19 839.31 636.46 879.69 636.46 877.66 663.22"/><polygon class="cls-26" points="839.31 636.46 861.28 655.72 879.69 636.46 879.66 638.08 861.26 658.21 839.32 640.12 839.31 636.46"/><polygon class="cls-19" points="839.4 665.19 812.04 653.46 810.9 625.85 839.31 636.46 839.4 665.19"/><polygon class="cls-22" points="874.49 705.16 839.54 707.31 839.58 721.6 873.4 719.6 874.49 705.16"/><polygon class="cls-19" points="839.54 707.31 813.79 695.46 814.3 707.65 839.58 721.6 839.54 707.31"/><path class="cls-31" d="M818.61,683.54c3.38,6.43,9,10.05,12.63,8.13s3.87-8.71.52-15.19-9.07-10.24-12.73-8.26S815.21,677.07,818.61,683.54Z"/><polygon class="cls-36" points="847.71 642.03 851.28 727.82 877.8 742.46 877.51 653.17 847.71 642.03"/><polygon class="cls-26" points="877.8 742.46 913.27 740.35 919.86 653.17 877.51 653.17 877.8 742.46"/><polygon class="cls-37" points="919.86 653.17 890.86 641.08 847.71 642.03 877.51 653.17 919.86 653.17"/><polygon class="cls-22" points="917.74 681.23 877.61 683.29 877.51 653.17 919.86 653.17 917.74 681.23"/><polygon class="cls-26" points="877.51 653.17 900.55 673.36 919.86 653.17 919.83 654.87 900.53 675.98 877.52 657 877.51 653.17"/><polygon class="cls-19" points="877.61 683.29 848.92 670.99 847.71 642.03 877.51 653.17 877.61 683.29"/><polygon class="cls-22" points="914.41 725.21 877.75 727.47 877.8 742.46 913.27 740.35 914.41 725.21"/><polygon class="cls-19" points="877.75 727.47 850.75 715.03 851.28 727.82 877.8 742.46 877.75 727.47"/><path class="cls-31" d="M855.81,702.54c3.53,6.74,9.45,10.54,13.24,8.52s4.05-9.13.55-15.92-9.52-10.74-13.35-8.67S852.24,695.75,855.81,702.54Z"/><polygon class="cls-16" points="851.71 574.24 892.57 587.9 902.8 519.14 866.3 510.58 851.71 574.24"/><polygon class="cls-17" points="892.57 587.9 910.06 583.7 927.55 583.68 911.54 519.14 920.55 505.56 915.7 503.93 902.8 519.14 892.57 587.9"/><polygon class="cls-28" points="915.7 503.93 892.57 503.02 881.59 495.92 866.3 510.58 902.8 519.14 915.7 503.93"/><polygon class="cls-17" points="892.57 548.46 864.77 544.08 856.57 567.13 886.79 576.33 892.57 548.46"/><polygon class="cls-13" points="892.57 548.46 863.99 542.53 856.57 567.13 885.68 574.29 892.57 548.46"/><polygon class="cls-38" points="1069.28 800.38 1069.28 107.86 1002.21 107.86 965.44 145.27 887.78 800.38 1069.28 800.38"/><polygon class="cls-39" points="887.78 800.38 874.53 792.22 954.25 147.49 992.13 110.05 1002.21 107.86 965.44 145.27 887.78 800.38"/><polygon class="cls-5" points="888.09 800.2 874.83 792.03 954.55 147.31 992.43 109.87 1002.51 107.68 965.74 145.09 888.09 800.2"/><polygon class="cls-7" points="721.76 252.21 721.76 263.34 701.37 266.33 700.36 256.49 721.76 252.21"/><polygon class="cls-40" points="700.36 256.49 696.5 268.63 719.1 265.29 721.76 252.21 700.36 256.49"/><polygon class="cls-7" points="759.43 330.01 759.08 346.98 737.19 347.13 737.79 331.35 759.43 330.01"/><polygon class="cls-40" points="737.79 331.35 731.97 345.82 756.29 345.42 759.43 330.01 737.79 331.35"/><polygon class="cls-7" points="710.2 331.98 709.88 347.47 689.21 347.68 689.76 333.24 710.2 331.98"/><polygon class="cls-31" points="689.76 333.24 684.26 346.9 707.23 346.53 710.2 331.98 689.76 333.24"/><polygon class="cls-7" points="725.22 434 724.29 449.91 704.48 445.9 705.06 430.67 725.22 434"/><polygon class="cls-31" points="705.06 430.67 699.59 443.57 719.17 447.09 725.22 434 705.06 430.67"/><polygon class="cls-7" points="735.61 547.5 734.68 563.42 715.02 555.61 716.4 540.91 735.61 547.5"/><polygon class="cls-40" points="716.4 540.91 711.3 552.95 729.79 560.12 735.61 547.5 716.4 540.91"/><polygon class="cls-7" points="689.46 530.15 688.59 545.11 669.96 537.71 671.26 523.91 689.46 530.15"/><polygon class="cls-40" points="671.26 523.91 666.43 535.31 683.94 542.11 689.46 530.15 671.26 523.91"/><polygon class="cls-7" points="683.65 643.21 682.76 658.4 664.32 646.92 665.68 632.52 683.65 643.21"/><polygon class="cls-31" points="665.68 632.52 659.8 645.92 677.02 656.72 683.65 643.21 665.68 632.52"/><polygon class="cls-7" points="777.81 700.06 776.83 716.84 757.37 704.74 758.87 688.81 777.81 700.06"/><polygon class="cls-31" points="758.87 688.81 752.41 703.53 770.47 715.01 777.81 700.06 758.87 688.81"/><polygon class="cls-7" points="846.75 588.65 845.66 607.38 822.52 598.19 824.15 580.89 846.75 588.65"/><polygon class="cls-31" points="824.15 580.89 818.14 595.06 839.9 603.5 846.75 588.65 824.15 580.89"/><polygon class="cls-7" points="834.45 452.69 833.32 472.02 809.27 467.14 809.97 448.66 834.45 452.69"/><polygon class="cls-40" points="809.97 448.66 806.91 465.04 830.61 469.85 834.45 452.69 809.97 448.66"/><polygon class="cls-7" points="880.33 325.4 879.9 345.76 854.04 346.02 854.77 326.98 880.33 325.4"/><polygon class="cls-31" points="854.77 326.98 847.89 344.07 876.62 343.6 880.33 325.4 854.77 326.98"/><polygon class="cls-7" points="809.41 235.52 809.41 249.53 783.74 253.29 782.46 240.91 809.41 235.52"/><polygon class="cls-31" points="782.46 240.91 777.6 256.19 806.05 251.98 809.41 235.52 782.46 240.91"/><polygon class="cls-7" points="909.29 217.36 909.29 234.46 877.94 239.06 876.38 223.93 909.29 217.36"/><polygon class="cls-40" points="876.38 223.93 870.45 242.6 905.19 237.46 909.29 217.36 876.38 223.93"/><polygon class="cls-41" points="955.58 228.41 1069.28 382.84 1069.28 496.5 949.28 281.54 955.58 228.41"/><polygon class="cls-42" points="940.47 355.93 1069.28 612.36 1069.28 721.6 933.04 417.87 940.47 355.93"/><polygon class="cls-43" points="960.7 800.38 901.01 688.81 887.78 800.38 960.7 800.38"/><polygon class="cls-5" points="461.16 763.59 521.49 818.62 510.55 731.8 448.71 698.13 461.16 763.59"/><polygon class="cls-5" points="521.49 818.62 645.97 814.3 662.3 732.75 510.55 731.8 521.49 818.62"/><polygon class="cls-44" points="497.39 740.19 457.48 744.33 455.22 732.8 481.83 730.25 497.39 740.19"/><polygon class="cls-44" points="514.74 765.05 466.38 768.35 478.64 779.53 516.37 778 514.74 765.05"/><polygon class="cls-45" points="618.46 753.48 637.77 753.26 628.44 801.21 612.81 801.68 618.46 753.48"/><polygon class="cls-45" points="582 753.89 579.98 802.69 564.19 803.17 562.61 754.1 582 753.89"/><polygon class="cls-45" points="604.23 801.95 588.5 802.43 590.51 753.79 609.89 753.58 604.23 801.95"/><polygon class="cls-45" points="554.11 754.2 555.7 803.43 539.9 803.91 534.75 754.41 554.11 754.2"/><polygon class="cls-45" points="494.5 743.29 499.94 746.77 506.3 793.41 501.54 789.44 494.5 743.29"/><polygon class="cls-45" points="474.12 766.54 469.53 762.7 461.32 722.12 466.49 725.41 474.12 766.54"/><polygon class="cls-45" points="495.63 784.5 490.93 780.57 483.43 736.23 488.78 739.65 495.63 784.5"/><polygon class="cls-45" points="484.91 775.55 480.26 771.66 472.37 729.17 477.63 732.53 484.91 775.55"/><polygon class="cls-46" points="448.71 698.13 578.36 697.26 662.3 732.75 505.45 731.8 448.71 698.13"/><polygon class="cls-45" points="450.5 699.1 580.15 698.23 664.09 733.72 507.24 732.78 450.5 699.1"/><polygon class="cls-47" points="452.78 719.48 513.93 758.67 657.33 757.55 660.63 741.05 508.31 741.05 449.66 703.12 452.78 719.48"/><polygon class="cls-48" points="455.22 690.68 578.33 691.3 578.33 704.92 457.49 705.77 455.22 690.68"/><polygon class="cls-5" points="507.18 746.44 443.67 705.87 442.36 690.36 443.89 688.44 505.83 724.43 507.18 746.44"/><polygon class="cls-5" points="578.33 704.92 578.33 691.3 645.97 720.21 645.97 735.44 578.33 704.92"/><polygon class="cls-48" points="667.47 746.44 507.18 746.44 505.83 724.43 666.11 724.43 668.89 728.06 667.47 746.44"/><path class="cls-49" d="M663.1,721.89l3,2.54-158.93.48-63.29-36.47,2.42-1.05L579,686.73ZM509.31,720.1l136.66.11L578.33,691.3l-121.79-.61Z"/><polygon class="cls-50" points="668.89 728.06 506.06 728.06 442.36 690.36 443.89 688.44 507.18 724.91 666.11 724.43 668.89 728.06"/><polygon class="cls-51" points="622.82 705.05 614.34 629.92 602.72 627.87 611.18 700.19 622.82 705.05"/><polygon class="cls-52" points="501.96 715.84 489.53 714.75 484.28 715.17 479.35 717.72 479.35 709.07 490.65 709.54 501.96 715.84"/><polygon class="cls-53" points="501.96 715.84 489.53 714.75 484.28 715.17 479.35 717.72 479.35 709.07 490.65 709.54 501.96 715.84"/><path class="cls-54" d="M467.49,715.43h0c3.92,4.23,9.44,3.65,9.1-1.15l-5.66-81.49,10-8-13.56-.22a7.8,7.8,0,0,0-7.88,8.36l5.65,77.5A8.61,8.61,0,0,0,467.49,715.43Z"/><path class="cls-55" d="M462.55,626.17l10.69.69.48,2.7-2.79,3.23-11.48.15A7.77,7.77,0,0,1,462.55,626.17Z"/><path class="cls-56" d="M472.77,718.26h0Z"/><path class="cls-56" d="M476.59,714.28l-5.66-81.49a7.48,7.48,0,0,1,7.62-8l133.68,2.93a7.47,7.47,0,0,1,7.26,6.63l8.21,72.73-4.88-2-7.42-65.76a6,6,0,0,0-5.82-5.29l-127.2-2.33a6,6,0,0,0-6.06,6.3l4.29,76.14c.18,2.66-1.26,4.14-2.69,4.16h-4.63C475.3,718.17,476.77,716.83,476.59,714.28Z"/><polygon class="cls-57" points="472.37 654.89 461.54 661.56 462.92 680.46 473.75 673.48 472.37 654.89"/><polygon class="cls-57" points="617.91 661.56 607.42 668.02 609.57 686.43 619.94 679.75 617.91 661.56"/><path class="cls-58" d="M352.12,224.55V590.72H10.72V224.55Z"/><path class="cls-59" d="M352.12,224.55V590.72H10.72V224.55Z"/><rect class="cls-60" x="23.25" y="558.21" width="320.9" height="12.33" transform="translate(367.4 1128.74) rotate(180)"/><rect class="cls-61" x="200.35" y="264.15" width="133.42" height="287.85" transform="translate(534.12 816.14) rotate(180)"/><rect class="cls-61" x="34.19" y="264.15" width="133.42" height="287.85" transform="translate(201.79 816.14) rotate(180)"/><rect class="cls-62" x="28.79" y="325.78" width="307.95" height="7.8" transform="translate(365.53 659.35) rotate(180)"/><rect class="cls-62" x="28.79" y="408.7" width="307.95" height="7.8" transform="translate(365.53 825.21) rotate(180)"/><rect class="cls-62" x="29.1" y="490.18" width="307.95" height="7.8" transform="translate(366.16 988.16) rotate(180)"/><rect class="cls-63" x="32.61" y="261.7" width="34.36" height="288.47" transform="translate(99.58 811.87) rotate(180)"/><polygon class="cls-64" points="130.31 490.66 159.09 490.66 161.23 468.26 128.16 468.26 130.31 490.66"/><rect class="cls-14" x="125.05" y="466.26" width="39.29" height="2" transform="translate(289.4 934.52) rotate(180)"/><polygon class="cls-15" points="128.23 468.97 155.08 470.38 153.07 489.59 147.92 490.66 159.09 490.66 161.23 468.26 128.16 468.26 128.23 468.97"/><path class="cls-13" d="M132.32,483c1.06,3.08,6.12,4.13,11.3,2.35s8.54-5.72,7.48-8.8-6.12-4.12-11.3-2.34S131.27,480,132.32,483Z"/><polygon class="cls-64" points="130.31 466.26 159.09 466.26 161.23 443.86 128.16 443.86 130.31 466.26"/><rect class="cls-14" x="125.05" y="441.86" width="39.29" height="2" transform="translate(289.4 885.72) rotate(180)"/><polygon class="cls-15" points="128.23 444.57 155.08 445.98 153.07 465.19 147.92 466.26 159.09 466.26 161.23 443.86 128.16 443.86 128.23 444.57"/><path class="cls-13" d="M132.32,458.62c1.06,3.08,6.12,4.13,11.3,2.35s8.54-5.72,7.48-8.8-6.12-4.12-11.3-2.34S131.27,455.55,132.32,458.62Z"/><polygon class="cls-64" points="88.01 490.66 116.78 490.66 118.93 468.26 85.87 468.26 88.01 490.66"/><rect class="cls-14" x="82.75" y="466.26" width="39.29" height="2" transform="translate(204.8 934.52) rotate(180)"/><polygon class="cls-15" points="85.93 468.97 112.78 470.38 110.77 489.59 105.62 490.66 116.78 490.66 118.93 468.26 85.87 468.26 85.93 468.97"/><path class="cls-13" d="M90,483c1.06,3.08,6.12,4.13,11.31,2.35s8.53-5.72,7.47-8.8-6.12-4.12-11.3-2.34S89,480,90,483Z"/><polygon class="cls-64" points="88.01 466.26 116.78 466.26 118.93 443.86 85.87 443.86 88.01 466.26"/><rect class="cls-14" x="82.75" y="441.86" width="39.29" height="2" transform="translate(204.8 885.72) rotate(180)"/><polygon class="cls-15" points="85.93 444.57 112.78 445.98 110.77 465.19 105.62 466.26 116.78 466.26 118.93 443.86 85.87 443.86 85.93 444.57"/><path class="cls-13" d="M90,458.62c1.06,3.08,6.12,4.13,11.31,2.35s8.53-5.72,7.47-8.8-6.12-4.12-11.3-2.34S89,455.55,90,458.62Z"/><polygon class="cls-64" points="45.71 490.66 74.49 490.66 76.63 468.26 43.57 468.26 45.71 490.66"/><rect class="cls-14" x="40.45" y="466.26" width="39.29" height="2" transform="translate(120.2 934.52) rotate(180)"/><polygon class="cls-15" points="43.63 468.97 70.48 470.38 68.47 489.59 63.32 490.66 74.49 490.66 76.63 468.26 43.57 468.26 43.63 468.97"/><path class="cls-13" d="M47.72,483c1.06,3.08,6.12,4.13,11.31,2.35s8.53-5.72,7.47-8.8-6.12-4.12-11.3-2.34S46.67,480,47.72,483Z"/><polygon class="cls-64" points="45.71 466.26 74.49 466.26 76.63 443.86 43.57 443.86 45.71 466.26"/><rect class="cls-14" x="40.45" y="441.86" width="39.29" height="2" transform="translate(120.2 885.72) rotate(180)"/><polygon class="cls-15" points="43.63 444.57 70.48 445.98 68.47 465.19 63.32 466.26 74.49 466.26 76.63 443.86 43.57 443.86 43.63 444.57"/><path class="cls-13" d="M47.72,458.62c1.06,3.08,6.12,4.13,11.31,2.35s8.53-5.72,7.47-8.8-6.12-4.12-11.3-2.34S46.67,455.55,47.72,458.62Z"/><polygon class="cls-65" points="135.72 555.38 161.24 555.38 162.35 502.66 134.65 502.66 135.72 555.38"/><path class="cls-13" d="M162.23,508.39a44.39,44.39,0,0,1-26.87,29c.07,3.77.27,13.37.27,13.37,9.18-1.43,26.06-16.77,26.37-31.36C162.13,513,162.23,508.39,162.23,508.39Z"/><polygon class="cls-66" points="162.35 502.66 149.18 511.89 134.65 502.66 134.65 503.81 149.32 512.82 162.35 503.52 162.35 502.66"/><polygon class="cls-65" points="104.3 555.38 129.81 555.38 130.92 502.66 103.22 502.66 104.3 555.38"/><path class="cls-13" d="M130.8,508.39a44.37,44.37,0,0,1-26.87,29c.08,3.77.27,13.37.27,13.37,9.19-1.43,26.06-16.77,26.37-31.36C130.7,513,130.8,508.39,130.8,508.39Z"/><polygon class="cls-66" points="130.92 502.66 117.75 511.89 103.22 502.66 103.22 503.81 117.9 512.82 130.92 503.52 130.92 502.66"/><polygon class="cls-65" points="72.87 555.38 98.38 555.38 99.5 502.66 71.8 502.66 72.87 555.38"/><path class="cls-13" d="M99.37,508.39a44.35,44.35,0,0,1-26.87,29c.08,3.77.28,13.37.28,13.37C82,549.33,98.83,534,99.14,519.4,99.28,513,99.37,508.39,99.37,508.39Z"/><polygon class="cls-66" points="99.5 502.66 86.33 511.89 71.8 502.66 71.8 503.81 86.47 512.82 99.5 503.52 99.5 502.66"/><polygon class="cls-65" points="41.44 555.38 66.96 555.38 68.07 502.66 40.37 502.66 41.44 555.38"/><path class="cls-13" d="M68,508.39a44.39,44.39,0,0,1-26.87,29c.07,3.77.27,13.37.27,13.37,9.18-1.43,26.06-16.77,26.37-31.36C67.85,513,68,508.39,68,508.39Z"/><polygon class="cls-66" points="68.07 502.66 54.9 511.89 40.37 502.66 40.37 503.81 55.04 512.82 68.07 503.52 68.07 502.66"/><polygon class="cls-65" points="314.26 434.62 314.26 427.2 321.94 427.2 321.94 434.62 330.58 448.58 330.58 490.18 305.63 490.18 305.63 448.58 314.26 434.62"/><g class="cls-67"><polygon class="cls-68" points="321.1 434.62 321.1 427.2 321.94 427.2 321.94 434.62 330.58 448.58 330.58 490.18 327.83 490.18 327.83 448.58 321.1 434.62"/><polygon class="cls-15" points="314.26 434.62 314.26 427.2 315.11 427.2 315.11 434.62 308.38 448.58 308.38 490.18 305.63 490.18 305.63 448.58 314.26 434.62"/></g><rect class="cls-69" x="313.48" y="426.57" width="9.25" height="5.8" transform="translate(636.21 858.94) rotate(180)"/><polygon class="cls-70" points="321.1 439.27 325.84 448.15 325.84 463.32 322.73 463.32 322.73 448.15 321.1 439.27"/><polygon class="cls-70" points="325.84 465.25 322.64 465.25 323.47 469.26 325.29 469.26 325.84 465.25"/><polygon class="cls-65" points="287.64 434.62 287.64 427.2 295.32 427.2 295.32 434.62 303.96 448.58 303.96 490.18 279 490.18 279 448.58 287.64 434.62"/><g class="cls-67"><polygon class="cls-68" points="294.47 434.62 294.47 427.2 295.32 427.2 295.32 434.62 303.96 448.58 303.96 490.18 301.2 490.18 301.2 448.58 294.47 434.62"/><polygon class="cls-15" points="287.64 434.62 287.64 427.2 288.49 427.2 288.49 434.62 281.76 448.58 281.76 490.18 279 490.18 279 448.58 287.64 434.62"/></g><rect class="cls-69" x="286.85" y="426.57" width="9.25" height="5.8" transform="translate(582.96 858.94) rotate(180)"/><polygon class="cls-70" points="294.47 439.27 299.21 448.15 299.21 463.32 296.11 463.32 296.11 448.15 294.47 439.27"/><polygon class="cls-70" points="299.21 465.25 296.01 465.25 296.84 469.26 298.66 469.26 299.21 465.25"/><polygon class="cls-65" points="261.01 434.62 261.01 427.2 268.69 427.2 268.69 434.62 277.33 448.58 277.33 490.18 252.38 490.18 252.38 448.58 261.01 434.62"/><g class="cls-67"><polygon class="cls-68" points="267.85 434.62 267.85 427.2 268.69 427.2 268.69 434.62 277.33 448.58 277.33 490.18 274.58 490.18 274.58 448.58 267.85 434.62"/><polygon class="cls-15" points="261.01 434.62 261.01 427.2 261.86 427.2 261.86 434.62 255.13 448.58 255.13 490.18 252.38 490.18 252.38 448.58 261.01 434.62"/></g><rect class="cls-69" x="260.23" y="426.57" width="9.25" height="5.8" transform="translate(529.71 858.94) rotate(180)"/><polygon class="cls-70" points="267.85 439.27 272.59 448.15 272.59 463.32 269.48 463.32 269.48 448.15 267.85 439.27"/><polygon class="cls-70" points="272.59 465.25 269.39 465.25 270.22 469.26 272.04 469.26 272.59 465.25"/><polygon class="cls-65" points="234.39 434.62 234.39 427.2 242.07 427.2 242.07 434.62 250.71 448.58 250.71 490.18 225.75 490.18 225.75 448.58 234.39 434.62"/><g class="cls-67"><polygon class="cls-68" points="241.22 434.62 241.22 427.2 242.07 427.2 242.07 434.62 250.71 448.58 250.71 490.18 247.95 490.18 247.95 448.58 241.22 434.62"/><polygon class="cls-15" points="234.39 434.62 234.39 427.2 235.24 427.2 235.24 434.62 228.5 448.58 228.5 490.18 225.75 490.18 225.75 448.58 234.39 434.62"/></g><rect class="cls-16" x="233.6" y="426.57" width="9.25" height="5.8" transform="translate(476.46 858.94) rotate(180)"/><polygon class="cls-70" points="241.22 439.27 245.96 448.15 245.96 463.32 242.86 463.32 242.86 448.15 241.22 439.27"/><polygon class="cls-70" points="245.96 465.25 242.76 465.25 243.59 469.26 245.41 469.26 245.96 465.25"/><polygon class="cls-65" points="207.76 434.62 207.76 427.2 215.44 427.2 215.44 434.62 224.08 448.58 224.08 490.18 199.13 490.18 199.13 448.58 207.76 434.62"/><g class="cls-67"><polygon class="cls-68" points="214.59 434.62 214.59 427.2 215.44 427.2 215.44 434.62 224.08 448.58 224.08 490.18 221.33 490.18 221.33 448.58 214.59 434.62"/><polygon class="cls-15" points="207.76 434.62 207.76 427.2 208.61 427.2 208.61 434.62 201.88 448.58 201.88 490.18 199.13 490.18 199.13 448.58 207.76 434.62"/></g><rect class="cls-16" x="206.98" y="426.57" width="9.25" height="5.8" transform="translate(423.21 858.94) rotate(180)"/><polygon class="cls-70" points="214.59 439.27 219.34 448.15 219.34 463.32 216.23 463.32 216.23 448.15 214.59 439.27"/><polygon class="cls-70" points="219.34 465.25 216.14 465.25 216.97 469.26 218.79 469.26 219.34 465.25"/><rect class="cls-21" x="311.66" y="294.18" width="25.39" height="32.35" transform="translate(648.71 620.7) rotate(180)"/><rect class="cls-37" x="311.66" y="294.18" width="25.39" height="10.99" transform="translate(648.71 599.34) rotate(180)"/><path class="cls-29" d="M319.22,298.44c0,1.49,2.3,2.71,5.14,2.71s5.13-1.22,5.13-2.71V295.6H319.22Z"/><path class="cls-10" d="M319.22,295.6c0,1.5,2.3,2.71,5.14,2.71s5.13-1.21,5.13-2.71-2.3-2.71-5.13-2.71S319.22,294.11,319.22,295.6Z"/><polygon class="cls-10" points="337.05 311.17 324.36 315.37 311.66 311.17 311.66 326.52 337.05 326.52 337.05 311.17"/><path class="cls-13" d="M317,316.05c0,4.65,3.28,8.41,7.33,8.41s7.32-3.76,7.32-8.41-3.28-8.4-7.32-8.4S317,311.41,317,316.05Z"/><rect class="cls-21" x="284.16" y="294.18" width="25.39" height="32.35" transform="translate(593.71 620.7) rotate(180)"/><rect class="cls-37" x="284.16" y="294.18" width="25.39" height="10.99" transform="translate(593.71 599.34) rotate(180)"/><path class="cls-29" d="M291.72,298.44c0,1.49,2.3,2.71,5.13,2.71s5.14-1.22,5.14-2.71V295.6H291.72Z"/><path class="cls-10" d="M291.72,295.6c0,1.5,2.3,2.71,5.13,2.71S302,297.1,302,295.6s-2.3-2.71-5.14-2.71S291.72,294.11,291.72,295.6Z"/><polygon class="cls-10" points="309.55 311.17 296.85 315.37 284.16 311.17 284.16 326.52 309.55 326.52 309.55 311.17"/><path class="cls-13" d="M289.53,316.05c0,4.65,3.28,8.41,7.32,8.41s7.33-3.76,7.33-8.41-3.28-8.4-7.33-8.4S289.53,311.41,289.53,316.05Z"/><rect class="cls-21" x="256.65" y="294.18" width="25.39" height="32.35" transform="translate(538.7 620.7) rotate(180)"/><rect class="cls-37" x="256.65" y="294.18" width="25.39" height="10.99" transform="translate(538.7 599.34) rotate(180)"/><path class="cls-29" d="M264.22,298.44c0,1.49,2.3,2.71,5.13,2.71s5.14-1.22,5.14-2.71V295.6H264.22Z"/><path class="cls-10" d="M264.22,295.6c0,1.5,2.3,2.71,5.13,2.71s5.14-1.21,5.14-2.71-2.3-2.71-5.14-2.71S264.22,294.11,264.22,295.6Z"/><polygon class="cls-10" points="282.05 311.17 269.35 315.37 256.65 311.17 256.65 326.52 282.05 326.52 282.05 311.17"/><path class="cls-13" d="M262,316.05c0,4.65,3.28,8.41,7.32,8.41s7.32-3.76,7.32-8.41-3.27-8.4-7.32-8.4S262,311.41,262,316.05Z"/><rect class="cls-21" x="229.15" y="294.18" width="25.39" height="32.35" transform="translate(483.7 620.7) rotate(180)"/><rect class="cls-37" x="229.15" y="294.18" width="25.39" height="10.99" transform="translate(483.7 599.34) rotate(180)"/><path class="cls-29" d="M236.71,298.44c0,1.49,2.3,2.71,5.14,2.71s5.13-1.22,5.13-2.71V295.6H236.71Z"/><path class="cls-10" d="M236.71,295.6c0,1.5,2.3,2.71,5.14,2.71S247,297.1,247,295.6s-2.3-2.71-5.13-2.71S236.71,294.11,236.71,295.6Z"/><polygon class="cls-10" points="254.55 311.17 241.85 315.37 229.15 311.17 229.15 326.52 254.55 326.52 254.55 311.17"/><path class="cls-13" d="M234.53,316.05c0,4.65,3.27,8.41,7.32,8.41s7.32-3.76,7.32-8.41-3.28-8.4-7.32-8.4S234.53,311.41,234.53,316.05Z"/><rect class="cls-21" x="201.65" y="294.18" width="25.39" height="32.35" transform="translate(428.69 620.7) rotate(180)"/><rect class="cls-37" x="201.65" y="294.18" width="25.39" height="10.99" transform="translate(428.69 599.34) rotate(180)"/><path class="cls-29" d="M209.21,298.44c0,1.49,2.3,2.71,5.14,2.71s5.13-1.22,5.13-2.71V295.6H209.21Z"/><path class="cls-10" d="M209.21,295.6c0,1.5,2.3,2.71,5.14,2.71s5.13-1.21,5.13-2.71-2.3-2.71-5.13-2.71S209.21,294.11,209.21,295.6Z"/><polygon class="cls-10" points="227.04 311.17 214.35 315.37 201.65 311.17 201.65 326.52 227.04 326.52 227.04 311.17"/><path class="cls-13" d="M207,316.05c0,4.65,3.28,8.41,7.33,8.41s7.32-3.76,7.32-8.41-3.28-8.4-7.32-8.4S207,311.41,207,316.05Z"/><polygon class="cls-60" points="185.08 224.55 25.09 224.55 25.09 243.81 185.08 243.81 343.95 243.81 343.95 224.55 185.08 224.55"/><rect class="cls-13" x="29.88" y="155.25" width="317.77" height="84.74"/><polygon class="cls-12" points="154.43 155.25 208.93 239.99 29.88 239.99 29.88 155.25 154.43 155.25"/><path class="cls-13" d="M72.16,188.38l.42-.3a2.7,2.7,0,0,1,1.1-.46c.47,0,1,.43,1.54,1.28a2.65,2.65,0,0,1,.5,1.29,1.09,1.09,0,0,1-.31.8,3.21,3.21,0,0,1-.72.58l-.79.48a8.87,8.87,0,0,1-1.55.6,7.71,7.71,0,0,1-2.26.36,8.79,8.79,0,0,1-2.2-.28,9.91,9.91,0,0,1-4.42-2.62,7.44,7.44,0,0,1-1.55-2.5,8.83,8.83,0,0,1-.61-3.32,8.48,8.48,0,0,1,.6-3.25,7.36,7.36,0,0,1,1.52-2.41A9,9,0,0,1,65.55,177a9.27,9.27,0,0,1,4.53-1.24,7.66,7.66,0,0,1,2.19.33,7.79,7.79,0,0,1,1.69.68l.55.32.64.41a1.39,1.39,0,0,1,.6,1.09,2.17,2.17,0,0,1-.49,1.28c-.59.82-1.13,1.24-1.6,1.24a2.38,2.38,0,0,1-1.17-.51,4,4,0,0,0-2.57-.78,5,5,0,0,0-2.94,1,3.88,3.88,0,0,0-1.15,1.43,4.91,4.91,0,0,0,0,4.15A4.07,4.07,0,0,0,67,187.92a4.94,4.94,0,0,0,2.92,1,4.52,4.52,0,0,0,1.34-.19A3.43,3.43,0,0,0,72.16,188.38Z"/><path class="cls-13" d="M85.13,175.75a8.12,8.12,0,0,1,5.9,2.46,8.2,8.2,0,0,1,2.51,6.09,8.77,8.77,0,0,1-2.39,6.2,7.71,7.71,0,0,1-5.88,2.56,7.93,7.93,0,0,1-5.93-2.53,8.33,8.33,0,0,1-2.45-6,9.23,9.23,0,0,1,.69-3.57,8.23,8.23,0,0,1,1.84-2.79,8.51,8.51,0,0,1,2.64-1.77A7.82,7.82,0,0,1,85.13,175.75ZM81,184.41a4.39,4.39,0,0,0,1.32,3.31,4.06,4.06,0,0,0,5.88,0,4.35,4.35,0,0,0,1.31-3.33,4.42,4.42,0,0,0-1.32-3.35,4.18,4.18,0,0,0-3-1.27,4.11,4.11,0,0,0-2.93,1.28A4.39,4.39,0,0,0,81,184.41Z"/><path class="cls-13" d="M99.09,189.39h6.24a2.56,2.56,0,0,1,1.11.17.81.81,0,0,1,.45.54,3.19,3.19,0,0,1,.12,1,3.26,3.26,0,0,1-.12,1,.77.77,0,0,1-.38.5,2.54,2.54,0,0,1-1.2.23H97.05q-1.6,0-1.89-.87a3.67,3.67,0,0,1-.13-1.17V178a7.55,7.55,0,0,1,0-.79,1.82,1.82,0,0,1,.22-.61c.21-.42.81-.62,1.79-.62s1.71.28,1.91.85a4.92,4.92,0,0,1,.11,1.19Z"/><path class="cls-13" d="M110.54,175.94l4.25,0a8.22,8.22,0,0,1,5.85,2.4,7.79,7.79,0,0,1,2.53,5.9,8.23,8.23,0,0,1-2.47,6,8.07,8.07,0,0,1-6,2.5h-4.2q-1.39,0-1.74-.57a3,3,0,0,1-.28-1.47V178a5.33,5.33,0,0,1,0-.81,1.8,1.8,0,0,1,.21-.6C109,176.14,109.57,175.94,110.54,175.94Zm7.24,11.53a4.05,4.05,0,0,0,1.33-3.09,4.17,4.17,0,0,0-1.3-3.11,4.27,4.27,0,0,0-3-1.25h-2.21v8.68h2.23A4.31,4.31,0,0,0,117.78,187.47Z"/><path class="cls-13" d="M63.69,203.48l4.25,0a8.26,8.26,0,0,1,5.86,2.4,7.83,7.83,0,0,1,2.52,5.9,8.2,8.2,0,0,1-2.47,6,8.08,8.08,0,0,1-6,2.51h-4.2c-.93,0-1.51-.19-1.74-.58a3,3,0,0,1-.28-1.47V205.5a5.18,5.18,0,0,1,0-.8,1.64,1.64,0,0,1,.22-.6C62.12,203.69,62.72,203.48,63.69,203.48ZM70.93,215a4.05,4.05,0,0,0,1.33-3.09,4.16,4.16,0,0,0-1.3-3.11,4.23,4.23,0,0,0-3-1.25H65.71v8.67h2.23A4.3,4.3,0,0,0,70.93,215Z"/><path class="cls-13" d="M90.69,217.48a3.58,3.58,0,0,1,.34,1.2c0,.58-.47,1.07-1.42,1.47a3.22,3.22,0,0,1-1.18.32,1.13,1.13,0,0,1-.73-.22,1.63,1.63,0,0,1-.43-.45c-.15-.29-.75-1.67-1.79-4.15l-.71,0h-2.9v2.6a7.68,7.68,0,0,1,0,.79,1.62,1.62,0,0,1-.22.61c-.21.41-.81.62-1.79.62s-1.69-.29-1.88-.85a3.91,3.91,0,0,1-.14-1.2V205.52a7.12,7.12,0,0,1,0-.79,1.68,1.68,0,0,1,.22-.61c.21-.41.81-.62,1.79-.62h5A6.37,6.37,0,0,1,88.74,205a5.51,5.51,0,0,1,1.52,1.93,6.19,6.19,0,0,1,.59,2.71,5.7,5.7,0,0,1-1.72,4.27Q89.64,215.1,90.69,217.48Zm-8.82-5.85h2.94a2.26,2.26,0,0,0,1.34-.5,1.81,1.81,0,0,0,.66-1.52,1.84,1.84,0,0,0-.66-1.53,2.27,2.27,0,0,0-1.38-.51h-2.9Z"/><path class="cls-13" d="M92.3,205.52a7.68,7.68,0,0,1,0-.79,1.89,1.89,0,0,1,.22-.61c.21-.41.81-.62,1.79-.62s1.7.29,1.9.85a4.4,4.4,0,0,1,.12,1.2v12.76a5.09,5.09,0,0,1,0,.8,1.8,1.8,0,0,1-.21.6c-.22.41-.81.62-1.79.62s-1.7-.29-1.89-.87a3.75,3.75,0,0,1-.13-1.17Z"/><path class="cls-13" d="M109.06,204.2a1.13,1.13,0,0,1,.66-.53,3.4,3.4,0,0,1,1.09-.14,4.21,4.21,0,0,1,1,.11,1.68,1.68,0,0,1,.6.28.91.91,0,0,1,.29.48,3.6,3.6,0,0,1,.14,1.17v12.74a5.09,5.09,0,0,1,0,.8,1.64,1.64,0,0,1-.22.6c-.21.41-.81.62-1.79.62a3.85,3.85,0,0,1-1.24-.14,1.35,1.35,0,0,1-.57-.43c-3.44-4.6-5.71-7.59-6.79-9v7.55a6.76,6.76,0,0,1,0,.8,1.64,1.64,0,0,1-.22.6c-.21.41-.81.62-1.79.62s-1.53-.21-1.74-.62a1.86,1.86,0,0,1-.22-.62,7.91,7.91,0,0,1,0-.8V205.48a2.94,2.94,0,0,1,.21-1.28,1.13,1.13,0,0,1,.66-.53,3.51,3.51,0,0,1,1.12-.14,3.91,3.91,0,0,1,1.09.12,1.36,1.36,0,0,1,.56.29,5.58,5.58,0,0,1,.53.6q4.84,6.59,6.48,8.7v-7.76A2.94,2.94,0,0,1,109.06,204.2Z"/><path class="cls-13" d="M121.93,211.88q3.51,3.38,5,5.08a2.36,2.36,0,0,1,.76,1.43c0,.39-.31.85-.92,1.38a2.59,2.59,0,0,1-1.5.79q-.59,0-1.41-1l-5.06-5.77v4.48a7.38,7.38,0,0,1,0,.8,1.64,1.64,0,0,1-.22.6c-.21.41-.81.62-1.79.62s-1.7-.29-1.88-.87a3.69,3.69,0,0,1-.14-1.17V205.52a5.28,5.28,0,0,1,0-.79,1.68,1.68,0,0,1,.22-.61c.21-.41.81-.62,1.78-.62s1.71.29,1.91.85a4.49,4.49,0,0,1,.11,1.2v4.38c2.09-2.34,3.77-4.26,5.06-5.76.53-.63,1-.94,1.39-.94a2.6,2.6,0,0,1,1.52.79c.61.53.92,1,.92,1.38a2.33,2.33,0,0,1-.69,1.39c-.89,1-2.26,2.43-4.13,4.22Z"/><path class="cls-13" d="M129.64,218a2.23,2.23,0,0,1-.59-1.32c0-.39.32-.91,1-1.55a1.74,1.74,0,0,1,1.22-.56c.43,0,1,.39,1.79,1.15a3.47,3.47,0,0,0,.92.75,2.16,2.16,0,0,0,1.1.36c1.42,0,2.13-.59,2.13-1.75a1,1,0,0,0-.58-.88,4.32,4.32,0,0,0-1.46-.52,12.51,12.51,0,0,1-1.88-.52,11.88,11.88,0,0,1-1.88-.83,3.86,3.86,0,0,1-1.46-1.53,5.06,5.06,0,0,1-.59-2.51,4.85,4.85,0,0,1,1.51-3.53,5.54,5.54,0,0,1,4.09-1.5,8.67,8.67,0,0,1,2.52.35,4.7,4.7,0,0,1,1.57.73l.58.43c.47.45.71.82.71,1.13a2.56,2.56,0,0,1-.55,1.26c-.52.77-1.06,1.15-1.61,1.15a2.3,2.3,0,0,1-1.19-.46,2.36,2.36,0,0,1-.27-.23l-.35-.3a2.34,2.34,0,0,0-1.23-.3,2,2,0,0,0-1.24.36,1.15,1.15,0,0,0-.49,1,1.17,1.17,0,0,0,.58,1,3.76,3.76,0,0,0,1.46.53,17.05,17.05,0,0,1,1.9.42,12.22,12.22,0,0,1,1.91.7,3.4,3.4,0,0,1,1.45,1.44,4.86,4.86,0,0,1,.59,2.51,5.57,5.57,0,0,1-.6,2.63,4.43,4.43,0,0,1-1.56,1.75,7.13,7.13,0,0,1-4,1.22,7.92,7.92,0,0,1-2-.26,5.71,5.71,0,0,1-1.56-.66,5.57,5.57,0,0,1-1.7-1.42Z"/><path class="cls-12" d="M225.68,160.54a44.66,44.66,0,1,0,89-5.3H226A46.55,46.55,0,0,0,225.68,160.54Z"/><path class="cls-71" d="M336.29,155.24c-9.17,44.16-70.58,78.31-145,78.31s-135.87-34.15-145-78.31H29.88V240H347.65V155.24Z"/><polygon class="cls-72" points="29.88 182.44 29.88 155.25 347.65 155.25 347.65 190.17 343.1 158.82 34.76 159.68 29.88 182.44"/><polygon class="cls-21" points="130.31 326.34 159.09 326.34 161.23 303.94 128.16 303.94 130.31 326.34"/><rect class="cls-21" x="125.05" y="301.94" width="39.29" height="2" transform="translate(289.4 605.88) rotate(180)"/><polygon class="cls-15" points="128.23 304.65 155.08 306.06 153.07 325.27 147.92 326.34 159.09 326.34 161.23 303.94 128.16 303.94 128.23 304.65"/><path class="cls-13" d="M132.32,318.71c1.06,3.07,6.12,4.12,11.3,2.34s8.54-5.72,7.48-8.8-6.12-4.12-11.3-2.34S131.27,315.63,132.32,318.71Z"/><polygon class="cls-21" points="130.31 301.94 159.09 301.94 161.23 279.54 128.16 279.54 130.31 301.94"/><rect class="cls-21" x="125.05" y="277.54" width="39.29" height="2" transform="translate(289.4 557.08) rotate(180)"/><polygon class="cls-15" points="128.23 280.25 155.08 281.66 153.07 300.87 147.92 301.94 159.09 301.94 161.23 279.54 128.16 279.54 128.23 280.25"/><path class="cls-13" d="M132.32,294.31c1.06,3.07,6.12,4.12,11.3,2.34s8.54-5.72,7.48-8.8-6.12-4.12-11.3-2.34S131.27,291.23,132.32,294.31Z"/><polygon class="cls-21" points="88.01 326.34 116.78 326.34 118.93 303.94 85.87 303.94 88.01 326.34"/><rect class="cls-21" x="82.75" y="301.94" width="39.29" height="2" transform="translate(204.8 605.88) rotate(180)"/><polygon class="cls-15" points="85.93 304.65 112.78 306.06 110.77 325.27 105.62 326.34 116.78 326.34 118.93 303.94 85.87 303.94 85.93 304.65"/><path class="cls-13" d="M90,318.71c1.06,3.07,6.12,4.12,11.31,2.34s8.53-5.72,7.47-8.8-6.12-4.12-11.3-2.34S89,315.63,90,318.71Z"/><polygon class="cls-21" points="88.01 301.94 116.78 301.94 118.93 279.54 85.87 279.54 88.01 301.94"/><rect class="cls-21" x="82.75" y="277.54" width="39.29" height="2" transform="translate(204.8 557.08) rotate(180)"/><polygon class="cls-15" points="85.93 280.25 112.78 281.66 110.77 300.87 105.62 301.94 116.78 301.94 118.93 279.54 85.87 279.54 85.93 280.25"/><path class="cls-13" d="M90,294.31c1.06,3.07,6.12,4.12,11.31,2.34s8.53-5.72,7.47-8.8-6.12-4.12-11.3-2.34S89,291.23,90,294.31Z"/><polygon class="cls-21" points="45.71 326.34 74.49 326.34 76.63 303.94 43.57 303.94 45.71 326.34"/><rect class="cls-21" x="40.45" y="301.94" width="39.29" height="2" transform="translate(120.2 605.88) rotate(180)"/><polygon class="cls-15" points="43.63 304.65 70.48 306.06 68.47 325.27 63.32 326.34 74.49 326.34 76.63 303.94 43.57 303.94 43.63 304.65"/><path class="cls-13" d="M47.72,318.71c1.06,3.07,6.12,4.12,11.31,2.34s8.53-5.72,7.47-8.8-6.12-4.12-11.3-2.34S46.67,315.63,47.72,318.71Z"/><polygon class="cls-21" points="45.71 301.94 74.49 301.94 76.63 279.54 43.57 279.54 45.71 301.94"/><rect class="cls-21" x="40.45" y="277.54" width="39.29" height="2" transform="translate(120.2 557.08) rotate(180)"/><polygon class="cls-15" points="43.63 280.25 70.48 281.66 68.47 300.87 63.32 301.94 74.49 301.94 76.63 279.54 43.57 279.54 43.63 280.25"/><path class="cls-13" d="M47.72,294.31c1.06,3.07,6.12,4.12,11.31,2.34s8.53-5.72,7.47-8.8-6.12-4.12-11.3-2.34S46.67,291.23,47.72,294.31Z"/><polygon class="cls-21" points="145.96 366.43 158.84 366.43 164.1 370.62 164.1 408.79 140.7 408.79 140.7 370.62 145.96 366.43"/><rect class="cls-73" x="147.84" y="359.82" width="9.13" height="6.61" transform="translate(304.8 726.25) rotate(180)"/><rect class="cls-73" x="140.7" y="379.97" width="23.4" height="15.64" transform="translate(304.8 775.58) rotate(180)"/><polygon class="cls-15" points="154.44 366.43 158.09 370.77 158.09 408.79 164.1 408.79 164.1 370.62 158.84 366.43 154.44 366.43"/><polygon class="cls-15" points="146.85 366.43 142.42 370.81 142.42 408.79 140.7 408.79 140.7 370.62 145.96 366.43 146.85 366.43"/><polygon class="cls-74" points="147.84 367.16 144.78 370.74 148.64 370.74 149.93 367.16 147.84 367.16"/><polygon class="cls-74" points="148.5 372.17 144.78 372.17 145.28 385.55 147.84 385.55 148.5 372.17"/><polygon class="cls-21" points="120.9 366.43 133.79 366.43 139.05 370.62 139.05 408.79 115.64 408.79 115.64 370.62 120.9 366.43"/><rect class="cls-73" x="122.78" y="359.82" width="9.13" height="6.61" transform="translate(254.69 726.25) rotate(180)"/><rect class="cls-73" x="115.64" y="379.97" width="23.4" height="15.64" transform="translate(254.69 775.58) rotate(180)"/><polygon class="cls-15" points="129.38 366.43 133.03 370.77 133.03 408.79 139.05 408.79 139.05 370.62 133.79 366.43 129.38 366.43"/><polygon class="cls-15" points="121.8 366.43 117.36 370.81 117.36 408.79 115.64 408.79 115.64 370.62 120.9 366.43 121.8 366.43"/><polygon class="cls-74" points="122.78 367.16 119.72 370.74 123.59 370.74 124.88 367.16 122.78 367.16"/><polygon class="cls-74" points="123.44 372.17 119.72 372.17 120.22 385.55 122.78 385.55 123.44 372.17"/><polygon class="cls-21" points="95.85 366.43 108.73 366.43 113.99 370.62 113.99 408.79 90.59 408.79 90.59 370.62 95.85 366.43"/><rect class="cls-73" x="97.73" y="359.82" width="9.13" height="6.61" transform="translate(204.58 726.25) rotate(180)"/><rect class="cls-73" x="90.59" y="379.97" width="23.4" height="15.64" transform="translate(204.58 775.58) rotate(180)"/><polygon class="cls-15" points="104.33 366.43 107.98 370.77 107.98 408.79 113.99 408.79 113.99 370.62 108.73 366.43 104.33 366.43"/><polygon class="cls-15" points="96.74 366.43 92.31 370.81 92.31 408.79 90.59 408.79 90.59 370.62 95.85 366.43 96.74 366.43"/><polygon class="cls-74" points="97.73 367.16 94.67 370.74 98.53 370.74 99.82 367.16 97.73 367.16"/><polygon class="cls-74" points="98.39 372.17 94.67 372.17 95.17 385.55 97.73 385.55 98.39 372.17"/><polygon class="cls-21" points="70.79 366.43 83.68 366.43 88.94 370.62 88.94 408.79 65.53 408.79 65.53 370.62 70.79 366.43"/><rect class="cls-73" x="72.67" y="359.82" width="9.13" height="6.61" transform="translate(154.47 726.25) rotate(180)"/><rect class="cls-73" x="65.53" y="379.97" width="23.4" height="15.64" transform="translate(154.47 775.58) rotate(180)"/><polygon class="cls-15" points="79.28 366.43 82.92 370.77 82.92 408.79 88.94 408.79 88.94 370.62 83.68 366.43 79.28 366.43"/><polygon class="cls-15" points="71.69 366.43 67.25 370.81 67.25 408.79 65.53 408.79 65.53 370.62 70.79 366.43 71.69 366.43"/><polygon class="cls-74" points="72.67 367.16 69.61 370.74 73.48 370.74 74.77 367.16 72.67 367.16"/><polygon class="cls-74" points="73.33 372.17 69.61 372.17 70.11 385.55 72.67 385.55 73.33 372.17"/><polygon class="cls-21" points="45.74 366.43 58.62 366.43 63.88 370.62 63.88 408.79 40.48 408.79 40.48 370.62 45.74 366.43"/><rect class="cls-73" x="47.62" y="359.82" width="9.13" height="6.61" transform="translate(104.36 726.25) rotate(180)"/><rect class="cls-73" x="40.48" y="379.97" width="23.4" height="15.64" transform="translate(104.36 775.58) rotate(180)"/><polygon class="cls-15" points="54.22 366.43 57.87 370.77 57.87 408.79 63.88 408.79 63.88 370.62 58.62 366.43 54.22 366.43"/><polygon class="cls-15" points="46.63 366.43 42.2 370.81 42.2 408.79 40.48 408.79 40.48 370.62 45.74 366.43 46.63 366.43"/><polygon class="cls-74" points="47.62 367.16 44.56 370.74 48.42 370.74 49.71 367.16 47.62 367.16"/><polygon class="cls-74" points="48.28 372.17 44.56 372.17 45.06 385.55 47.62 385.55 48.28 372.17"/><rect class="cls-13" x="205.21" y="346.09" width="23.52" height="62.9" transform="translate(433.93 755.08) rotate(180)"/><polygon class="cls-16" points="228.72 346.09 228.72 362.52 216.97 370.74 205.21 363.13 205.21 346.09 228.72 346.09"/><polygon class="cls-16" points="228.72 387.79 216.97 395.61 205.21 387.79 205.21 408.99 228.72 408.99 228.72 387.79"/><rect class="cls-13" x="211.47" y="341.33" width="10.98" height="4.76" transform="translate(433.93 687.43) rotate(180)"/><polygon class="cls-15" points="227.94 346.09 225.28 404.18 216.34 406.04 206.84 405.32 206.24 346.09 205.21 346.09 205.21 408.99 228.72 408.99 228.72 346.09 227.94 346.09"/><polygon class="cls-15" points="219.89 341.33 219.55 345.04 214.38 345.74 212.72 345.36 212.72 341.33 211.47 341.33 211.47 346.09 222.46 346.09 222.46 341.33 219.89 341.33"/><rect class="cls-13" x="230.49" y="346.09" width="23.52" height="62.9" transform="translate(484.5 755.08) rotate(180)"/><polygon class="cls-16" points="254.01 346.09 254.01 362.52 242.25 370.74 230.49 363.13 230.49 346.09 254.01 346.09"/><polygon class="cls-16" points="254.01 387.79 242.25 395.61 230.49 387.79 230.49 408.99 254.01 408.99 254.01 387.79"/><rect class="cls-13" x="236.76" y="341.33" width="10.98" height="4.76" transform="translate(484.5 687.43) rotate(180)"/><polygon class="cls-15" points="253.22 346.09 250.56 404.18 241.63 406.04 232.13 405.32 231.53 346.09 230.49 346.09 230.49 408.99 254.01 408.99 254.01 346.09 253.22 346.09"/><polygon class="cls-15" points="245.17 341.33 244.84 345.04 239.67 345.74 238 345.36 238 341.33 236.76 341.33 236.76 346.09 247.74 346.09 247.74 341.33 245.17 341.33"/><rect class="cls-13" x="255.78" y="346.09" width="23.52" height="62.9" transform="translate(535.07 755.08) rotate(180)"/><polygon class="cls-65" points="279.29 346.09 279.29 362.52 267.54 370.74 255.78 363.13 255.78 346.09 279.29 346.09"/><polygon class="cls-65" points="279.29 387.79 267.54 395.61 255.78 387.79 255.78 408.99 279.29 408.99 279.29 387.79"/><rect class="cls-13" x="262.04" y="341.33" width="10.98" height="4.76" transform="translate(535.07 687.43) rotate(180)"/><polygon class="cls-15" points="278.5 346.09 275.84 404.18 266.91 406.04 257.41 405.32 256.81 346.09 255.78 346.09 255.78 408.99 279.29 408.99 279.29 346.09 278.5 346.09"/><polygon class="cls-15" points="270.45 341.33 270.12 345.04 264.95 345.74 263.29 345.36 263.29 341.33 262.04 341.33 262.04 346.09 273.03 346.09 273.03 341.33 270.45 341.33"/><rect class="cls-13" x="281.06" y="346.09" width="23.52" height="62.9" transform="translate(585.64 755.08) rotate(180)"/><polygon class="cls-65" points="304.58 346.09 304.58 362.52 292.82 370.74 281.06 363.13 281.06 346.09 304.58 346.09"/><polygon class="cls-65" points="304.58 387.79 292.82 395.61 281.06 387.79 281.06 408.99 304.58 408.99 304.58 387.79"/><rect class="cls-13" x="287.33" y="341.33" width="10.98" height="4.76" transform="translate(585.64 687.43) rotate(180)"/><polygon class="cls-15" points="303.79 346.09 301.13 404.18 292.19 406.04 282.7 405.32 282.1 346.09 281.06 346.09 281.06 408.99 304.58 408.99 304.58 346.09 303.79 346.09"/><polygon class="cls-15" points="295.74 341.33 295.4 345.04 290.24 345.74 288.57 345.36 288.57 341.33 287.33 341.33 287.33 346.09 298.31 346.09 298.31 341.33 295.74 341.33"/><rect class="cls-13" x="306.35" y="346.09" width="23.52" height="62.9" transform="translate(636.21 755.08) rotate(180)"/><polygon class="cls-65" points="329.86 346.09 329.86 362.52 318.1 370.74 306.35 363.13 306.35 346.09 329.86 346.09"/><polygon class="cls-65" points="329.86 387.79 318.1 395.61 306.35 387.79 306.35 408.99 329.86 408.99 329.86 387.79"/><rect class="cls-13" x="312.61" y="341.33" width="10.98" height="4.76" transform="translate(636.21 687.43) rotate(180)"/><polygon class="cls-15" points="329.07 346.09 326.41 404.18 317.48 406.04 307.98 405.32 307.38 346.09 306.35 346.09 306.35 408.99 329.86 408.99 329.86 346.09 329.07 346.09"/><polygon class="cls-15" points="321.02 341.33 320.69 345.04 315.52 345.74 313.85 345.36 313.85 341.33 312.61 341.33 312.61 346.09 323.6 346.09 323.6 341.33 321.02 341.33"/><polygon class="cls-21" points="295.65 549.47 316.45 549.47 319.22 529.02 292.88 529.02 295.65 549.47"/><polygon class="cls-13" points="300.6 545.06 311.5 545.06 312.95 534.35 299.15 534.35 300.6 545.06"/><rect class="cls-21" x="290.45" y="526.71" width="31.21" height="4.63" transform="translate(612.1 1058.04) rotate(180)"/><polygon class="cls-75" points="313.35 549.47 315.5 532.7 295.75 532.7 296.71 548.22 298.11 549.47 295.65 549.47 293.19 531.33 318.91 531.33 316.45 549.47 313.35 549.47"/><polygon class="cls-76" points="302.69 526.71 302.26 531.33 298.82 531.33 299.15 526.71 302.69 526.71"/><polygon class="cls-21" points="295.65 526.71 316.45 526.71 319.22 506.26 292.88 506.26 295.65 526.71"/><polygon class="cls-13" points="300.6 522.3 311.5 522.3 312.95 511.59 299.15 511.59 300.6 522.3"/><rect class="cls-21" x="290.45" y="503.95" width="31.21" height="4.63" transform="translate(612.1 1012.52) rotate(180)"/><polygon class="cls-75" points="313.35 526.71 315.5 509.94 295.75 509.94 296.71 525.46 298.11 526.71 295.65 526.71 293.19 508.57 318.91 508.57 316.45 526.71 313.35 526.71"/><polygon class="cls-76" points="302.69 503.95 302.26 508.57 298.82 508.57 299.15 503.95 302.69 503.95"/><polygon class="cls-21" points="258.95 549.47 279.75 549.47 282.52 529.02 256.18 529.02 258.95 549.47"/><polygon class="cls-13" points="263.9 545.06 274.8 545.06 276.25 534.35 262.45 534.35 263.9 545.06"/><rect class="cls-21" x="253.75" y="526.71" width="31.21" height="4.63" transform="translate(538.7 1058.04) rotate(180)"/><polygon class="cls-75" points="276.65 549.47 278.8 532.7 259.05 532.7 260.01 548.22 261.41 549.47 258.95 549.47 256.5 531.33 282.21 531.33 279.75 549.47 276.65 549.47"/><polygon class="cls-76" points="265.99 526.71 265.56 531.33 262.12 531.33 262.45 526.71 265.99 526.71"/><polygon class="cls-21" points="258.95 526.71 279.75 526.71 282.52 506.26 256.18 506.26 258.95 526.71"/><polygon class="cls-13" points="263.9 522.3 274.8 522.3 276.25 511.59 262.45 511.59 263.9 522.3"/><rect class="cls-21" x="253.75" y="503.95" width="31.21" height="4.63" transform="translate(538.7 1012.52) rotate(180)"/><polygon class="cls-75" points="276.65 526.71 278.8 509.94 259.05 509.94 260.01 525.46 261.41 526.71 258.95 526.71 256.5 508.57 282.21 508.57 279.75 526.71 276.65 526.71"/><polygon class="cls-76" points="265.99 503.95 265.56 508.57 262.12 508.57 262.45 503.95 265.99 503.95"/><polygon class="cls-21" points="222.25 549.47 243.05 549.47 245.82 529.02 219.48 529.02 222.25 549.47"/><polygon class="cls-13" points="227.2 545.06 238.1 545.06 239.55 534.35 225.75 534.35 227.2 545.06"/><rect class="cls-21" x="217.05" y="526.71" width="31.21" height="4.63" transform="translate(465.3 1058.04) rotate(180)"/><polygon class="cls-75" points="239.95 549.47 242.1 532.7 222.34 532.7 223.31 548.22 224.71 549.47 222.25 549.47 219.79 531.33 245.51 531.33 243.05 549.47 239.95 549.47"/><polygon class="cls-76" points="229.29 526.71 228.86 531.33 225.42 531.33 225.75 526.71 229.29 526.71"/><polygon class="cls-21" points="222.25 526.71 243.05 526.71 245.82 506.26 219.48 506.26 222.25 526.71"/><polygon class="cls-13" points="227.2 522.3 238.1 522.3 239.55 511.59 225.75 511.59 227.2 522.3"/><rect class="cls-21" x="217.05" y="503.95" width="31.21" height="4.63" transform="translate(465.3 1012.52) rotate(180)"/><polygon class="cls-75" points="239.95 526.71 242.1 509.94 222.34 509.94 223.31 525.46 224.71 526.71 222.25 526.71 219.79 508.57 245.51 508.57 243.05 526.71 239.95 526.71"/><polygon class="cls-76" points="229.29 503.95 228.86 508.57 225.42 508.57 225.75 503.95 229.29 503.95"/><path class="cls-77" d="M181.42,254.25V561.9H23.25V254.25Zm-14.85,9.9H33.15V552H166.57Z"/><rect class="cls-78" x="170.33" y="399.72" width="7.83" height="45.04"/><polygon class="cls-79" points="33.15 264.14 38.8 268.09 37.16 548.33 33.15 552 33.15 264.14"/><polygon class="cls-80" points="38.8 268.09 166.57 269.36 166.57 264.14 33.15 264.14 38.8 268.09"/><polygon class="cls-80" points="37.16 548.33 166.57 548.33 166.57 552 33.15 552 37.16 548.33"/><polygon class="cls-81" points="181.42 254.25 184.93 260.31 185.18 558.21 181.42 561.9 181.42 254.25"/><rect class="cls-61" x="170.33" y="413.87" width="7.83" height="4.57"/><path class="cls-77" d="M342.15,254.25V561.9H184V254.25ZM198.83,552H332.25V264.15H198.83Z"/><rect class="cls-82" x="187.24" y="399.72" width="7.83" height="45.04" transform="translate(382.32 844.49) rotate(180)"/><polygon class="cls-79" points="198.83 264.14 204.47 268.09 202.84 548.33 198.83 552 198.83 264.14"/><polygon class="cls-80" points="204.47 268.09 332.25 269.36 332.25 264.14 198.83 264.14 204.47 268.09"/><polygon class="cls-80" points="202.84 548.33 332.25 548.33 332.25 552 198.83 552 202.84 548.33"/><polygon class="cls-81" points="342.15 254.25 343.9 260.31 344.15 558.21 342.15 561.9 342.15 254.25"/><rect class="cls-61" x="187.24" y="413.87" width="7.83" height="4.57" transform="translate(382.32 832.3) rotate(180)"/><polygon class="cls-83" points="292.82 268.97 203.87 366.43 203.57 422.24 313.48 269.36 292.82 268.97"/><polygon class="cls-84" points="166.57 291.08 38 404.24 37.68 459.81 166.57 321.58 166.57 291.08"/><rect class="cls-85" x="203.65" y="268.09" width="128.6" height="280.25" transform="translate(535.89 816.42) rotate(180)"/><rect class="cls-86" x="38.1" y="268.09" width="128.6" height="280.25" transform="translate(204.8 816.42) rotate(180)"/><path class="cls-87" d="M807.13,1.38c2.5,0,4.53.56,4.53,1.26V40H802.6V2.64C802.6,1.94,804.63,1.38,807.13,1.38Z"/><path class="cls-88" d="M811.66,2.64V40h-4.53V1.38C809.63,1.38,811.66,1.94,811.66,2.64Z"/><path class="cls-87" d="M681.24,74.81c2.25,0,4.08.51,4.08,1.14v33.69h-8.17V76C677.15,75.32,679,74.81,681.24,74.81Z"/><path class="cls-88" d="M685.32,76v33.69h-4.08V74.81C683.49,74.81,685.32,75.32,685.32,76Z"/><polygon class="cls-89" points="785.32 70.05 616.61 152.17 716.45 152.17 900.29 79.89 785.32 70.05"/><polygon class="cls-5" points="616.61 152.17 641.19 110.03 787.2 29.07 785.32 70.05 616.61 152.17"/><polygon class="cls-90" points="900.29 79.89 854.97 36.4 787.2 29.07 785.32 70.05 900.29 79.89"/><polygon class="cls-61" points="785.32 70.05 879.42 78.07 715.43 142.77 634.82 143.44 785.32 70.05"/><polygon class="cls-91" points="715.72 148.35 715.43 142.77 634.82 143.44 616.61 152.17 715.72 148.35"/><path class="cls-92" d="M785.32,70.05l115,9.84L716.45,152.17H616.61ZM883.68,82.3,786,74l-152.83,74.4h82.51Z"/><polygon class="cls-93" points="741.04 54.66 701.91 110.65 673.98 124.25 715.72 68.7 741.04 54.66"/><polygon class="cls-93" points="666.17 96.18 638.8 141.37 616.61 152.17 641.19 110.03 666.17 96.18"/><path class="cls-94" d="M519.83,475.89a21,21,0,0,0-3.15-14.16A21.12,21.12,0,0,0,503.5,430.3,21.18,21.18,0,0,0,485,408.16a21.85,21.85,0,0,0-3.69-.16c-1.88-9.45-11.82-17.54-24.72-19.22a35.14,35.14,0,0,0-12.61.59c-4.17-6.41-12.22-11.34-22-12.6a33.64,33.64,0,0,0-18.65,2.69,21.28,21.28,0,0,0-33.8,8.86,17.19,17.19,0,0,0-28.74,2.59A16.25,16.25,0,0,0,335,389a16.47,16.47,0,0,0-18.49,14.09,16.17,16.17,0,0,0,0,4.45,17.33,17.33,0,0,0-25.05,13.05,17.05,17.05,0,0,0,3.78,13.15,18.95,18.95,0,0,0,12.89,34.72,18.88,18.88,0,0,0,10.18,32.9,19.12,19.12,0,0,0,12.28-2.53,23.41,23.41,0,0,0,40.76,10.42,23.44,23.44,0,0,0,41,1.74A23.43,23.43,0,0,0,446,516.69a23.22,23.22,0,0,0,12.24,5.47,23.48,23.48,0,0,0,20.33-7.39,17.17,17.17,0,0,0,24-13.32,16.82,16.82,0,0,0-.65-7.37A21.33,21.33,0,0,0,519.83,475.89Z"/><path class="cls-95" d="M488.33,436.56c.31,5.11-1.14,4.49-4.26,4.68s-6.76,1.12-7.06-4,2.49-2.68,5.62-2.87S488,431.44,488.33,436.56Z"/><path class="cls-96" d="M478.46,444.24s4.61,4.72,12.88,2.77"/><path class="cls-97" d="M468.6,467.58s7.84-8.75,13.9-4.13"/><path class="cls-95" d="M451.74,437.35c.3,5.11-2,9.42-5.11,9.61s-5.91-3.81-6.22-8.93,2-9.42,5.11-9.61S451.43,432.23,451.74,437.35Z"/><ellipse class="cls-61" cx="444.46" cy="434.73" rx="2.72" ry="2" transform="translate(-47.02 815.5) rotate(-82.13)"/><path class="cls-96" d="M403.38,379.46s2.95,1.43,5,6.17c0,0,15.59-3.23,23.2,5.26,5.53,6.18,3.4,11.64,3.4,11.64a20.75,20.75,0,0,1,16,1.66c8.21,4.51,6.3,16.47,6.3,16.47"/><path class="cls-96" d="M446,516.69a15.66,15.66,0,0,0,5.19-6.31s10.43-.43,14.89-10.16c3.2-7,0-10.3,0-10.3s7.45-1.72,7.15-13"/><path class="cls-96" d="M312.68,418.75S313.93,407,325.09,406"/><path class="cls-96" d="M334.73,397.53s4.59-8.48,13.59-5.12"/><path class="cls-96" d="M304.29,460.22a14.15,14.15,0,0,0,11.91,12.19"/><path class="cls-96" d="M344.89,496.83a44.93,44.93,0,0,0-1.59-8.07c-3.06-10.09-13.68-13-17.05-9.1"/><path class="cls-96" d="M330.57,498.81a15.73,15.73,0,0,0-12.61-9"/><path class="cls-96" d="M379.83,507.6c-11.47,1-18-4.22-18-4.22s-3.37,3.94-11,2c-3.89-1-5-2.67-5.51-5.43"/><path class="cls-96" d="M324.57,433.44c1.85,4.94,1.82,9.94-3.59,12.68"/><path class="cls-96" d="M307.54,417.15s-2.48,4.37,1.67,8.66c3,3.13,8.78,3.13,12.41,4.8"/><path class="cls-96" d="M295.22,433.72s5.35,7.24,14.37,8.1"/><path class="cls-96" d="M371.3,394c6.12,1.2,14.33,2.29,18.91.72,7.92-2.73,5.13-7.78-2-5.9s-9.16,2.56-9.16,2.56"/><path class="cls-96" d="M363.47,392.19s1.86.52,4.66,1.15"/><path class="cls-96" d="M496.82,426.43s6.29,2.38,7.35,11"/><path class="cls-96" d="M426.58,506a36.14,36.14,0,0,0,3.48-1.62"/><path class="cls-96" d="M402.94,508.33a43.77,43.77,0,0,0,19.12-.84"/><path class="cls-96" d="M335,464.79a24.53,24.53,0,0,1-8.28-.29c-8-1.69-13.45-5-16.18-11.56"/><path class="cls-96" d="M387.65,445.78c1.91-.71,3.9-1.38,6-2"/><path class="cls-96" d="M366.85,456.62a94.44,94.44,0,0,1,15.9-8.85"/><path class="cls-96" d="M398.64,430c-9.09-1.19-22.19,4.84-27.5,7.53a5.56,5.56,0,0,1-6.35-.8c-2-1.9-2.45-5.29,5.72-10.84"/><path class="cls-96" d="M341.37,463.14a19.86,19.86,0,0,1-2.87,1"/><path class="cls-96" d="M407.59,404.88s-7.57-7.18.09-10.42,26.09,3.72,32.26,14"/><path class="cls-98" d="M342.07,438.52s10.52-12.12,13.05-14.6,8.64-3.56,14.36-4.06,15.72-.14,15.72-.14,16.63,2.47,18.66,3.67a27.42,27.42,0,0,1,4.26,3.36s5.58-6.45,12.68-5.52,34.79,5.14,35,8,1,21,1,21,2.75-20.54,4.33-20.65,4.61-1.59,5.74,1.68,2.29,13.4,2.29,13.4,4.38-16.28,11.6-16.27,22.72-2.8,22.72-2.8l-.32-2.71-29,5.12a49.77,49.77,0,0,0-10.49-3.09c-4.63-.6-9.3-.89-9.3-.89s-29.05-8.15-36.27-8.15a49.2,49.2,0,0,0-13.46,2s-40.26-1.8-42.15-1.74-11.44,1-13.71,3.84S342.07,438.52,342.07,438.52Z"/><path class="cls-99" d="M412.15,412.93s-51.31,1.53-57.24.76-18.44,16.84-20.19,20.4,4.14,4.64,7.35,4.43,11.08-18.75,15.3-19.46,49.11,3.31,49.11,3.31Z"/><path class="cls-99" d="M505.9,419.4A96.34,96.34,0,0,0,482.08,421a44.53,44.53,0,0,0-9.34,2.15,54.18,54.18,0,0,1-12.56-.51C456,420.25,449,418.51,449,418.51s-15.71-5.42-31.1-6.75-15.65,3.81-15.14,4.72c.69,1.21,3.68,5.89,3.68,5.89S404.1,448.91,412,454.3s39.49,4.46,46.26,3.33c6.11-1,5.67-21.32,5.2-29.64a11.29,11.29,0,0,1,5.74-.08C468.05,435.6,466,454.29,471,456c5.62,1.94,32.26,7,39.33,3s7.3-28.9,7.3-28.9l2.86-2.77C523.39,424.63,519,420.2,505.9,419.4Zm-51.62,32.68c-4,1.15-34.28.24-38.35-4.31s-4.38-25.41-2.88-27.9,3.57-.54,10.51,0,34,7.44,34,7.44S458.33,450.93,454.28,452.08Zm53.28.4c-3.81,3.69-29.41.53-32.73-1.07s-.71-23.4-.71-23.4,23.46-2.8,29.35-2.41,7.82-1.14,8.87,1.37S511.37,448.79,507.56,452.48Z"/><path class="cls-100" d="M327.65,584.26s-2.66-8.46,2.11-13.64,8.14-8.51,12.58-6.77,5.09,5.59,2.26,9.28a81.48,81.48,0,0,1-5.87,6.77s7.24,6.68,6.61,9.2-6.21,5-8.75,4.38S328,585.76,327.65,584.26Z"/><path class="cls-100" d="M319.81,583.48s-2.66-8.46,2.11-13.64,8.14-8.51,12.58-6.77,5.09,5.59,2.26,9.28a81.48,81.48,0,0,1-5.87,6.77s7.24,6.68,6.61,9.2-6.21,5-8.75,4.37S320.19,585,319.81,583.48Z"/><path class="cls-100" d="M311.52,585.91s-.91-14,8.87-20.87c4.92-3.45,8.48-4.13,10.56-.09s-3.87,9.35-5.84,13.16-.21,8.09.61,8.48,9.85,2.73,9.85,2.73,1.15,17.55-4.87,16.76S311,591.89,311.52,585.91Z"/><path class="cls-100" d="M367.49,512.81A23.42,23.42,0,0,1,356,517.33l-5.76,43-2.83,2.33a95.89,95.89,0,0,0-7.95,10.8c-4.11,6.46-6.88,19-6.88,19l-15.26-7.36s-1.31-10.4-1.28-14.7-6.78-10-11.43-3.64-.95,19.25,6.36,29.35,16.87,15.65,27.44,17.56,29-2.56,33.11-12.8-10.4-39.26-10.4-39.26Z"/><path class="cls-98" d="M356,517.33l-1.07,8a42.53,42.53,0,0,0,11.18-2.06l1.36-10.47A23.42,23.42,0,0,1,356,517.33Z"/><path class="cls-100" d="M502.71,500.17c0,.42-.06.85-.11,1.28a17.09,17.09,0,0,1-11.94,14c10.67,7.71,27,20.14,27.4,24.38.63,6.32-11.42-3-11.42-3L510.49,555s26.7,13,34.7-5.4C551.5,535.12,517.4,510.09,502.71,500.17Z"/><path class="cls-98" d="M502.6,501.45a17.09,17.09,0,0,1-12,14c3,2.15,6.39,4.67,9.78,7.27A28.74,28.74,0,0,1,510,505.25c-2.71-1.95-5.19-3.67-7.29-5.08C502.69,500.6,502.65,501,502.6,501.45Z"/><path class="cls-100" d="M500.33,519.33s-25.77,1-32.43-.66-10.59-3.29-11.54,1.79,2.85,7.49,6.47,9.33,12.1,4.31,14.3,4.32,23.91,2.56,26.4-3.69S504,519,500.33,519.33Z"/><path class="cls-100" d="M521.76,555.1s-9.5,8.7-16,4.13-5.41-9.4-5.41-9.4l-8.84,3.82s4.89,4,3.52,7.91-9.44,2.09-13.62-.94-4.56-6.39-4.56-6.39a10.14,10.14,0,0,1-4.53-3.49c-2.13-2.76-1.07-7.59-1.07-7.59s-3.14-4.55-3.17-7.45,1.17-11.85,4.83-14.27,25.44-3.32,25.44-3.32-9.64-5.81-12.92-6.23-14.16,3.12-17.9,3-6-4.92-2.79-10.3,24.15-9.28,29.94-4.94A132.84,132.84,0,0,1,507.25,511l17.1,27.89a22.39,22.39,0,0,0,13.43-.1"/><path class="cls-96" d="M471.28,543.15s4.89-13.13,6.89-14.33,22.92-2.9,22.92-2.9"/><path class="cls-96" d="M476.88,554.23s4.11-13.3,6.89-14.78,18.51-3.1,18.51-3.1"/><path class="cls-95" d="M414.7,404.67s10.71-11.62,31.39-11.43a21.67,21.67,0,0,1,11.59,3.49l6.66,4.3L456,411.63s.1-4.77-14-7.13-23.25,6-25.73,4.62S411.2,406.87,414.7,404.67Z"/><path class="cls-95" d="M474.88,409.14s15.6,7.34,24.21-1.11,9.71-12.55,11.39-9.14-2.31,17.24-13.2,22.73-23.49-.4-23.49-.4Z"/><path class="cls-98" d="M512.28,387l49.87,6.49a5.08,5.08,0,0,0,5.69-4.34l7.82-58.4a5,5,0,0,0-4.36-5.65l-49.87-6.48a5.07,5.07,0,0,0-5.69,4.34l-7.82,58.4A5,5,0,0,0,512.28,387Z"/><path class="cls-98" d="M496,384.6l7.5,1a1.92,1.92,0,0,0,2.14-1.63l1.55-11.58a1.9,1.9,0,0,0-1.64-2.12l-7.49-1a1.9,1.9,0,0,0-2.14,1.63l-1.55,11.57A1.88,1.88,0,0,0,496,384.6Z"/><path class="cls-98" d="M486,388.18l3.89.5a1.9,1.9,0,0,0,2.14-1.63l.89-6.67a1.88,1.88,0,0,0-1.64-2.12l-3.89-.51a1.92,1.92,0,0,0-2.14,1.63l-.89,6.68A1.9,1.9,0,0,0,486,388.18Z"/><path class="cls-96" d="M436.16,299.94a4.59,4.59,0,0,0-2.77,2.14,8.76,8.76,0,0,0-1.08,2.17c-.22.7-.43,1.46-.63,2.27l-12.06-4.42a33,33,0,0,1,1.27-3.86,20.58,20.58,0,0,1,1.9-3.57q4.09-6.23,10.21-7.24t13.24,3.62q7.2,4.69,8.62,11t-3.15,13.21a27.27,27.27,0,0,1-6.73,7.13c-.38.28-.76.55-1.15.81m-2.18,1.31a33,33,0,0,1-5.59,2.38,46,46,0,0,1-10.85,2l-4.56,6.93-10.55-6.87,6-9.12a45.58,45.58,0,0,0,9.41-1.76,31.62,31.62,0,0,0,8.32-3.83A21.24,21.24,0,0,0,440,308.1a7.12,7.12,0,0,0,1.52-4.41,4.08,4.08,0,0,0-2-3m-39.67,43.08,7.22-11,11.33,7.37-7.21,11Z"/><path class="cls-96" d="M572.29,520.72a18.81,18.81,0,0,0,3.84-4.45,6.32,6.32,0,0,0,1.24-4,3.6,3.6,0,0,0-1.89-2.62,3.82,3.82,0,0,0-3-.59,4.1,4.1,0,0,0-2.42,2,8,8,0,0,0-.9,2c-.18.63-.35,1.31-.5,2l-10.84-3.63a28.4,28.4,0,0,1,1-3.47,17.62,17.62,0,0,1,1.6-3.23c2.32-3.75,5.29-6,8.9-6.69s7.57.26,11.88,2.89a18.22,18.22,0,0,1,6.91,6.86m1.15,3.2q1.11,5.32-2.59,11.31a24.39,24.39,0,0,1-5.81,6.51,27.89,27.89,0,0,1-7.82,4.23,40.87,40.87,0,0,1-9.61,2.07l-3.88,6.28L550,535.55l5.11-8.26a40.13,40.13,0,0,0,8.33-1.8,28.48,28.48,0,0,0,7.31-3.61M541.27,549l6.15-9.93,10.27,6.28-6.15,9.94Z"/><path class="cls-96" d="M284.05,409.23a22.68,22.68,0,0,1,6.9,1.09q7.56,2.3,10.43,7.47t.65,12.46a25.07,25.07,0,0,1-4.08,8,26.09,26.09,0,0,1-2.87,3.18m-2.27,1.95c-.5.39-1,.76-1.56,1.12a41.59,41.59,0,0,1-9,4.57L280,456.36,268.91,453l2.93-9.59a41.09,41.09,0,0,0,7.83-4A28.92,28.92,0,0,0,286,434a19.36,19.36,0,0,0,3.85-7,6.48,6.48,0,0,0,.2-4.28,3.77,3.77,0,0,0-2.58-2.13,3.9,3.9,0,0,0-3.12.19,4.19,4.19,0,0,0-1.9,2.59,8.14,8.14,0,0,0-.38,2.2q0,1,0,2.16l-11.77-.81a28.46,28.46,0,0,1,.12-3.74,18.15,18.15,0,0,1,.74-3.63q2-6.54,7.13-9a12.8,12.8,0,0,1,3.83-1.14M263.7,468.71l3.52-11.52,11.9,3.61-3.52,11.52Z"/><path class="cls-96" d="M407.18,576.78c.42-.22.84-.44,1.25-.67a19.47,19.47,0,0,0,4.44-3.43,12.93,12.93,0,0,0,2.83-4.51,4.33,4.33,0,0,0,.31-2.84,2.51,2.51,0,0,0-1.64-1.51,2.61,2.61,0,0,0-2.09,0,2.82,2.82,0,0,0-1.36,1.66,5.34,5.34,0,0,0-.35,1.45q0,.66-.06,1.44l-7.81-1a19.33,19.33,0,0,1,.23-2.49,12.26,12.26,0,0,1,.63-2.39,9.24,9.24,0,0,1,5.1-5.72c2.34-1,5.14-.85,8.41.35s5.51,3,6.66,5.37m.64,1.86a11.53,11.53,0,0,1-.69,6.47,16.86,16.86,0,0,1-3,5.18,19.16,19.16,0,0,1-4.7,3.91,28.23,28.23,0,0,1-6.2,2.69L408,587.38l-7.25-2.66,2.33-6.28a27,27,0,0,0,2.81-1.05M396.66,595l2.79-7.53,7.78,2.85-2.79,7.54Z"/><path class="cls-94" d="M530.51,356.94l5.26-11.28a51.38,51.38,0,0,0,10.31-3.52,35.91,35.91,0,0,0,8.75-5.68,24,24,0,0,0,5.95-7.93q1.51-3.24,1-5.23a4.65,4.65,0,0,0-2.81-3.05,4.84,4.84,0,0,0-3.87-.3,5.2,5.2,0,0,0-2.78,2.86,10.14,10.14,0,0,0-.85,2.63c-.14.83-.25,1.71-.33,2.67l-14.34-3a35.85,35.85,0,0,1,.8-4.57,22.58,22.58,0,0,1,1.54-4.34q3.58-7.69,10.31-9.85T565,308.26q8.89,4.11,11.54,11t-1.35,15.42a31.34,31.34,0,0,1-6.41,9.15,35.86,35.86,0,0,1-9.31,6.54,52.12,52.12,0,0,1-11.91,4.06l-4,8.57Zm-9.12,18.42,6.32-13.55,14,6.47-6.32,13.55Z"/></g></g></svg>